  0
SECTION
  2
HEADER
  9
$ACADVER
  1
AC1009
  9
$DWGCODEPAGE
  3
ansi_1252
  9
$INSBASE
 10
0.0
 20
0.0
 30
0.0
  9
$EXTMIN
 10
4.271206623074
 20
7.014206623074
 30
0.0
  9
$EXTMAX
 10
50.592793376926
 20
43.887793376926
 30
4.6228
  9
$LIMMIN
 10
0.0
 20
0.0
  9
$LIMMAX
 10
12.0
 20
9.0
  9
$ORTHOMODE
 70
     0
  9
$REGENMODE
 70
     1
  9
$FILLMODE
 70
     1
  9
$QTEXTMODE
 70
     0
  9
$MIRRTEXT
 70
     1
  9
$DRAGMODE
 70
     2
  9
$LTSCALE
 40
1.0
  9
$OSMODE
 70
    37
  9
$ATTMODE
 70
     1
  9
$TEXTSIZE
 40
1.0
  9
$TRACEWID
 40
0.05
  9
$TEXTSTYLE
  7
STANDARD
  9
$CLAYER
  8
0
  9
$CELTYPE
  6
BYBLOCK
  9
$CECOLOR
 62
   256
  9
$DIMSCALE
 40
1.0
  9
$DIMASZ
 40
0.18
  9
$DIMEXO
 40
0.0625
  9
$DIMDLI
 40
0.38
  9
$DIMRND
 40
0.0
  9
$DIMDLE
 40
0.0
  9
$DIMEXE
 40
0.18
  9
$DIMTP
 40
0.0
  9
$DIMTM
 40
0.0
  9
$DIMTXT
 40
0.18
  9
$DIMCEN
 40
0.09
  9
$DIMTSZ
 40
0.0
  9
$DIMTOL
 70
     0
  9
$DIMLIM
 70
     0
  9
$DIMTIH
 70
     1
  9
$DIMTOH
 70
     1
  9
$DIMSE1
 70
     0
  9
$DIMSE2
 70
     0
  9
$DIMTAD
 70
     0
  9
$DIMZIN
 70
     0
  9
$DIMBLK
  1

  9
$DIMASO
 70
     1
  9
$DIMSHO
 70
     1
  9
$DIMPOST
  1

  9
$DIMAPOST
  1

  9
$DIMALT
 70
     0
  9
$DIMALTD
 70
     2
  9
$DIMALTF
 40
25.4
  9
$DIMLFAC
 40
1.0
  9
$DIMTOFL
 70
     0
  9
$DIMTVP
 40
0.0
  9
$DIMTIX
 70
     0
  9
$DIMSOXD
 70
     0
  9
$DIMSAH
 70
     0
  9
$DIMBLK1
  1

  9
$DIMBLK2
  1

  9
$DIMSTYLE
  2
STANDARD
  9
$DIMCLRD
 70
     0
  9
$DIMCLRE
 70
     0
  9
$DIMCLRT
 70
     0
  9
$DIMTFAC
 40
1.0
  9
$DIMGAP
 40
0.09
  9
$LUNITS
 70
     2
  9
$LUPREC
 70
     4
  9
$SKETCHINC
 40
0.1
  9
$FILLETRAD
 40
0.5
  9
$AUNITS
 70
     0
  9
$AUPREC
 70
     0
  9
$MENU
  1
.
  9
$ELEVATION
 40
0.0
  9
$PELEVATION
 40
0.0
  9
$THICKNESS
 40
0.0
  9
$LIMCHECK
 70
     0
  9
$CHAMFERA
 40
0.0
  9
$CHAMFERB
 40
0.0
  9
$SKPOLY
 70
     0
  9
$TDCREATE
 40
2458649.684714954
  9
$TDUPDATE
 40
2458649.685548518
  9
$TDINDWG
 40
0.0000000116
  9
$TDUSRTIMER
 40
0.0000000116
  9
$USRTIMER
 70
     1
  9
$ANGBASE
 50
0.0
  9
$ANGDIR
 70
     0
  9
$PDMODE
 70
     2
  9
$PDSIZE
 40
0.0
  9
$PLINEWID
 40
0.0
  9
$COORDS
 70
     1
  9
$SPLFRAME
 70
     0
  9
$SPLINETYPE
 70
     6
  9
$SPLINESEGS
 70
     8
  9
$ATTDIA
 70
     0
  9
$ATTREQ
 70
     1
  9
$HANDLING
 70
     1
  9
$HANDSEED
  5
16D
  9
$SURFTAB1
 70
     6
  9
$SURFTAB2
 70
     6
  9
$SURFTYPE
 70
     6
  9
$SURFU
 70
     6
  9
$SURFV
 70
     6
  9
$UCSNAME
  2

  9
$UCSORG
 10
0.0
 20
0.0
 30
0.0
  9
$UCSXDIR
 10
1.0
 20
0.0
 30
0.0
  9
$UCSYDIR
 10
0.0
 20
1.0
 30
0.0
  9
$PUCSNAME
  2

  9
$PUCSORG
 10
0.0
 20
0.0
 30
0.0
  9
$PUCSXDIR
 10
1.0
 20
0.0
 30
0.0
  9
$PUCSYDIR
 10
0.0
 20
1.0
 30
0.0
  9
$USERI1
 70
     0
  9
$USERI2
 70
     0
  9
$USERI3
 70
     0
  9
$USERI4
 70
     0
  9
$USERI5
 70
     0
  9
$USERR1
 40
0.0
  9
$USERR2
 40
0.0
  9
$USERR3
 40
0.0
  9
$USERR4
 40
0.0
  9
$USERR5
 40
0.0
  9
$WORLDVIEW
 70
     1
  9
$SHADEDGE
 70
     3
  9
$SHADEDIF
 70
    70
  9
$TILEMODE
 70
     1
  9
$MAXACTVP
 70
    64
  9
$PLIMCHECK
 70
     0
  9
$PEXTMIN
 10
1.000000000000E+20
 20
1.000000000000E+20
 30
1.000000000000E+20
  9
$PEXTMAX
 10
-1.000000000000E+20
 20
-1.000000000000E+20
 30
-1.000000000000E+20
  9
$PLIMMIN
 10
0.0
 20
0.0
  9
$PLIMMAX
 10
12.0
 20
9.0
  9
$UNITMODE
 70
     0
  9
$VISRETAIN
 70
     1
  9
$PLINEGEN
 70
     0
  9
$PSLTSCALE
 70
     1
  0
ENDSEC
  0
SECTION
  2
TABLES
  0
TABLE
  2
VPORT
 70
     1
  0
VPORT
  2
*ACTIVE
 70
     0
 10
0.0
 20
0.0
 11
1.0
 21
1.0
 12
27.150359395075
 22
23.283329234213
 13
0.0
 23
0.0
 14
0.5
 24
0.5
 15
0.5
 25
0.5
 16
1.000000000000014
 26
-1.000000000000007
 36
1.0
 17
17.345759691384
 27
-4.228606587684
 37
-18.221866279068
 40
72.991735077058
 41
1.903969270166
 42
50.0
 43
0.0
 44
0.0
 50
0.0
 51
0.0
 71
    16
 72
   100
 73
     1
 74
     3
 75
     0
 76
     0
 77
     0
 78
     0
  0
ENDTAB
  0
TABLE
  2
LTYPE
 70
    19
  0
LTYPE
  2
CONTINUOUS
 70
     0
  3
Solid
 72
    65
 73
     0
 40
0.0
  0
LTYPE
  2
PHANTOM
 70
     0
  3
Phantom ______  __  __  ______  __  __  ______
 72
    65
 73
     6
 40
2.5
 49
1.25
 49
-0.25
 49
0.25
 49
-0.25
 49
0.25
 49
-0.25
  0
LTYPE
  2
DOT2
 70
     0
  3
Dot (.5) . . . . . . . . . . . . . . . . . . . 
 72
    65
 73
     2
 40
0.1
 49
0.0
 49
-0.1
  0
LTYPE
  2
DIVIDE
 70
     0
  3
Divide __ . . __ . . __ . . __ . . __ . . __
 72
    65
 73
     6
 40
1.6
 49
1.0
 49
-0.2
 49
0.0
 49
-0.2
 49
0.0
 49
-0.2
  0
LTYPE
  2
DIVIDEX2
 70
     0
  3
Divide (2x) ____  . .  ____  . .  ____  . .  ____
 72
    65
 73
     6
 40
2.6
 49
2.0
 49
-0.2
 49
0.0
 49
-0.2
 49
0.0
 49
-0.2
  0
LTYPE
  2
CENTER
 70
     0
  3
Center ____ _ ____ _ ____ _ ____ _ ____ _ ____
 72
    65
 73
     4
 40
2.0
 49
1.25
 49
-0.25
 49
0.25
 49
-0.25
  0
LTYPE
  2
DASHDOT
 70
     0
  3
Dash dot __ . __ . __ . __ . __ . __ . __ . __
 72
    65
 73
     4
 40
1.4
 49
1.0
 49
-0.2
 49
0.0
 49
-0.2
  0
LTYPE
  2
CENTERX2
 70
     0
  3
Center (2x) ________  __  ________  __  ________
 72
    65
 73
     4
 40
3.5
 49
2.5
 49
-0.25
 49
0.5
 49
-0.25
  0
LTYPE
  2
PHANTOMX2
 70
     0
  3
Phantom (2x)____________    ____    ____    ____________
 72
    65
 73
     6
 40
4.25
 49
2.5
 49
-0.25
 49
0.5
 49
-0.25
 49
0.5
 49
-0.25
  0
LTYPE
  2
PHANTOM2
 70
     0
  3
Phantom (.5x) ___ _ _ ___ _ _ ___ _ _ ___ _ _ ___
 72
    65
 73
     6
 40
1.25
 49
0.625
 49
-0.125
 49
0.125
 49
-0.125
 49
0.125
 49
-0.125
  0
LTYPE
  2
DASHED
 70
     0
  3
Dashed __ __ __ __ __ __ __ __ __ __ __ __ __ _
 72
    65
 73
     2
 40
0.6
 49
0.5
 49
-0.1
  0
LTYPE
  2
DASHED2
 70
     0
  3
Dashed (.5x) _ _ _ _ _ _ _ _ _ _ _ _ _ _
 72
    65
 73
     2
 40
0.3
 49
0.25
 49
-0.05
  0
LTYPE
  2
DASHDOT2
 70
     0
  3
Dash dot (.5x) _ . _ . _ . _ . _ . _ . _ . _
 72
    65
 73
     4
 40
0.7
 49
0.5
 49
-0.1
 49
0.0
 49
-0.1
  0
LTYPE
  2
DOTX2
 70
     0
  3
Dot (2x) .    .    .    .    .    .    .    . 
 72
    65
 73
     2
 40
0.4
 49
0.0
 49
-0.4
  0
LTYPE
  2
DIVIDE2
 70
     0
  3
Divide(.5x) _ . _ . _ . _ . _ . _ . _ . _
 72
    65
 73
     6
 40
0.8
 49
0.5
 49
-0.1
 49
0.0
 49
-0.1
 49
0.0
 49
-0.1
  0
LTYPE
  2
CENTER2
 70
     0
  3
Center (.5x) ____ _ ____ _ ____ _ ____ _ ____
 72
    65
 73
     4
 40
1.0
 49
0.625
 49
-0.125
 49
0.125
 49
-0.125
  0
LTYPE
  2
DASHDOTX2
 70
     0
  3
Dash dot (2x) ____  .  ____  .  ____  .  ____
 72
    65
 73
     4
 40
2.4
 49
2.0
 49
-0.2
 49
0.0
 49
-0.2
  0
LTYPE
  2
DOT
 70
     0
  3
Dot .  .  .  .  .  .  .  .  .  .  .  .  .  .  .  .
 72
    65
 73
     2
 40
0.2
 49
0.0
 49
-0.2
  0
LTYPE
  2
DASHEDX2
 70
     0
  3
Dashed (2x) ____  ____  ____  ____  ____  ____
 72
    65
 73
     2
 40
1.2
 49
1.0
 49
-0.2
  0
ENDTAB
  0
TABLE
  2
LAYER
 70
     8
  0
LAYER
  2
0
 70
     0
 62
     7
  6
CONTINUOUS
  0
LAYER
  2
DIMENSIONS
 70
     0
 62
     1
  6
CONTINUOUS
  0
LAYER
  2
TABLECONTENT
 70
     0
 62
     1
  6
CONTINUOUS
  0
LAYER
  2
TABLEBACKGROUND
 70
     0
 62
     1
  6
CONTINUOUS
  0
LAYER
  2
_____COLA_COLB__COLC__COLD
 70
     0
 62
     1
  6
CONTINUOUS
  0
LAYER
  2
POINTS
 70
     0
 62
     1
  6
CONTINUOUS
  0
LAYER
  2
TABLEGRID
 70
     0
 62
     1
  6
CONTINUOUS
  0
LAYER
  2
VIEWPORTS
 70
     0
 62
     7
  6
CONTINUOUS
  0
ENDTAB
  0
TABLE
  2
STYLE
 70
    12
  0
STYLE
  2
STANDARD
 70
     0
 40
0.0
 41
1.0
 50
0.0
 71
     0
 42
1.0
  3
arial.ttf
  4

  0
STYLE
  2
TIMES
 70
     0
 40
0.0
 41
1.0
 50
0.0
 71
     0
 42
1.0
  3
times.ttf
  4

  0
STYLE
  2
ARIAL
 70
     0
 40
0.0
 41
1.0
 50
0.0
 71
     0
 42
1.0
  3
arial.ttf
  4

  0
STYLE
  2
TIMES_BOLD
 70
     0
 40
0.0
 41
1.0
 50
0.0
 71
     0
 42
1.0
  3
timesbd.ttf
  4

  0
STYLE
  2
ARIAL_BLACK
 70
     0
 40
0.0
 41
1.0
 50
0.0
 71
     0
 42
1.0
  3
ariblk.ttf
  4

  0
STYLE
  2
TIMES_ITALIC
 70
     0
 40
0.0
 41
1.0
 50
0.0
 71
     0
 42
1.0
  3
timesi.ttf
  4

  0
STYLE
  2
ISOCPEUR
 70
     0
 40
0.0
 41
1.0
 50
0.0
 71
     0
 42
1.0
  3
isocpeur.ttf
  4

  0
STYLE
  2
ARIAL_BOLD
 70
     0
 40
0.0
 41
1.0
 50
0.0
 71
     0
 42
1.0
  3
arialbd.ttf
  4

  0
STYLE
  2
ARIAL_ITALIC
 70
     0
 40
0.0
 41
1.0
 50
0.0
 71
     0
 42
1.0
  3
ariali.ttf
  4

  0
STYLE
  2
ARIAL_BOLD_ITALIC
 70
     0
 40
0.0
 41
1.0
 50
0.0
 71
     0
 42
1.0
  3
arialbi.ttf
  4

  0
STYLE
  2
TIMES_BOLD_ITALIC
 70
     0
 40
0.0
 41
1.0
 50
0.0
 71
     0
 42
1.0
  3
timesbi.ttf
  4

  0
STYLE
  2
ISOCPEUR_ITALIC
 70
     0
 40
0.0
 41
1.0
 50
0.0
 71
     0
 42
1.0
  3
isocpeui.ttf
  4

  0
ENDTAB
  0
TABLE
  2
VIEW
 70
     0
  0
ENDTAB
  0
TABLE
  2
UCS
 70
     0
  0
ENDTAB
  0
TABLE
  2
APPID
 70
     2
  0
APPID
  2
ACAD
 70
     0
  0
APPID
  2
DXFWRITE
 70
     0
  0
ENDTAB
  0
TABLE
  2
DIMSTYLE
 70
     1
  0
DIMSTYLE
  2
STANDARD
 70
     0
  3

  4

  5

  6

  7

 40
1.0
 41
0.18
 42
0.0625
 43
0.38
 44
0.18
 45
0.0
 46
0.0
 47
0.0
 48
0.0
140
0.18
141
0.09
142
0.0
143
25.4
144
1.0
145
0.0
146
1.0
147
0.09
 71
     0
 72
     0
 73
     1
 74
     1
 75
     0
 76
     0
 77
     0
 78
     0
170
     0
171
     2
172
     0
173
     0
174
     0
175
     0
176
     0
177
     0
178
     0
  0
ENDTAB
  0
ENDSEC
  0
SECTION
  2
BLOCKS
  0
BLOCK
  8
0
  2
$MODEL_SPACE
 70
     0
 10
0.0
 20
0.0
 30
0.0
  3
$MODEL_SPACE
  1

  0
ENDBLK
  5
13F
  8
0
  0
BLOCK
 67
     1
  8
0
  2
$PAPER_SPACE
 70
     0
 10
0.0
 20
0.0
 30
0.0
  3
$PAPER_SPACE
  1

  0
ENDBLK
  5
141
 67
     1
  8
0
  0
ENDSEC
  0
SECTION
  2
ENTITIES
  0
POINT
  5
4A
  8
POINTS
 62
     0
 10
32.3596
 20
17.145
 30
4.4704
  0
POINT
  5
4B
  8
POINTS
 62
     0
 10
32.3596
 20
17.145
 30
4.6228
  0
POINT
  5
4C
  8
POINTS
 62
     0
 10
32.3596
 20
25.451
 30
0.0
  0
POINT
  5
4D
  8
POINTS
 62
     0
 10
32.3596
 20
25.451
 30
4.4196
  0
POINT
  5
4E
  8
POINTS
 62
     0
 10
32.3596
 20
25.451
 30
4.4704
  0
POINT
  5
4F
  8
POINTS
 62
     0
 10
32.3596
 20
25.451
 30
4.6228
  0
POINT
  5
50
  8
POINTS
 62
     0
 10
32.3596
 20
33.757
 30
0.0
  0
POINT
  5
51
  8
POINTS
 62
     0
 10
32.3596
 20
33.757
 30
4.4196
  0
POINT
  5
52
  8
POINTS
 62
     0
 10
32.3596
 20
33.757
 30
4.4704
  0
POINT
  5
53
  8
POINTS
 62
     0
 10
32.3596
 20
33.757
 30
4.6228
  0
POINT
  5
54
  8
POINTS
 62
     0
 10
32.3596
 20
42.063
 30
0.0
  0
POINT
  5
55
  8
POINTS
 62
     0
 10
32.3596
 20
42.063
 30
4.4196
  0
POINT
  5
56
  8
POINTS
 62
     0
 10
32.3596
 20
42.063
 30
4.4704
  0
POINT
  5
57
  8
POINTS
 62
     0
 10
32.3596
 20
42.063
 30
4.6228
  0
POINT
  5
58
  8
POINTS
 62
     0
 10
20.3708
 20
8.839
 30
0.0
  0
POINT
  5
59
  8
POINTS
 62
     0
 10
20.3708
 20
8.839
 30
4.4196
  0
POINT
  5
5A
  8
POINTS
 62
     0
 10
20.3708
 20
8.839
 30
4.4704
  0
POINT
  5
5B
  8
POINTS
 62
     0
 10
20.3708
 20
8.839
 30
4.6228
  0
POINT
  5
5C
  8
POINTS
 62
     0
 10
14.0208
 20
8.839
 30
0.0
  0
POINT
  5
5D
  8
POINTS
 62
     0
 10
14.0208
 20
8.839
 30
4.4196
  0
POINT
  5
5E
  8
POINTS
 62
     0
 10
14.0208
 20
8.839
 30
4.4704
  0
POINT
  5
5F
  8
POINTS
 62
     0
 10
14.0208
 20
8.839
 30
4.6228
  0
POINT
  5
60
  8
POINTS
 62
     0
 10
48.768
 20
8.839
 30
4.6228
  0
POINT
  5
61
  8
POINTS
 62
     0
 10
20.3708
 20
17.145
 30
0.0
  0
POINT
  5
62
  8
POINTS
 62
     0
 10
20.3708
 20
17.145
 30
4.4196
  0
POINT
  5
63
  8
POINTS
 62
     0
 10
20.3708
 20
17.145
 30
4.4704
  0
POINT
  5
64
  8
POINTS
 62
     0
 10
20.3708
 20
17.145
 30
4.6228
  0
POINT
  5
65
  8
POINTS
 62
     0
 10
14.0208
 20
17.145
 30
0.0
  0
POINT
  5
66
  8
POINTS
 62
     0
 10
14.0208
 20
17.145
 30
4.4196
  0
POINT
  5
67
  8
POINTS
 62
     0
 10
14.0208
 20
17.145
 30
4.4704
  0
POINT
  5
68
  8
POINTS
 62
     0
 10
14.0208
 20
17.145
 30
4.6228
  0
POINT
  5
69
  8
POINTS
 62
     0
 10
20.3708
 20
25.451
 30
4.4196
  0
POINT
  5
6A
  8
POINTS
 62
     0
 10
20.3708
 20
25.451
 30
4.4704
  0
POINT
  5
6B
  8
POINTS
 62
     0
 10
20.3708
 20
25.451
 30
4.6228
  0
POINT
  5
6C
  8
POINTS
 62
     0
 10
14.0208
 20
25.451
 30
0.0
  0
POINT
  5
6D
  8
POINTS
 62
     0
 10
14.0208
 20
25.451
 30
4.4196
  0
POINT
  5
6E
  8
POINTS
 62
     0
 10
14.0208
 20
25.451
 30
4.4704
  0
POINT
  5
6F
  8
POINTS
 62
     0
 10
14.0208
 20
25.451
 30
4.6228
  0
POINT
  5
70
  8
POINTS
 62
     0
 10
20.3708
 20
33.757
 30
0.0
  0
POINT
  5
71
  8
POINTS
 62
     0
 10
20.3708
 20
33.757
 30
4.4196
  0
POINT
  5
72
  8
POINTS
 62
     0
 10
20.3708
 20
33.757
 30
4.4704
  0
POINT
  5
73
  8
POINTS
 62
     0
 10
20.3708
 20
33.757
 30
4.6228
  0
POINT
  5
74
  8
POINTS
 62
     0
 10
48.768
 20
42.063
 30
4.6228
  0
POINT
  5
75
  8
POINTS
 62
     0
 10
48.768
 20
8.839
 30
0.0
  0
POINT
  5
76
  8
POINTS
 62
     0
 10
48.768
 20
8.839
 30
4.4196
  0
POINT
  5
77
  8
POINTS
 62
     0
 10
48.768
 20
8.839
 30
4.4704
  0
POINT
  5
78
  8
POINTS
 62
     0
 10
14.0208
 20
33.757
 30
0.0
  0
POINT
  5
79
  8
POINTS
 62
     0
 10
14.0208
 20
33.757
 30
4.4196
  0
POINT
  5
7A
  8
POINTS
 62
     0
 10
14.0208
 20
33.757
 30
4.4704
  0
POINT
  5
7B
  8
POINTS
 62
     0
 10
14.0208
 20
33.757
 30
4.6228
  0
POINT
  5
7C
  8
POINTS
 62
     0
 10
20.3708
 20
42.063
 30
4.4196
  0
POINT
  5
7D
  8
POINTS
 62
     0
 10
20.3708
 20
42.063
 30
4.4704
  0
POINT
  5
7E
  8
POINTS
 62
     0
 10
20.3708
 20
42.063
 30
4.6228
  0
POINT
  5
7F
  8
POINTS
 62
     0
 10
14.0208
 20
42.063
 30
0.0
  0
POINT
  5
80
  8
POINTS
 62
     0
 10
14.0208
 20
42.063
 30
4.4196
  0
POINT
  5
81
  8
POINTS
 62
     0
 10
14.0208
 20
42.063
 30
4.4704
  0
POINT
  5
82
  8
POINTS
 62
     0
 10
14.0208
 20
42.063
 30
4.6228
  0
POINT
  5
83
  8
POINTS
 62
     0
 10
48.768
 20
17.145
 30
0.0
  0
POINT
  5
84
  8
POINTS
 62
     0
 10
48.768
 20
17.145
 30
4.4196
  0
POINT
  5
85
  8
POINTS
 62
     0
 10
48.768
 20
17.145
 30
4.4704
  0
POINT
  5
86
  8
POINTS
 62
     0
 10
48.768
 20
17.145
 30
4.6228
  0
POINT
  5
87
  8
POINTS
 62
     0
 10
48.768
 20
25.451
 30
0.0
  0
POINT
  5
88
  8
POINTS
 62
     0
 10
48.768
 20
25.451
 30
4.4196
  0
POINT
  5
89
  8
POINTS
 62
     0
 10
48.768
 20
25.451
 30
4.4704
  0
POINT
  5
8A
  8
POINTS
 62
     0
 10
48.768
 20
25.451
 30
4.6228
  0
POINT
  5
8B
  8
POINTS
 62
     0
 10
6.096
 20
8.839
 30
0.0
  0
POINT
  5
8C
  8
POINTS
 62
     0
 10
6.096
 20
8.839
 30
4.4196
  0
POINT
  5
8D
  8
POINTS
 62
     0
 10
6.096
 20
8.839
 30
4.4704
  0
POINT
  5
8E
  8
POINTS
 62
     0
 10
6.096
 20
8.839
 30
4.6228
  0
POINT
  5
8F
  8
POINTS
 62
     0
 10
48.768
 20
33.757
 30
0.0
  0
POINT
  5
90
  8
POINTS
 62
     0
 10
48.768
 20
33.757
 30
4.4196
  0
POINT
  5
91
  8
POINTS
 62
     0
 10
48.768
 20
33.757
 30
4.4704
  0
POINT
  5
92
  8
POINTS
 62
     0
 10
48.768
 20
33.757
 30
4.6228
  0
POINT
  5
93
  8
POINTS
 62
     0
 10
20.3708
 20
42.063
 30
0.0
  0
POINT
  5
94
  8
POINTS
 62
     0
 10
48.768
 20
42.063
 30
0.0
  0
POINT
  5
95
  8
POINTS
 62
     0
 10
48.768
 20
42.063
 30
4.4196
  0
POINT
  5
96
  8
POINTS
 62
     0
 10
48.768
 20
42.063
 30
4.4704
  0
POINT
  5
97
  8
POINTS
 62
     0
 10
40.2336
 20
25.451
 30
4.4196
  0
POINT
  5
98
  8
POINTS
 62
     0
 10
6.096
 20
17.145
 30
0.0
  0
POINT
  5
99
  8
POINTS
 62
     0
 10
6.096
 20
17.145
 30
4.4196
  0
POINT
  5
9A
  8
POINTS
 62
     0
 10
6.096
 20
17.145
 30
4.4704
  0
POINT
  5
9B
  8
POINTS
 62
     0
 10
6.096
 20
17.145
 30
4.6228
  0
POINT
  5
9C
  8
POINTS
 62
     0
 10
6.096
 20
25.451
 30
0.0
  0
POINT
  5
9D
  8
POINTS
 62
     0
 10
6.096
 20
25.451
 30
4.4196
  0
POINT
  5
9E
  8
POINTS
 62
     0
 10
6.096
 20
25.451
 30
4.4704
  0
POINT
  5
9F
  8
POINTS
 62
     0
 10
6.096
 20
25.451
 30
4.6228
  0
POINT
  5
A0
  8
POINTS
 62
     0
 10
40.2336
 20
8.839
 30
0.0
  0
POINT
  5
A1
  8
POINTS
 62
     0
 10
40.2336
 20
8.839
 30
4.4196
  0
POINT
  5
A2
  8
POINTS
 62
     0
 10
40.2336
 20
8.839
 30
4.4704
  0
POINT
  5
A3
  8
POINTS
 62
     0
 10
6.096
 20
33.757
 30
0.0
  0
POINT
  5
A4
  8
POINTS
 62
     0
 10
6.096
 20
33.757
 30
4.4196
  0
POINT
  5
A5
  8
POINTS
 62
     0
 10
6.096
 20
33.757
 30
4.4704
  0
POINT
  5
A6
  8
POINTS
 62
     0
 10
6.096
 20
33.757
 30
4.6228
  0
POINT
  5
A7
  8
POINTS
 62
     0
 10
6.096
 20
42.063
 30
0.0
  0
POINT
  5
A8
  8
POINTS
 62
     0
 10
6.096
 20
42.063
 30
4.4196
  0
POINT
  5
A9
  8
POINTS
 62
     0
 10
6.096
 20
42.063
 30
4.4704
  0
POINT
  5
AA
  8
POINTS
 62
     0
 10
6.096
 20
42.063
 30
4.6228
  0
POINT
  5
AB
  8
POINTS
 62
     0
 10
40.2336
 20
17.145
 30
0.0
  0
POINT
  5
AC
  8
POINTS
 62
     0
 10
40.2336
 20
17.145
 30
4.4196
  0
POINT
  5
AD
  8
POINTS
 62
     0
 10
40.2336
 20
17.145
 30
4.4704
  0
POINT
  5
AE
  8
POINTS
 62
     0
 10
40.2336
 20
17.145
 30
4.6228
  0
POINT
  5
AF
  8
POINTS
 62
     0
 10
40.2336
 20
25.451
 30
0.0
  0
POINT
  5
B0
  8
POINTS
 62
     0
 10
20.3708
 20
25.451
 30
0.0
  0
POINT
  5
B1
  8
POINTS
 62
     0
 10
40.2336
 20
25.451
 30
4.4704
  0
POINT
  5
B2
  8
POINTS
 62
     0
 10
40.2336
 20
25.451
 30
4.6228
  0
POINT
  5
B3
  8
POINTS
 62
     0
 10
40.2336
 20
33.757
 30
0.0
  0
POINT
  5
B4
  8
POINTS
 62
     0
 10
40.2336
 20
33.757
 30
4.4196
  0
POINT
  5
B5
  8
POINTS
 62
     0
 10
40.2336
 20
33.757
 30
4.4704
  0
POINT
  5
B6
  8
POINTS
 62
     0
 10
40.2336
 20
33.757
 30
4.6228
  0
POINT
  5
B7
  8
POINTS
 62
     0
 10
40.2336
 20
42.063
 30
0.0
  0
POINT
  5
B8
  8
POINTS
 62
     0
 10
40.2336
 20
42.063
 30
4.4196
  0
POINT
  5
B9
  8
POINTS
 62
     0
 10
40.2336
 20
42.063
 30
4.4704
  0
POINT
  5
BA
  8
POINTS
 62
     0
 10
40.2336
 20
42.063
 30
4.6228
  0
POINT
  5
BB
  8
POINTS
 62
     0
 10
32.3596
 20
8.839
 30
0.0
  0
POINT
  5
BC
  8
POINTS
 62
     0
 10
32.3596
 20
8.839
 30
4.4196
  0
POINT
  5
BD
  8
POINTS
 62
     0
 10
32.3596
 20
8.839
 30
4.4704
  0
POINT
  5
BE
  8
POINTS
 62
     0
 10
32.3596
 20
8.839
 30
4.6228
  0
POINT
  5
BF
  8
POINTS
 62
     0
 10
32.3596
 20
17.145
 30
4.4196
  0
POINT
  5
C0
  8
POINTS
 62
     0
 10
32.3596
 20
17.145
 30
0.0
  0
POINT
  5
C1
  8
POINTS
 62
     0
 10
40.2336
 20
8.839
 30
4.6228
  0
LINE
  5
C2
  8
_____COLA_COLB__COLC__COLD
 62
     0
 10
32.3596
 20
25.451
 30
4.4704
 11
32.3596
 21
25.451
 31
4.6228
  0
LINE
  5
C3
  8
_____COLA_COLB__COLC__COLD
 62
     0
 10
32.3596
 20
17.145
 30
4.4704
 11
32.3596
 21
17.145
 31
4.6228
  0
LINE
  5
C4
  8
_____COLA_COLB__COLC__COLD
 62
     0
 10
20.3708
 20
42.063
 30
4.4704
 11
20.3708
 21
42.063
 31
4.6228
  0
LINE
  5
C5
  8
_____COLA_COLB__COLC__COLD
 62
     0
 10
20.3708
 20
33.757
 30
4.4704
 11
20.3708
 21
33.757
 31
4.6228
  0
LINE
  5
C6
  8
_____COLA_COLB__COLC__COLD
 62
     0
 10
20.3708
 20
25.451
 30
4.4704
 11
20.3708
 21
25.451
 31
4.6228
  0
LINE
  5
C7
  8
_____COLA_COLB__COLC__COLD
 62
     0
 10
20.3708
 20
17.145
 30
4.4704
 11
20.3708
 21
17.145
 31
4.6228
  0
LINE
  5
C8
  8
_____COLA_COLB__COLC__COLD
 62
     0
 10
6.096
 20
8.839
 30
0.0
 11
6.096
 21
8.839
 31
4.4196
  0
LINE
  5
C9
  8
_____COLA_COLB__COLC__COLD
 62
     0
 10
40.2336
 20
8.839
 30
0.0
 11
40.2336
 21
8.839
 31
4.4196
  0
LINE
  5
CA
  8
_____COLA_COLB__COLC__COLD
 62
     0
 10
6.096
 20
8.839
 30
4.4704
 11
6.096
 21
8.839
 31
4.6228
  0
LINE
  5
CB
  8
_____COLA_COLB__COLC__COLD
 62
     0
 10
14.0208
 20
8.839
 30
4.4196
 11
14.0208
 21
8.839
 31
4.4704
  0
LINE
  5
CC
  8
_____COLA_COLB__COLC__COLD
 62
     0
 10
32.3596
 20
8.839
 30
0.0
 11
32.3596
 21
8.839
 31
4.4196
  0
LINE
  5
CD
  8
_____COLA_COLB__COLC__COLD
 62
     0
 10
40.2336
 20
8.839
 30
4.4704
 11
40.2336
 21
8.839
 31
4.6228
  0
LINE
  5
CE
  8
_____COLA_COLB__COLC__COLD
 62
     0
 10
48.768
 20
8.839
 30
4.4196
 11
48.768
 21
8.839
 31
4.4704
  0
LINE
  5
CF
  8
_____COLA_COLB__COLC__COLD
 62
     0
 10
20.3708
 20
8.839
 30
0.0
 11
20.3708
 21
8.839
 31
4.4196
  0
LINE
  5
D0
  8
_____COLA_COLB__COLC__COLD
 62
     0
 10
32.3596
 20
8.839
 30
4.4704
 11
32.3596
 21
8.839
 31
4.6228
  0
LINE
  5
D1
  8
_____COLA_COLB__COLC__COLD
 62
     0
 10
6.096
 20
42.063
 30
4.4196
 11
6.096
 21
42.063
 31
4.4704
  0
LINE
  5
D2
  8
_____COLA_COLB__COLC__COLD
 62
     0
 10
6.096
 20
33.757
 30
4.4196
 11
6.096
 21
33.757
 31
4.4704
  0
LINE
  5
D3
  8
_____COLA_COLB__COLC__COLD
 62
     0
 10
6.096
 20
25.451
 30
4.4196
 11
6.096
 21
25.451
 31
4.4704
  0
LINE
  5
D4
  8
_____COLA_COLB__COLC__COLD
 62
     0
 10
6.096
 20
17.145
 30
4.4196
 11
6.096
 21
17.145
 31
4.4704
  0
LINE
  5
D5
  8
_____COLA_COLB__COLC__COLD
 62
     0
 10
14.0208
 20
42.063
 30
0.0
 11
14.0208
 21
42.063
 31
4.4196
  0
LINE
  5
D6
  8
_____COLA_COLB__COLC__COLD
 62
     0
 10
14.0208
 20
33.757
 30
0.0
 11
14.0208
 21
33.757
 31
4.4196
  0
LINE
  5
D7
  8
_____COLA_COLB__COLC__COLD
 62
     0
 10
14.0208
 20
25.451
 30
0.0
 11
14.0208
 21
25.451
 31
4.4196
  0
LINE
  5
D8
  8
_____COLA_COLB__COLC__COLD
 62
     0
 10
14.0208
 20
17.145
 30
0.0
 11
14.0208
 21
17.145
 31
4.4196
  0
LINE
  5
D9
  8
_____COLA_COLB__COLC__COLD
 62
     0
 10
20.3708
 20
8.839
 30
4.4704
 11
20.3708
 21
8.839
 31
4.6228
  0
LINE
  5
DA
  8
_____COLA_COLB__COLC__COLD
 62
     0
 10
40.2336
 20
42.063
 30
4.4196
 11
40.2336
 21
42.063
 31
4.4704
  0
LINE
  5
DB
  8
_____COLA_COLB__COLC__COLD
 62
     0
 10
40.2336
 20
33.757
 30
4.4196
 11
40.2336
 21
33.757
 31
4.4704
  0
LINE
  5
DC
  8
_____COLA_COLB__COLC__COLD
 62
     0
 10
40.2336
 20
25.451
 30
4.4196
 11
40.2336
 21
25.451
 31
4.4704
  0
LINE
  5
DD
  8
_____COLA_COLB__COLC__COLD
 62
     0
 10
40.2336
 20
17.145
 30
4.4196
 11
40.2336
 21
17.145
 31
4.4704
  0
LINE
  5
DE
  8
_____COLA_COLB__COLC__COLD
 62
     0
 10
48.768
 20
42.063
 30
0.0
 11
48.768
 21
42.063
 31
4.4196
  0
LINE
  5
DF
  8
_____COLA_COLB__COLC__COLD
 62
     0
 10
48.768
 20
33.757
 30
0.0
 11
48.768
 21
33.757
 31
4.4196
  0
LINE
  5
E0
  8
_____COLA_COLB__COLC__COLD
 62
     0
 10
48.768
 20
25.451
 30
0.0
 11
48.768
 21
25.451
 31
4.4196
  0
LINE
  5
E1
  8
_____COLA_COLB__COLC__COLD
 62
     0
 10
48.768
 20
17.145
 30
0.0
 11
48.768
 21
17.145
 31
4.4196
  0
LINE
  5
E2
  8
_____COLA_COLB__COLC__COLD
 62
     0
 10
14.0208
 20
42.063
 30
4.4704
 11
14.0208
 21
42.063
 31
4.6228
  0
LINE
  5
E3
  8
_____COLA_COLB__COLC__COLD
 62
     0
 10
14.0208
 20
33.757
 30
4.4704
 11
14.0208
 21
33.757
 31
4.6228
  0
LINE
  5
E4
  8
_____COLA_COLB__COLC__COLD
 62
     0
 10
14.0208
 20
25.451
 30
4.4704
 11
14.0208
 21
25.451
 31
4.6228
  0
LINE
  5
E5
  8
_____COLA_COLB__COLC__COLD
 62
     0
 10
14.0208
 20
17.145
 30
4.4704
 11
14.0208
 21
17.145
 31
4.6228
  0
LINE
  5
E6
  8
_____COLA_COLB__COLC__COLD
 62
     0
 10
32.3596
 20
42.063
 30
4.4196
 11
32.3596
 21
42.063
 31
4.4704
  0
LINE
  5
E7
  8
_____COLA_COLB__COLC__COLD
 62
     0
 10
32.3596
 20
33.757
 30
4.4196
 11
32.3596
 21
33.757
 31
4.4704
  0
LINE
  5
E8
  8
_____COLA_COLB__COLC__COLD
 62
     0
 10
32.3596
 20
25.451
 30
4.4196
 11
32.3596
 21
25.451
 31
4.4704
  0
LINE
  5
E9
  8
_____COLA_COLB__COLC__COLD
 62
     0
 10
32.3596
 20
17.145
 30
4.4196
 11
32.3596
 21
17.145
 31
4.4704
  0
LINE
  5
EA
  8
_____COLA_COLB__COLC__COLD
 62
     0
 10
48.768
 20
42.063
 30
4.4704
 11
48.768
 21
42.063
 31
4.6228
  0
LINE
  5
EB
  8
_____COLA_COLB__COLC__COLD
 62
     0
 10
48.768
 20
33.757
 30
4.4704
 11
48.768
 21
33.757
 31
4.6228
  0
LINE
  5
EC
  8
_____COLA_COLB__COLC__COLD
 62
     0
 10
48.768
 20
25.451
 30
4.4704
 11
48.768
 21
25.451
 31
4.6228
  0
LINE
  5
ED
  8
_____COLA_COLB__COLC__COLD
 62
     0
 10
48.768
 20
17.145
 30
4.4704
 11
48.768
 21
17.145
 31
4.6228
  0
LINE
  5
EE
  8
_____COLA_COLB__COLC__COLD
 62
     0
 10
20.3708
 20
42.063
 30
4.4196
 11
20.3708
 21
42.063
 31
4.4704
  0
LINE
  5
EF
  8
_____COLA_COLB__COLC__COLD
 62
     0
 10
20.3708
 20
33.757
 30
4.4196
 11
20.3708
 21
33.757
 31
4.4704
  0
LINE
  5
F0
  8
_____COLA_COLB__COLC__COLD
 62
     0
 10
20.3708
 20
25.451
 30
4.4196
 11
20.3708
 21
25.451
 31
4.4704
  0
LINE
  5
F1
  8
_____COLA_COLB__COLC__COLD
 62
     0
 10
20.3708
 20
17.145
 30
4.4196
 11
20.3708
 21
17.145
 31
4.4704
  0
LINE
  5
F2
  8
_____COLA_COLB__COLC__COLD
 62
     0
 10
6.096
 20
8.839
 30
4.4196
 11
6.096
 21
8.839
 31
4.4704
  0
LINE
  5
F3
  8
_____COLA_COLB__COLC__COLD
 62
     0
 10
14.0208
 20
8.839
 30
0.0
 11
14.0208
 21
8.839
 31
4.4196
  0
LINE
  5
F4
  8
_____COLA_COLB__COLC__COLD
 62
     0
 10
40.2336
 20
8.839
 30
4.4196
 11
40.2336
 21
8.839
 31
4.4704
  0
LINE
  5
F5
  8
_____COLA_COLB__COLC__COLD
 62
     0
 10
48.768
 20
8.839
 30
0.0
 11
48.768
 21
8.839
 31
4.4196
  0
LINE
  5
F6
  8
_____COLA_COLB__COLC__COLD
 62
     0
 10
14.0208
 20
8.839
 30
4.4704
 11
14.0208
 21
8.839
 31
4.6228
  0
LINE
  5
F7
  8
_____COLA_COLB__COLC__COLD
 62
     0
 10
32.3596
 20
8.839
 30
4.4196
 11
32.3596
 21
8.839
 31
4.4704
  0
LINE
  5
F8
  8
_____COLA_COLB__COLC__COLD
 62
     0
 10
6.096
 20
42.063
 30
0.0
 11
6.096
 21
42.063
 31
4.4196
  0
LINE
  5
F9
  8
_____COLA_COLB__COLC__COLD
 62
     0
 10
6.096
 20
33.757
 30
0.0
 11
6.096
 21
33.757
 31
4.4196
  0
LINE
  5
FA
  8
_____COLA_COLB__COLC__COLD
 62
     0
 10
6.096
 20
25.451
 30
0.0
 11
6.096
 21
25.451
 31
4.4196
  0
LINE
  5
FB
  8
_____COLA_COLB__COLC__COLD
 62
     0
 10
6.096
 20
17.145
 30
0.0
 11
6.096
 21
17.145
 31
4.4196
  0
LINE
  5
FC
  8
_____COLA_COLB__COLC__COLD
 62
     0
 10
48.768
 20
8.839
 30
4.4704
 11
48.768
 21
8.839
 31
4.6228
  0
LINE
  5
FD
  8
_____COLA_COLB__COLC__COLD
 62
     0
 10
20.3708
 20
8.839
 30
4.4196
 11
20.3708
 21
8.839
 31
4.4704
  0
LINE
  5
FE
  8
_____COLA_COLB__COLC__COLD
 62
     0
 10
40.2336
 20
42.063
 30
0.0
 11
40.2336
 21
42.063
 31
4.4196
  0
LINE
  5
FF
  8
_____COLA_COLB__COLC__COLD
 62
     0
 10
40.2336
 20
33.757
 30
0.0
 11
40.2336
 21
33.757
 31
4.4196
  0
LINE
  5
100
  8
_____COLA_COLB__COLC__COLD
 62
     0
 10
40.2336
 20
25.451
 30
0.0
 11
40.2336
 21
25.451
 31
4.4196
  0
LINE
  5
101
  8
_____COLA_COLB__COLC__COLD
 62
     0
 10
40.2336
 20
17.145
 30
0.0
 11
40.2336
 21
17.145
 31
4.4196
  0
LINE
  5
102
  8
_____COLA_COLB__COLC__COLD
 62
     0
 10
6.096
 20
42.063
 30
4.4704
 11
6.096
 21
42.063
 31
4.6228
  0
LINE
  5
103
  8
_____COLA_COLB__COLC__COLD
 62
     0
 10
6.096
 20
33.757
 30
4.4704
 11
6.096
 21
33.757
 31
4.6228
  0
LINE
  5
104
  8
_____COLA_COLB__COLC__COLD
 62
     0
 10
6.096
 20
25.451
 30
4.4704
 11
6.096
 21
25.451
 31
4.6228
  0
LINE
  5
105
  8
_____COLA_COLB__COLC__COLD
 62
     0
 10
6.096
 20
17.145
 30
4.4704
 11
6.096
 21
17.145
 31
4.6228
  0
LINE
  5
106
  8
_____COLA_COLB__COLC__COLD
 62
     0
 10
14.0208
 20
42.063
 30
4.4196
 11
14.0208
 21
42.063
 31
4.4704
  0
LINE
  5
107
  8
_____COLA_COLB__COLC__COLD
 62
     0
 10
14.0208
 20
33.757
 30
4.4196
 11
14.0208
 21
33.757
 31
4.4704
  0
LINE
  5
108
  8
_____COLA_COLB__COLC__COLD
 62
     0
 10
14.0208
 20
25.451
 30
4.4196
 11
14.0208
 21
25.451
 31
4.4704
  0
LINE
  5
109
  8
_____COLA_COLB__COLC__COLD
 62
     0
 10
14.0208
 20
17.145
 30
4.4196
 11
14.0208
 21
17.145
 31
4.4704
  0
LINE
  5
10A
  8
_____COLA_COLB__COLC__COLD
 62
     0
 10
32.3596
 20
42.063
 30
0.0
 11
32.3596
 21
42.063
 31
4.4196
  0
LINE
  5
10B
  8
_____COLA_COLB__COLC__COLD
 62
     0
 10
32.3596
 20
33.757
 30
0.0
 11
32.3596
 21
33.757
 31
4.4196
  0
LINE
  5
10C
  8
_____COLA_COLB__COLC__COLD
 62
     0
 10
32.3596
 20
25.451
 30
0.0
 11
32.3596
 21
25.451
 31
4.4196
  0
LINE
  5
10D
  8
_____COLA_COLB__COLC__COLD
 62
     0
 10
32.3596
 20
17.145
 30
0.0
 11
32.3596
 21
17.145
 31
4.4196
  0
LINE
  5
10E
  8
_____COLA_COLB__COLC__COLD
 62
     0
 10
40.2336
 20
42.063
 30
4.4704
 11
40.2336
 21
42.063
 31
4.6228
  0
LINE
  5
10F
  8
_____COLA_COLB__COLC__COLD
 62
     0
 10
40.2336
 20
33.757
 30
4.4704
 11
40.2336
 21
33.757
 31
4.6228
  0
LINE
  5
110
  8
_____COLA_COLB__COLC__COLD
 62
     0
 10
40.2336
 20
25.451
 30
4.4704
 11
40.2336
 21
25.451
 31
4.6228
  0
LINE
  5
111
  8
_____COLA_COLB__COLC__COLD
 62
     0
 10
40.2336
 20
17.145
 30
4.4704
 11
40.2336
 21
17.145
 31
4.6228
  0
LINE
  5
112
  8
_____COLA_COLB__COLC__COLD
 62
     0
 10
48.768
 20
42.063
 30
4.4196
 11
48.768
 21
42.063
 31
4.4704
  0
LINE
  5
113
  8
_____COLA_COLB__COLC__COLD
 62
     0
 10
48.768
 20
33.757
 30
4.4196
 11
48.768
 21
33.757
 31
4.4704
  0
LINE
  5
114
  8
_____COLA_COLB__COLC__COLD
 62
     0
 10
48.768
 20
25.451
 30
4.4196
 11
48.768
 21
25.451
 31
4.4704
  0
LINE
  5
115
  8
_____COLA_COLB__COLC__COLD
 62
     0
 10
48.768
 20
17.145
 30
4.4196
 11
48.768
 21
17.145
 31
4.4704
  0
LINE
  5
116
  8
_____COLA_COLB__COLC__COLD
 62
     0
 10
20.3708
 20
42.063
 30
0.0
 11
20.3708
 21
42.063
 31
4.4196
  0
LINE
  5
117
  8
_____COLA_COLB__COLC__COLD
 62
     0
 10
20.3708
 20
33.757
 30
0.0
 11
20.3708
 21
33.757
 31
4.4196
  0
LINE
  5
118
  8
_____COLA_COLB__COLC__COLD
 62
     0
 10
20.3708
 20
25.451
 30
0.0
 11
20.3708
 21
25.451
 31
4.4196
  0
LINE
  5
119
  8
_____COLA_COLB__COLC__COLD
 62
     0
 10
20.3708
 20
17.145
 30
0.0
 11
20.3708
 21
17.145
 31
4.4196
  0
LINE
  5
11A
  8
_____COLA_COLB__COLC__COLD
 62
     0
 10
32.3596
 20
42.063
 30
4.4704
 11
32.3596
 21
42.063
 31
4.6228
  0
LINE
  5
11B
  8
_____COLA_COLB__COLC__COLD
 62
     0
 10
32.3596
 20
33.757
 30
4.4704
 11
32.3596
 21
33.757
 31
4.6228
  0
VIEWPORT
  5
49
 67
     1
  8
VIEWPORTS
 10
0.0
 20
0.0
 30
0.0
 40
1.0
 41
1.0
 68
     1
 69
     1
1001
ACAD
1000
MVIEW
1002
{
1070
    16
1010
0.0
1020
0.0
1030
0.0
1010
0.0
1020
0.0
1030
0.0
1040
0.0
1040
1.0
1040
0.0
1040
0.0
1040
50.0
1040
0.0
1040
0.0
1070
     0
1070
   100
1070
     1
1070
     3
1070
     0
1070
     0
1070
     0
1070
     0
1040
0.0
1040
0.0
1040
0.0
1040
0.1
1040
0.1
1040
0.1
1040
0.1
1070
     0
1002
{
1002
}
1002
}
  0
ENDSEC
  0
EOF
