  0
SECTION
  2
HEADER
  9
$ACADVER
  1
AC1009
  9
$EXTMIN
 10
0.0
 20
0.0
 30
0.0
  9
$EXTMAX
 10
100.0
 20
100.0
 30
0.0
  9
$INSBASE
 10
0.0
 20
0.0
 30
0.0
  0
ENDSEC
  0
SECTION
  2
TABLES
  0
TABLE
  2
LTYPE
 70
19
  0
LTYPE
  2
PHANTOM
 70
0
  3
Phantom ______  __  __  ______  __  __  ______
 72
65
 73
6
 40
2.5
 49
1.25
 49
-0.25
 49
0.25
 49
-0.25
 49
0.25
 49
-0.25
  0
LTYPE
  2
DOT2
 70
0
  3
Dot (.5) . . . . . . . . . . . . . . . . . . . 
 72
65
 73
2
 40
0.1
 49
0.0
 49
-0.1
  0
LTYPE
  2
DIVIDE
 70
0
  3
Divide __ . . __ . . __ . . __ . . __ . . __
 72
65
 73
6
 40
1.6
 49
1.0
 49
-0.2
 49
0.0
 49
-0.2
 49
0.0
 49
-0.2
  0
LTYPE
  2
DIVIDEX2
 70
0
  3
Divide (2x) ____  . .  ____  . .  ____  . .  ____
 72
65
 73
6
 40
2.6
 49
2.0
 49
-0.2
 49
0.0
 49
-0.2
 49
0.0
 49
-0.2
  0
LTYPE
  2
CENTER
 70
0
  3
Center ____ _ ____ _ ____ _ ____ _ ____ _ ____
 72
65
 73
4
 40
2.0
 49
1.25
 49
-0.25
 49
0.25
 49
-0.25
  0
LTYPE
  2
DASHDOT
 70
0
  3
Dash dot __ . __ . __ . __ . __ . __ . __ . __
 72
65
 73
4
 40
1.4
 49
1.0
 49
-0.2
 49
0.0
 49
-0.2
  0
LTYPE
  2
CENTERX2
 70
0
  3
Center (2x) ________  __  ________  __  ________
 72
65
 73
4
 40
3.5
 49
2.5
 49
-0.25
 49
0.5
 49
-0.25
  0
LTYPE
  2
PHANTOMX2
 70
0
  3
Phantom (2x)____________    ____    ____    ____________
 72
65
 73
6
 40
4.25
 49
2.5
 49
-0.25
 49
0.5
 49
-0.25
 49
0.5
 49
-0.25
  0
LTYPE
  2
CONTINUOUS
 70
0
  3
Solid
 72
65
 73
0
 40
0.0
  0
LTYPE
  2
PHANTOM2
 70
0
  3
Phantom (.5x) ___ _ _ ___ _ _ ___ _ _ ___ _ _ ___
 72
65
 73
6
 40
1.25
 49
0.625
 49
-0.125
 49
0.125
 49
-0.125
 49
0.125
 49
-0.125
  0
LTYPE
  2
DASHED
 70
0
  3
Dashed __ __ __ __ __ __ __ __ __ __ __ __ __ _
 72
65
 73
2
 40
0.6
 49
0.5
 49
-0.1
  0
LTYPE
  2
DASHED2
 70
0
  3
Dashed (.5x) _ _ _ _ _ _ _ _ _ _ _ _ _ _
 72
65
 73
2
 40
0.3
 49
0.25
 49
-0.05
  0
LTYPE
  2
DASHDOT2
 70
0
  3
Dash dot (.5x) _ . _ . _ . _ . _ . _ . _ . _
 72
65
 73
4
 40
0.7
 49
0.5
 49
-0.1
 49
0.0
 49
-0.1
  0
LTYPE
  2
DOTX2
 70
0
  3
Dot (2x) .    .    .    .    .    .    .    . 
 72
65
 73
2
 40
0.4
 49
0.0
 49
-0.4
  0
LTYPE
  2
DIVIDE2
 70
0
  3
Divide(.5x) _ . _ . _ . _ . _ . _ . _ . _
 72
65
 73
6
 40
0.8
 49
0.5
 49
-0.1
 49
0.0
 49
-0.1
 49
0.0
 49
-0.1
  0
LTYPE
  2
CENTER2
 70
0
  3
Center (.5x) ____ _ ____ _ ____ _ ____ _ ____
 72
65
 73
4
 40
1.0
 49
0.625
 49
-0.125
 49
0.125
 49
-0.125
  0
LTYPE
  2
DASHDOTX2
 70
0
  3
Dash dot (2x) ____  .  ____  .  ____  .  ____
 72
65
 73
4
 40
2.4
 49
2.0
 49
-0.2
 49
0.0
 49
-0.2
  0
LTYPE
  2
DOT
 70
0
  3
Dot .  .  .  .  .  .  .  .  .  .  .  .  .  .  .  .
 72
65
 73
2
 40
0.2
 49
0.0
 49
-0.2
  0
LTYPE
  2
DASHEDX2
 70
0
  3
Dashed (2x) ____  ____  ____  ____  ____  ____
 72
65
 73
2
 40
1.2
 49
1.0
 49
-0.2
  0
ENDTAB
  0
TABLE
  2
LAYER
 70
7
  0
LAYER
  2
DIMENSIONS
 70
0
 62
1
  6
CONTINUOUS
  0
LAYER
  2
TABLECONTENT
 70
0
 62
1
  6
CONTINUOUS
  0
LAYER
  2
TABLEBACKGROUND
 70
0
 62
1
  6
CONTINUOUS
  0
LAYER
  2
slabs_blocks
 70
0
 62
1
  6
CONTINUOUS
  0
LAYER
  2
points
 70
0
 62
1
  6
CONTINUOUS
  0
LAYER
  2
TABLEGRID
 70
0
 62
1
  6
CONTINUOUS
  0
LAYER
  2
VIEWPORTS
 70
0
 62
7
  6
CONTINUOUS
  0
ENDTAB
  0
TABLE
  2
STYLE
 70
12
  0
STYLE
  2
TIMES
 70
0
 40
0.0
 41
1.0
 42
1.0
 50
0.0
 71
0
  3
times.ttf
  4

  0
STYLE
  2
ARIAL
 70
0
 40
0.0
 41
1.0
 42
1.0
 50
0.0
 71
0
  3
arial.ttf
  4

  0
STYLE
  2
TIMES_BOLD
 70
0
 40
0.0
 41
1.0
 42
1.0
 50
0.0
 71
0
  3
timesbd.ttf
  4

  0
STYLE
  2
ARIAL_BLACK
 70
0
 40
0.0
 41
1.0
 42
1.0
 50
0.0
 71
0
  3
ariblk.ttf
  4

  0
STYLE
  2
TIMES_ITALIC
 70
0
 40
0.0
 41
1.0
 42
1.0
 50
0.0
 71
0
  3
timesi.ttf
  4

  0
STYLE
  2
ISOCPEUR
 70
0
 40
0.0
 41
1.0
 42
1.0
 50
0.0
 71
0
  3
isocpeur.ttf
  4

  0
STYLE
  2
ARIAL_BOLD
 70
0
 40
0.0
 41
1.0
 42
1.0
 50
0.0
 71
0
  3
arialbd.ttf
  4

  0
STYLE
  2
ARIAL_ITALIC
 70
0
 40
0.0
 41
1.0
 42
1.0
 50
0.0
 71
0
  3
ariali.ttf
  4

  0
STYLE
  2
ARIAL_BOLD_ITALIC
 70
0
 40
0.0
 41
1.0
 42
1.0
 50
0.0
 71
0
  3
arialbi.ttf
  4

  0
STYLE
  2
TIMES_BOLD_ITALIC
 70
0
 40
0.0
 41
1.0
 42
1.0
 50
0.0
 71
0
  3
timesbi.ttf
  4

  0
STYLE
  2
ISOCPEUR_ITALIC
 70
0
 40
0.0
 41
1.0
 42
1.0
 50
0.0
 71
0
  3
isocpeui.ttf
  4

  0
STYLE
  2
STANDARD
 70
0
 40
0.0
 41
1.0
 42
1.0
 50
0.0
 71
0
  3
arial.ttf
  4

  0
ENDTAB
  0
TABLE
  2
VIEW
 70
0
  0
ENDTAB
  0
TABLE
  2
APPID
 70
1
  0
APPID
  2
DXFWRITE
 70
0
  0
ENDTAB
  0
TABLE
  2
VPORT
 70
0
  0
ENDTAB
  0
TABLE
  2
UCS
 70
0
  0
ENDTAB
  0
ENDSEC
  0
SECTION
  2
BLOCKS
  0
ENDSEC
  0
SECTION
  2
ENTITIES
  0
VIEWPORT
  8
VIEWPORTS
 67
1
 10
0.0
 20
0.0
 30
0.0
 40
1.0
 41
1.0
 68
1
 69
1
1001
ACAD
1000
MVIEW
1002
{
1070
16
1010
0.0
1020
0.0
1030
0.0
1010
0.0
1020
0.0
1030
0.0
1040
0.0
1040
1.0
1040
0.0
1040
0.0
1040
50.0
1040
0.0
1040
0.0
1070
0
1070
100
1070
1
1070
3
1070
0
1070
0
1070
0
1070
0
1040
0.0
1040
0.0
1040
0.0
1040
0.1
1040
0.1
1040
0.1
1040
0.1
1070
0
1002
{
1002
}
1002
}
  0
POINT
 62
0
  8
points
 10
0.0
 20
0.0
 30
4.7752
  0
POINT
 62
0
  8
points
 10
0.0
 20
8.739
 30
4.7752
  0
POINT
 62
0
  8
points
 10
14.1208
 20
44.77
 30
4.4196
  0
POINT
 62
0
  8
points
 10
0.0
 20
8.939
 30
4.7752
  0
POINT
 62
0
  8
points
 10
0.0
 20
10.839
 30
4.7752
  0
POINT
 62
0
  8
points
 10
0.0
 20
10.975
 30
4.7752
  0
POINT
 62
0
  8
points
 10
0.0
 20
16.02
 30
4.7752
  0
POINT
 62
0
  8
points
 10
14.1208
 20
48.159
 30
4.4196
  0
POINT
 62
0
  8
points
 10
0.0
 20
17.045
 30
4.7752
  0
POINT
 62
0
  8
points
 10
0.0
 20
17.245
 30
4.7752
  0
POINT
 62
0
  8
points
 10
0.0
 20
25.351
 30
4.7752
  0
POINT
 62
0
  8
points
 10
32.3596
 20
44.77
 30
4.4196
  0
POINT
 62
0
  8
points
 10
0.0
 20
25.551
 30
4.7752
  0
POINT
 62
0
  8
points
 10
32.3596
 20
48.159
 30
4.4196
  0
POINT
 62
0
  8
points
 10
0.0
 20
29.257
 30
4.7752
  0
POINT
 62
0
  8
points
 10
0.0
 20
30.373
 30
4.7752
  0
POINT
 62
0
  8
points
 10
32.4596
 20
0.0
 30
4.7752
  0
POINT
 62
0
  8
points
 10
32.4596
 20
8.739
 30
4.7752
  0
POINT
 62
0
  8
points
 10
32.4596
 20
8.839
 30
4.7752
  0
POINT
 62
0
  8
points
 10
32.4596
 20
8.875
 30
4.7752
  0
POINT
 62
0
  8
points
 10
0.0
 20
33.857
 30
4.7752
  0
POINT
 62
0
  8
points
 10
32.4596
 20
8.939
 30
4.7752
  0
POINT
 62
0
  8
points
 10
0.0
 20
41.963
 30
4.7752
  0
POINT
 62
0
  8
points
 10
32.4596
 20
10.839
 30
4.7752
  0
POINT
 62
0
  8
points
 10
32.4596
 20
10.975
 30
4.7752
  0
POINT
 62
0
  8
points
 10
0.0
 20
42.163
 30
4.7752
  0
POINT
 62
0
  8
points
 10
32.4596
 20
16.02
 30
4.7752
  0
POINT
 62
0
  8
points
 10
0.0
 20
44.77
 30
4.7752
  0
POINT
 62
0
  8
points
 10
32.4596
 20
17.045
 30
4.7752
  0
POINT
 62
0
  8
points
 10
32.4596
 20
17.145
 30
4.7752
  0
POINT
 62
0
  8
points
 10
5.996
 20
0.0
 30
4.7752
  0
POINT
 62
0
  8
points
 10
32.4596
 20
17.245
 30
4.7752
  0
POINT
 62
0
  8
points
 10
5.996
 20
8.739
 30
4.7752
  0
POINT
 62
0
  8
points
 10
32.4596
 20
25.351
 30
4.7752
  0
POINT
 62
0
  8
points
 10
32.4596
 20
25.451
 30
4.7752
  0
POINT
 62
0
  8
points
 10
32.4596
 20
25.551
 30
4.7752
  0
POINT
 62
0
  8
points
 10
5.996
 20
8.939
 30
4.7752
  0
POINT
 62
0
  8
points
 10
32.4596
 20
29.257
 30
4.7752
  0
POINT
 62
0
  8
points
 10
5.996
 20
10.839
 30
4.7752
  0
POINT
 62
0
  8
points
 10
32.4596
 20
30.373
 30
4.7752
  0
POINT
 62
0
  8
points
 10
5.996
 20
10.975
 30
4.7752
  0
POINT
 62
0
  8
points
 10
32.4596
 20
33.183
 30
4.7752
  0
POINT
 62
0
  8
points
 10
5.996
 20
16.02
 30
4.7752
  0
POINT
 62
0
  8
points
 10
32.4596
 20
33.657
 30
4.7752
  0
POINT
 62
0
  8
points
 10
5.996
 20
17.045
 30
4.7752
  0
POINT
 62
0
  8
points
 10
32.4596
 20
33.757
 30
4.7752
  0
POINT
 62
0
  8
points
 10
32.4596
 20
33.857
 30
4.7752
  0
POINT
 62
0
  8
points
 10
5.996
 20
17.245
 30
4.7752
  0
POINT
 62
0
  8
points
 10
32.4596
 20
41.963
 30
4.7752
  0
POINT
 62
0
  8
points
 10
5.996
 20
25.351
 30
4.7752
  0
POINT
 62
0
  8
points
 10
32.4596
 20
42.163
 30
4.7752
  0
POINT
 62
0
  8
points
 10
32.4596
 20
44.77
 30
4.4196
  0
POINT
 62
0
  8
points
 10
5.996
 20
25.551
 30
4.7752
  0
POINT
 62
0
  8
points
 10
32.4596
 20
44.77
 30
4.7752
  0
POINT
 62
0
  8
points
 10
32.4596
 20
48.159
 30
4.4196
  0
POINT
 62
0
  8
points
 10
5.996
 20
29.257
 30
4.7752
  0
POINT
 62
0
  8
points
 10
5.996
 20
30.373
 30
4.7752
  0
POINT
 62
0
  8
points
 10
40.1336
 20
0.0
 30
4.7752
  0
POINT
 62
0
  8
points
 10
40.1336
 20
8.739
 30
4.7752
  0
POINT
 62
0
  8
points
 10
40.1336
 20
8.839
 30
4.7752
  0
POINT
 62
0
  8
points
 10
40.1336
 20
8.875
 30
4.7752
  0
POINT
 62
0
  8
points
 10
5.996
 20
33.857
 30
4.7752
  0
POINT
 62
0
  8
points
 10
40.1336
 20
8.939
 30
4.7752
  0
POINT
 62
0
  8
points
 10
5.996
 20
41.963
 30
4.7752
  0
POINT
 62
0
  8
points
 10
40.1336
 20
10.839
 30
4.7752
  0
POINT
 62
0
  8
points
 10
40.1336
 20
10.975
 30
4.7752
  0
POINT
 62
0
  8
points
 10
5.996
 20
42.163
 30
4.7752
  0
POINT
 62
0
  8
points
 10
40.1336
 20
16.02
 30
4.7752
  0
POINT
 62
0
  8
points
 10
5.996
 20
44.77
 30
4.7752
  0
POINT
 62
0
  8
points
 10
40.1336
 20
17.045
 30
4.7752
  0
POINT
 62
0
  8
points
 10
40.1336
 20
17.145
 30
4.7752
  0
POINT
 62
0
  8
points
 10
6.096
 20
0.0
 30
4.7752
  0
POINT
 62
0
  8
points
 10
40.1336
 20
17.245
 30
4.7752
  0
POINT
 62
0
  8
points
 10
6.096
 20
8.739
 30
4.7752
  0
POINT
 62
0
  8
points
 10
40.1336
 20
25.351
 30
4.7752
  0
POINT
 62
0
  8
points
 10
40.1336
 20
25.451
 30
4.7752
  0
POINT
 62
0
  8
points
 10
40.1336
 20
25.551
 30
4.7752
  0
POINT
 62
0
  8
points
 10
6.096
 20
8.939
 30
4.7752
  0
POINT
 62
0
  8
points
 10
40.1336
 20
29.257
 30
4.7752
  0
POINT
 62
0
  8
points
 10
6.096
 20
10.839
 30
4.7752
  0
POINT
 62
0
  8
points
 10
40.1336
 20
30.373
 30
4.7752
  0
POINT
 62
0
  8
points
 10
6.096
 20
10.975
 30
4.7752
  0
POINT
 62
0
  8
points
 10
40.1336
 20
33.183
 30
4.7752
  0
POINT
 62
0
  8
points
 10
6.096
 20
16.02
 30
4.7752
  0
POINT
 62
0
  8
points
 10
40.1336
 20
33.657
 30
4.7752
  0
POINT
 62
0
  8
points
 10
6.096
 20
17.045
 30
4.7752
  0
POINT
 62
0
  8
points
 10
40.1336
 20
33.757
 30
4.7752
  0
POINT
 62
0
  8
points
 10
40.1336
 20
33.857
 30
4.7752
  0
POINT
 62
0
  8
points
 10
6.096
 20
17.245
 30
4.7752
  0
POINT
 62
0
  8
points
 10
40.1336
 20
41.963
 30
4.7752
  0
POINT
 62
0
  8
points
 10
6.096
 20
25.351
 30
4.7752
  0
POINT
 62
0
  8
points
 10
40.1336
 20
42.163
 30
4.7752
  0
POINT
 62
0
  8
points
 10
40.1336
 20
44.77
 30
4.4196
  0
POINT
 62
0
  8
points
 10
6.096
 20
25.551
 30
4.7752
  0
POINT
 62
0
  8
points
 10
40.1336
 20
44.77
 30
4.7752
  0
POINT
 62
0
  8
points
 10
40.1336
 20
48.159
 30
4.4196
  0
POINT
 62
0
  8
points
 10
6.096
 20
29.257
 30
4.7752
  0
POINT
 62
0
  8
points
 10
6.096
 20
30.373
 30
4.7752
  0
POINT
 62
0
  8
points
 10
6.096
 20
33.183
 30
4.7752
  0
POINT
 62
0
  8
points
 10
6.096
 20
33.657
 30
4.7752
  0
POINT
 62
0
  8
points
 10
6.096
 20
33.857
 30
4.7752
  0
POINT
 62
0
  8
points
 10
6.096
 20
41.963
 30
4.7752
  0
POINT
 62
0
  8
points
 10
9.596
 20
44.77
 30
4.4196
  0
POINT
 62
0
  8
points
 10
6.096
 20
42.163
 30
4.7752
  0
POINT
 62
0
  8
points
 10
6.096
 20
44.77
 30
4.4196
  0
POINT
 62
0
  8
points
 10
6.096
 20
44.77
 30
4.7752
  0
POINT
 62
0
  8
points
 10
6.096
 20
48.159
 30
4.4196
  0
POINT
 62
0
  8
points
 10
6.196
 20
0.0
 30
4.7752
  0
POINT
 62
0
  8
points
 10
6.196
 20
8.739
 30
4.7752
  0
POINT
 62
0
  8
points
 10
9.596
 20
48.159
 30
4.4196
  0
POINT
 62
0
  8
points
 10
6.196
 20
8.939
 30
4.7752
  0
POINT
 62
0
  8
points
 10
6.196
 20
10.839
 30
4.7752
  0
POINT
 62
0
  8
points
 10
6.196
 20
10.975
 30
4.7752
  0
POINT
 62
0
  8
points
 10
6.196
 20
16.02
 30
4.7752
  0
POINT
 62
0
  8
points
 10
6.196
 20
17.045
 30
4.7752
  0
POINT
 62
0
  8
points
 10
6.196
 20
17.245
 30
4.7752
  0
POINT
 62
0
  8
points
 10
6.196
 20
25.351
 30
4.7752
  0
POINT
 62
0
  8
points
 10
40.2336
 20
42.163
 30
4.7752
  0
POINT
 62
0
  8
points
 10
40.2336
 20
44.77
 30
4.4196
  0
POINT
 62
0
  8
points
 10
6.196
 20
25.551
 30
4.7752
  0
POINT
 62
0
  8
points
 10
40.2336
 20
44.77
 30
4.7752
  0
POINT
 62
0
  8
points
 10
40.2336
 20
48.159
 30
4.4196
  0
POINT
 62
0
  8
points
 10
6.196
 20
29.257
 30
4.7752
  0
POINT
 62
0
  8
points
 10
6.196
 20
30.373
 30
4.7752
  0
POINT
 62
0
  8
points
 10
40.3336
 20
0.0
 30
4.7752
  0
POINT
 62
0
  8
points
 10
6.196
 20
33.183
 30
4.7752
  0
POINT
 62
0
  8
points
 10
40.3336
 20
8.739
 30
4.7752
  0
POINT
 62
0
  8
points
 10
6.196
 20
33.657
 30
4.7752
  0
POINT
 62
0
  8
points
 10
40.3336
 20
8.839
 30
4.7752
  0
POINT
 62
0
  8
points
 10
40.3336
 20
8.875
 30
4.7752
  0
POINT
 62
0
  8
points
 10
6.196
 20
33.857
 30
4.7752
  0
POINT
 62
0
  8
points
 10
40.3336
 20
8.939
 30
4.7752
  0
POINT
 62
0
  8
points
 10
6.196
 20
41.963
 30
4.7752
  0
POINT
 62
0
  8
points
 10
40.3336
 20
10.839
 30
4.7752
  0
POINT
 62
0
  8
points
 10
40.3336
 20
10.975
 30
4.7752
  0
POINT
 62
0
  8
points
 10
6.196
 20
42.163
 30
4.7752
  0
POINT
 62
0
  8
points
 10
40.3336
 20
16.02
 30
4.7752
  0
POINT
 62
0
  8
points
 10
6.196
 20
44.77
 30
4.7752
  0
POINT
 62
0
  8
points
 10
40.3336
 20
17.045
 30
4.7752
  0
POINT
 62
0
  8
points
 10
40.3336
 20
17.145
 30
4.7752
  0
POINT
 62
0
  8
points
 10
7.828
 20
0.0
 30
4.7752
  0
POINT
 62
0
  8
points
 10
40.3336
 20
17.245
 30
4.7752
  0
POINT
 62
0
  8
points
 10
7.828
 20
8.739
 30
4.7752
  0
POINT
 62
0
  8
points
 10
40.3336
 20
25.351
 30
4.7752
  0
POINT
 62
0
  8
points
 10
40.3336
 20
25.451
 30
4.7752
  0
POINT
 62
0
  8
points
 10
40.3336
 20
25.551
 30
4.7752
  0
POINT
 62
0
  8
points
 10
7.828
 20
8.939
 30
4.7752
  0
POINT
 62
0
  8
points
 10
40.3336
 20
29.257
 30
4.7752
  0
POINT
 62
0
  8
points
 10
7.828
 20
10.839
 30
4.7752
  0
POINT
 62
0
  8
points
 10
40.3336
 20
30.373
 30
4.7752
  0
POINT
 62
0
  8
points
 10
7.828
 20
10.975
 30
4.7752
  0
POINT
 62
0
  8
points
 10
40.3336
 20
33.183
 30
4.7752
  0
POINT
 62
0
  8
points
 10
7.828
 20
16.02
 30
4.7752
  0
POINT
 62
0
  8
points
 10
40.3336
 20
33.657
 30
4.7752
  0
POINT
 62
0
  8
points
 10
7.828
 20
17.045
 30
4.7752
  0
POINT
 62
0
  8
points
 10
40.3336
 20
33.757
 30
4.7752
  0
POINT
 62
0
  8
points
 10
40.3336
 20
33.857
 30
4.7752
  0
POINT
 62
0
  8
points
 10
7.828
 20
17.245
 30
4.7752
  0
POINT
 62
0
  8
points
 10
40.3336
 20
41.963
 30
4.7752
  0
POINT
 62
0
  8
points
 10
13.9208
 20
44.77
 30
4.4196
  0
POINT
 62
0
  8
points
 10
7.828
 20
25.351
 30
4.7752
  0
POINT
 62
0
  8
points
 10
40.3336
 20
42.163
 30
4.7752
  0
POINT
 62
0
  8
points
 10
40.3336
 20
44.77
 30
4.4196
  0
POINT
 62
0
  8
points
 10
7.828
 20
25.551
 30
4.7752
  0
POINT
 62
0
  8
points
 10
40.3336
 20
44.77
 30
4.7752
  0
POINT
 62
0
  8
points
 10
40.3336
 20
48.159
 30
4.4196
  0
POINT
 62
0
  8
points
 10
7.828
 20
29.257
 30
4.7752
  0
POINT
 62
0
  8
points
 10
7.828
 20
30.373
 30
4.7752
  0
POINT
 62
0
  8
points
 10
42.52
 20
0.0
 30
4.7752
  0
POINT
 62
0
  8
points
 10
7.828
 20
33.183
 30
4.7752
  0
POINT
 62
0
  8
points
 10
42.52
 20
8.739
 30
4.7752
  0
POINT
 62
0
  8
points
 10
13.9208
 20
48.159
 30
4.4196
  0
POINT
 62
0
  8
points
 10
7.828
 20
33.657
 30
4.7752
  0
POINT
 62
0
  8
points
 10
42.52
 20
8.839
 30
4.7752
  0
POINT
 62
0
  8
points
 10
6.196
 20
48.159
 30
4.4196
  0
POINT
 62
0
  8
points
 10
42.52
 20
8.875
 30
4.7752
  0
POINT
 62
0
  8
points
 10
7.828
 20
33.857
 30
4.7752
  0
POINT
 62
0
  8
points
 10
42.52
 20
8.939
 30
4.7752
  0
POINT
 62
0
  8
points
 10
7.828
 20
41.963
 30
4.7752
  0
POINT
 62
0
  8
points
 10
42.52
 20
10.839
 30
4.7752
  0
POINT
 62
0
  8
points
 10
42.52
 20
10.975
 30
4.7752
  0
POINT
 62
0
  8
points
 10
7.828
 20
42.163
 30
4.7752
  0
POINT
 62
0
  8
points
 10
42.52
 20
16.02
 30
4.7752
  0
POINT
 62
0
  8
points
 10
7.828
 20
44.77
 30
4.7752
  0
POINT
 62
0
  8
points
 10
42.52
 20
17.045
 30
4.7752
  0
POINT
 62
0
  8
points
 10
42.52
 20
17.145
 30
4.7752
  0
POINT
 62
0
  8
points
 10
42.52
 20
17.245
 30
4.7752
  0
POINT
 62
0
  8
points
 10
42.52
 20
25.351
 30
4.7752
  0
POINT
 62
0
  8
points
 10
42.52
 20
25.451
 30
4.7752
  0
POINT
 62
0
  8
points
 10
42.52
 20
25.551
 30
4.7752
  0
POINT
 62
0
  8
points
 10
42.52
 20
29.257
 30
4.7752
  0
POINT
 62
0
  8
points
 10
42.52
 20
30.373
 30
4.7752
  0
POINT
 62
0
  8
points
 10
42.52
 20
33.183
 30
4.7752
  0
POINT
 62
0
  8
points
 10
42.52
 20
33.657
 30
4.7752
  0
POINT
 62
0
  8
points
 10
42.52
 20
33.757
 30
4.7752
  0
POINT
 62
0
  8
points
 10
42.52
 20
33.857
 30
4.7752
  0
POINT
 62
0
  8
points
 10
9.596
 20
17.245
 30
4.7752
  0
POINT
 62
0
  8
points
 10
42.52
 20
41.963
 30
4.7752
  0
POINT
 62
0
  8
points
 10
9.596
 20
25.351
 30
4.7752
  0
POINT
 62
0
  8
points
 10
42.52
 20
42.163
 30
4.7752
  0
POINT
 62
0
  8
points
 10
42.52
 20
44.77
 30
4.4196
  0
POINT
 62
0
  8
points
 10
9.596
 20
25.551
 30
4.7752
  0
POINT
 62
0
  8
points
 10
42.52
 20
44.77
 30
4.7752
  0
POINT
 62
0
  8
points
 10
42.52
 20
48.159
 30
4.4196
  0
POINT
 62
0
  8
points
 10
9.596
 20
29.257
 30
4.7752
  0
POINT
 62
0
  8
points
 10
0.0
 20
44.77
 30
4.4196
  0
POINT
 62
0
  8
points
 10
9.596
 20
30.373
 30
4.7752
  0
POINT
 62
0
  8
points
 10
43.32
 20
0.0
 30
4.7752
  0
POINT
 62
0
  8
points
 10
9.596
 20
33.183
 30
4.7752
  0
POINT
 62
0
  8
points
 10
43.32
 20
8.739
 30
4.7752
  0
POINT
 62
0
  8
points
 10
9.596
 20
33.657
 30
4.7752
  0
POINT
 62
0
  8
points
 10
43.32
 20
8.839
 30
4.7752
  0
POINT
 62
0
  8
points
 10
43.32
 20
8.875
 30
4.7752
  0
POINT
 62
0
  8
points
 10
9.596
 20
33.857
 30
4.7752
  0
POINT
 62
0
  8
points
 10
43.32
 20
8.939
 30
4.7752
  0
POINT
 62
0
  8
points
 10
9.596
 20
41.963
 30
4.7752
  0
POINT
 62
0
  8
points
 10
43.32
 20
10.839
 30
4.7752
  0
POINT
 62
0
  8
points
 10
0.0
 20
48.159
 30
4.4196
  0
POINT
 62
0
  8
points
 10
43.32
 20
10.975
 30
4.7752
  0
POINT
 62
0
  8
points
 10
9.596
 20
42.163
 30
4.7752
  0
POINT
 62
0
  8
points
 10
43.32
 20
16.02
 30
4.7752
  0
POINT
 62
0
  8
points
 10
9.596
 20
44.77
 30
4.7752
  0
POINT
 62
0
  8
points
 10
43.32
 20
17.045
 30
4.7752
  0
POINT
 62
0
  8
points
 10
43.32
 20
17.145
 30
4.7752
  0
POINT
 62
0
  8
points
 10
43.32
 20
17.245
 30
4.7752
  0
POINT
 62
0
  8
points
 10
16.66
 20
44.77
 30
4.4196
  0
POINT
 62
0
  8
points
 10
43.32
 20
25.351
 30
4.7752
  0
POINT
 62
0
  8
points
 10
43.32
 20
25.451
 30
4.7752
  0
POINT
 62
0
  8
points
 10
43.32
 20
25.551
 30
4.7752
  0
POINT
 62
0
  8
points
 10
43.32
 20
29.257
 30
4.7752
  0
POINT
 62
0
  8
points
 10
43.32
 20
30.373
 30
4.7752
  0
POINT
 62
0
  8
points
 10
43.32
 20
33.183
 30
4.7752
  0
POINT
 62
0
  8
points
 10
16.66
 20
48.159
 30
4.4196
  0
POINT
 62
0
  8
points
 10
43.32
 20
33.657
 30
4.7752
  0
POINT
 62
0
  8
points
 10
43.32
 20
33.757
 30
4.7752
  0
POINT
 62
0
  8
points
 10
43.32
 20
33.857
 30
4.7752
  0
POINT
 62
0
  8
points
 10
10.2
 20
17.245
 30
4.7752
  0
POINT
 62
0
  8
points
 10
43.32
 20
41.963
 30
4.7752
  0
POINT
 62
0
  8
points
 10
10.2
 20
25.351
 30
4.7752
  0
POINT
 62
0
  8
points
 10
43.32
 20
42.163
 30
4.7752
  0
POINT
 62
0
  8
points
 10
43.32
 20
44.77
 30
4.4196
  0
POINT
 62
0
  8
points
 10
10.2
 20
25.551
 30
4.7752
  0
POINT
 62
0
  8
points
 10
43.32
 20
44.77
 30
4.7752
  0
POINT
 62
0
  8
points
 10
43.32
 20
48.159
 30
4.4196
  0
POINT
 62
0
  8
points
 10
10.2
 20
29.257
 30
4.7752
  0
POINT
 62
0
  8
points
 10
10.2
 20
30.373
 30
4.7752
  0
POINT
 62
0
  8
points
 10
43.92
 20
0.0
 30
4.7752
  0
POINT
 62
0
  8
points
 10
10.2
 20
33.183
 30
4.7752
  0
POINT
 62
0
  8
points
 10
43.92
 20
8.739
 30
4.7752
  0
POINT
 62
0
  8
points
 10
10.2
 20
33.657
 30
4.7752
  0
POINT
 62
0
  8
points
 10
43.92
 20
8.839
 30
4.7752
  0
POINT
 62
0
  8
points
 10
43.92
 20
8.875
 30
4.7752
  0
POINT
 62
0
  8
points
 10
10.2
 20
33.857
 30
4.7752
  0
POINT
 62
0
  8
points
 10
43.92
 20
8.939
 30
4.7752
  0
POINT
 62
0
  8
points
 10
10.2
 20
41.963
 30
4.7752
  0
POINT
 62
0
  8
points
 10
43.92
 20
10.839
 30
4.7752
  0
POINT
 62
0
  8
points
 10
43.92
 20
10.975
 30
4.7752
  0
POINT
 62
0
  8
points
 10
10.2
 20
42.163
 30
4.7752
  0
POINT
 62
0
  8
points
 10
43.92
 20
16.02
 30
4.7752
  0
POINT
 62
0
  8
points
 10
10.2
 20
44.77
 30
4.7752
  0
POINT
 62
0
  8
points
 10
43.92
 20
17.045
 30
4.7752
  0
POINT
 62
0
  8
points
 10
43.92
 20
17.145
 30
4.7752
  0
POINT
 62
0
  8
points
 10
43.92
 20
17.245
 30
4.7752
  0
POINT
 62
0
  8
points
 10
43.92
 20
25.351
 30
4.7752
  0
POINT
 62
0
  8
points
 10
43.92
 20
25.451
 30
4.7752
  0
POINT
 62
0
  8
points
 10
43.92
 20
25.551
 30
4.7752
  0
POINT
 62
0
  8
points
 10
43.92
 20
29.257
 30
4.7752
  0
POINT
 62
0
  8
points
 10
6.196
 20
44.77
 30
4.4196
  0
POINT
 62
0
  8
points
 10
43.92
 20
30.373
 30
4.7752
  0
POINT
 62
0
  8
points
 10
43.92
 20
33.183
 30
4.7752
  0
POINT
 62
0
  8
points
 10
43.92
 20
33.657
 30
4.7752
  0
POINT
 62
0
  8
points
 10
43.92
 20
33.757
 30
4.7752
  0
POINT
 62
0
  8
points
 10
43.92
 20
33.857
 30
4.7752
  0
POINT
 62
0
  8
points
 10
11.0
 20
17.245
 30
4.7752
  0
POINT
 62
0
  8
points
 10
43.92
 20
41.963
 30
4.7752
  0
POINT
 62
0
  8
points
 10
11.0
 20
25.351
 30
4.7752
  0
POINT
 62
0
  8
points
 10
43.92
 20
42.163
 30
4.7752
  0
POINT
 62
0
  8
points
 10
43.92
 20
44.77
 30
4.4196
  0
POINT
 62
0
  8
points
 10
11.0
 20
25.551
 30
4.7752
  0
POINT
 62
0
  8
points
 10
43.92
 20
44.77
 30
4.7752
  0
POINT
 62
0
  8
points
 10
43.92
 20
48.159
 30
4.4196
  0
POINT
 62
0
  8
points
 10
11.0
 20
29.257
 30
4.7752
  0
POINT
 62
0
  8
points
 10
11.0
 20
30.373
 30
4.7752
  0
POINT
 62
0
  8
points
 10
47.52
 20
0.0
 30
4.7752
  0
POINT
 62
0
  8
points
 10
11.0
 20
33.183
 30
4.7752
  0
POINT
 62
0
  8
points
 10
47.52
 20
8.739
 30
4.7752
  0
POINT
 62
0
  8
points
 10
11.0
 20
33.657
 30
4.7752
  0
POINT
 62
0
  8
points
 10
47.52
 20
8.839
 30
4.7752
  0
POINT
 62
0
  8
points
 10
47.52
 20
8.875
 30
4.7752
  0
POINT
 62
0
  8
points
 10
11.0
 20
33.857
 30
4.7752
  0
POINT
 62
0
  8
points
 10
47.52
 20
8.939
 30
4.7752
  0
POINT
 62
0
  8
points
 10
11.0
 20
41.963
 30
4.7752
  0
POINT
 62
0
  8
points
 10
47.52
 20
10.839
 30
4.7752
  0
POINT
 62
0
  8
points
 10
47.52
 20
10.975
 30
4.7752
  0
POINT
 62
0
  8
points
 10
11.0
 20
42.163
 30
4.7752
  0
POINT
 62
0
  8
points
 10
47.52
 20
16.02
 30
4.7752
  0
POINT
 62
0
  8
points
 10
11.0
 20
44.77
 30
4.7752
  0
POINT
 62
0
  8
points
 10
47.52
 20
17.045
 30
4.7752
  0
POINT
 62
0
  8
points
 10
47.52
 20
17.145
 30
4.7752
  0
POINT
 62
0
  8
points
 10
47.52
 20
17.245
 30
4.7752
  0
POINT
 62
0
  8
points
 10
47.52
 20
25.351
 30
4.7752
  0
POINT
 62
0
  8
points
 10
47.52
 20
25.451
 30
4.7752
  0
POINT
 62
0
  8
points
 10
47.52
 20
25.551
 30
4.7752
  0
POINT
 62
0
  8
points
 10
47.52
 20
29.257
 30
4.7752
  0
POINT
 62
0
  8
points
 10
47.52
 20
30.373
 30
4.7752
  0
POINT
 62
0
  8
points
 10
47.52
 20
33.183
 30
4.7752
  0
POINT
 62
0
  8
points
 10
47.52
 20
33.657
 30
4.7752
  0
POINT
 62
0
  8
points
 10
47.52
 20
33.757
 30
4.7752
  0
POINT
 62
0
  8
points
 10
47.52
 20
33.857
 30
4.7752
  0
POINT
 62
0
  8
points
 10
13.9208
 20
17.245
 30
4.7752
  0
POINT
 62
0
  8
points
 10
47.52
 20
41.963
 30
4.7752
  0
POINT
 62
0
  8
points
 10
13.9208
 20
25.351
 30
4.7752
  0
POINT
 62
0
  8
points
 10
47.52
 20
42.163
 30
4.7752
  0
POINT
 62
0
  8
points
 10
47.52
 20
44.77
 30
4.4196
  0
POINT
 62
0
  8
points
 10
13.9208
 20
25.551
 30
4.7752
  0
POINT
 62
0
  8
points
 10
47.52
 20
44.77
 30
4.7752
  0
POINT
 62
0
  8
points
 10
47.52
 20
48.159
 30
4.4196
  0
POINT
 62
0
  8
points
 10
13.9208
 20
29.257
 30
4.7752
  0
POINT
 62
0
  8
points
 10
13.9208
 20
30.373
 30
4.7752
  0
POINT
 62
0
  8
points
 10
48.668
 20
0.0
 30
4.7752
  0
POINT
 62
0
  8
points
 10
13.9208
 20
33.183
 30
4.7752
  0
POINT
 62
0
  8
points
 10
48.668
 20
8.739
 30
4.7752
  0
POINT
 62
0
  8
points
 10
13.9208
 20
33.657
 30
4.7752
  0
POINT
 62
0
  8
points
 10
48.668
 20
8.839
 30
4.7752
  0
POINT
 62
0
  8
points
 10
48.668
 20
8.875
 30
4.7752
  0
POINT
 62
0
  8
points
 10
13.9208
 20
33.857
 30
4.7752
  0
POINT
 62
0
  8
points
 10
48.668
 20
8.939
 30
4.7752
  0
POINT
 62
0
  8
points
 10
13.9208
 20
41.963
 30
4.7752
  0
POINT
 62
0
  8
points
 10
48.668
 20
10.839
 30
4.7752
  0
POINT
 62
0
  8
points
 10
48.668
 20
10.975
 30
4.7752
  0
POINT
 62
0
  8
points
 10
13.9208
 20
42.163
 30
4.7752
  0
POINT
 62
0
  8
points
 10
48.668
 20
16.02
 30
4.7752
  0
POINT
 62
0
  8
points
 10
13.9208
 20
44.77
 30
4.7752
  0
POINT
 62
0
  8
points
 10
48.668
 20
17.045
 30
4.7752
  0
POINT
 62
0
  8
points
 10
11.0
 20
44.77
 30
4.4196
  0
POINT
 62
0
  8
points
 10
48.668
 20
17.145
 30
4.7752
  0
POINT
 62
0
  8
points
 10
48.668
 20
17.245
 30
4.7752
  0
POINT
 62
0
  8
points
 10
48.668
 20
25.351
 30
4.7752
  0
POINT
 62
0
  8
points
 10
48.668
 20
25.451
 30
4.7752
  0
POINT
 62
0
  8
points
 10
48.668
 20
25.551
 30
4.7752
  0
POINT
 62
0
  8
points
 10
48.668
 20
29.257
 30
4.7752
  0
POINT
 62
0
  8
points
 10
48.668
 20
30.373
 30
4.7752
  0
POINT
 62
0
  8
points
 10
11.0
 20
48.159
 30
4.4196
  0
POINT
 62
0
  8
points
 10
48.668
 20
33.183
 30
4.7752
  0
POINT
 62
0
  8
points
 10
48.668
 20
33.657
 30
4.7752
  0
POINT
 62
0
  8
points
 10
48.668
 20
33.757
 30
4.7752
  0
POINT
 62
0
  8
points
 10
48.668
 20
33.857
 30
4.7752
  0
POINT
 62
0
  8
points
 10
48.668
 20
41.963
 30
4.7752
  0
POINT
 62
0
  8
points
 10
48.668
 20
42.163
 30
4.7752
  0
POINT
 62
0
  8
points
 10
48.668
 20
44.77
 30
4.4196
  0
POINT
 62
0
  8
points
 10
48.668
 20
44.77
 30
4.7752
  0
POINT
 62
0
  8
points
 10
48.668
 20
48.159
 30
4.4196
  0
POINT
 62
0
  8
points
 10
14.0208
 20
42.163
 30
4.7752
  0
POINT
 62
0
  8
points
 10
14.0208
 20
44.77
 30
4.4196
  0
POINT
 62
0
  8
points
 10
14.0208
 20
44.77
 30
4.7752
  0
POINT
 62
0
  8
points
 10
14.0208
 20
48.159
 30
4.4196
  0
POINT
 62
0
  8
points
 10
14.1208
 20
8.839
 30
4.7752
  0
POINT
 62
0
  8
points
 10
14.1208
 20
8.875
 30
4.7752
  0
POINT
 62
0
  8
points
 10
14.1208
 20
8.939
 30
4.7752
  0
POINT
 62
0
  8
points
 10
14.1208
 20
10.839
 30
4.7752
  0
POINT
 62
0
  8
points
 10
14.1208
 20
10.975
 30
4.7752
  0
POINT
 62
0
  8
points
 10
14.1208
 20
16.02
 30
4.7752
  0
POINT
 62
0
  8
points
 10
14.1208
 20
17.045
 30
4.7752
  0
POINT
 62
0
  8
points
 10
14.1208
 20
17.145
 30
4.7752
  0
POINT
 62
0
  8
points
 10
14.1208
 20
17.245
 30
4.7752
  0
POINT
 62
0
  8
points
 10
14.1208
 20
25.351
 30
4.7752
  0
POINT
 62
0
  8
points
 10
14.1208
 20
25.451
 30
4.7752
  0
POINT
 62
0
  8
points
 10
48.768
 20
42.163
 30
4.7752
  0
POINT
 62
0
  8
points
 10
48.768
 20
44.77
 30
4.4196
  0
POINT
 62
0
  8
points
 10
14.1208
 20
25.551
 30
4.7752
  0
POINT
 62
0
  8
points
 10
48.768
 20
44.77
 30
4.7752
  0
POINT
 62
0
  8
points
 10
48.768
 20
48.159
 30
4.4196
  0
POINT
 62
0
  8
points
 10
14.1208
 20
29.257
 30
4.7752
  0
POINT
 62
0
  8
points
 10
14.1208
 20
30.373
 30
4.7752
  0
POINT
 62
0
  8
points
 10
48.868
 20
0.0
 30
4.7752
  0
POINT
 62
0
  8
points
 10
14.1208
 20
33.183
 30
4.7752
  0
POINT
 62
0
  8
points
 10
48.868
 20
8.739
 30
4.7752
  0
POINT
 62
0
  8
points
 10
14.1208
 20
33.657
 30
4.7752
  0
POINT
 62
0
  8
points
 10
48.868
 20
8.839
 30
4.7752
  0
POINT
 62
0
  8
points
 10
14.1208
 20
33.757
 30
4.7752
  0
POINT
 62
0
  8
points
 10
48.868
 20
8.875
 30
4.7752
  0
POINT
 62
0
  8
points
 10
14.1208
 20
33.857
 30
4.7752
  0
POINT
 62
0
  8
points
 10
48.868
 20
8.939
 30
4.7752
  0
POINT
 62
0
  8
points
 10
14.1208
 20
41.963
 30
4.7752
  0
POINT
 62
0
  8
points
 10
48.868
 20
10.839
 30
4.7752
  0
POINT
 62
0
  8
points
 10
48.868
 20
10.975
 30
4.7752
  0
POINT
 62
0
  8
points
 10
14.1208
 20
42.163
 30
4.7752
  0
POINT
 62
0
  8
points
 10
48.868
 20
16.02
 30
4.7752
  0
POINT
 62
0
  8
points
 10
14.1208
 20
44.77
 30
4.7752
  0
POINT
 62
0
  8
points
 10
48.868
 20
17.045
 30
4.7752
  0
POINT
 62
0
  8
points
 10
48.868
 20
17.145
 30
4.7752
  0
POINT
 62
0
  8
points
 10
16.66
 20
0.0
 30
4.7752
  0
POINT
 62
0
  8
points
 10
48.868
 20
17.245
 30
4.7752
  0
POINT
 62
0
  8
points
 10
16.66
 20
8.739
 30
4.7752
  0
POINT
 62
0
  8
points
 10
48.868
 20
25.351
 30
4.7752
  0
POINT
 62
0
  8
points
 10
16.66
 20
8.839
 30
4.7752
  0
POINT
 62
0
  8
points
 10
48.868
 20
25.451
 30
4.7752
  0
POINT
 62
0
  8
points
 10
16.66
 20
8.875
 30
4.7752
  0
POINT
 62
0
  8
points
 10
48.868
 20
25.551
 30
4.7752
  0
POINT
 62
0
  8
points
 10
16.66
 20
8.939
 30
4.7752
  0
POINT
 62
0
  8
points
 10
48.868
 20
29.257
 30
4.7752
  0
POINT
 62
0
  8
points
 10
16.66
 20
10.839
 30
4.7752
  0
POINT
 62
0
  8
points
 10
48.868
 20
30.373
 30
4.7752
  0
POINT
 62
0
  8
points
 10
16.66
 20
10.975
 30
4.7752
  0
POINT
 62
0
  8
points
 10
48.868
 20
33.183
 30
4.7752
  0
POINT
 62
0
  8
points
 10
16.66
 20
16.02
 30
4.7752
  0
POINT
 62
0
  8
points
 10
48.868
 20
33.657
 30
4.7752
  0
POINT
 62
0
  8
points
 10
16.66
 20
17.045
 30
4.7752
  0
POINT
 62
0
  8
points
 10
48.868
 20
33.757
 30
4.7752
  0
POINT
 62
0
  8
points
 10
16.66
 20
17.145
 30
4.7752
  0
POINT
 62
0
  8
points
 10
48.868
 20
33.857
 30
4.7752
  0
POINT
 62
0
  8
points
 10
16.66
 20
17.245
 30
4.7752
  0
POINT
 62
0
  8
points
 10
48.868
 20
41.963
 30
4.7752
  0
POINT
 62
0
  8
points
 10
16.66
 20
25.351
 30
4.7752
  0
POINT
 62
0
  8
points
 10
16.66
 20
25.451
 30
4.7752
  0
POINT
 62
0
  8
points
 10
48.868
 20
42.163
 30
4.7752
  0
POINT
 62
0
  8
points
 10
48.868
 20
44.77
 30
4.4196
  0
POINT
 62
0
  8
points
 10
16.66
 20
25.551
 30
4.7752
  0
POINT
 62
0
  8
points
 10
48.868
 20
44.77
 30
4.7752
  0
POINT
 62
0
  8
points
 10
48.868
 20
48.159
 30
4.4196
  0
POINT
 62
0
  8
points
 10
16.66
 20
29.257
 30
4.7752
  0
POINT
 62
0
  8
points
 10
5.996
 20
44.77
 30
4.4196
  0
POINT
 62
0
  8
points
 10
53.52
 20
0.0
 30
4.4196
  0
POINT
 62
0
  8
points
 10
16.66
 20
30.373
 30
4.7752
  0
POINT
 62
0
  8
points
 10
53.52
 20
0.0
 30
4.7752
  0
POINT
 62
0
  8
points
 10
53.52
 20
8.739
 30
4.4196
  0
POINT
 62
0
  8
points
 10
16.66
 20
33.183
 30
4.7752
  0
POINT
 62
0
  8
points
 10
53.52
 20
8.739
 30
4.7752
  0
POINT
 62
0
  8
points
 10
53.52
 20
8.839
 30
4.4196
  0
POINT
 62
0
  8
points
 10
16.66
 20
33.657
 30
4.7752
  0
POINT
 62
0
  8
points
 10
53.52
 20
8.839
 30
4.7752
  0
POINT
 62
0
  8
points
 10
53.52
 20
8.875
 30
4.4196
  0
POINT
 62
0
  8
points
 10
16.66
 20
33.757
 30
4.7752
  0
POINT
 62
0
  8
points
 10
53.52
 20
8.875
 30
4.7752
  0
POINT
 62
0
  8
points
 10
53.52
 20
8.939
 30
4.4196
  0
POINT
 62
0
  8
points
 10
16.66
 20
33.857
 30
4.7752
  0
POINT
 62
0
  8
points
 10
53.52
 20
8.939
 30
4.7752
  0
POINT
 62
0
  8
points
 10
53.52
 20
10.839
 30
4.4196
  0
POINT
 62
0
  8
points
 10
16.66
 20
41.963
 30
4.7752
  0
POINT
 62
0
  8
points
 10
53.52
 20
10.839
 30
4.7752
  0
POINT
 62
0
  8
points
 10
5.996
 20
48.159
 30
4.4196
  0
POINT
 62
0
  8
points
 10
53.52
 20
10.975
 30
4.4196
  0
POINT
 62
0
  8
points
 10
53.52
 20
10.975
 30
4.7752
  0
POINT
 62
0
  8
points
 10
53.52
 20
16.02
 30
4.4196
  0
POINT
 62
0
  8
points
 10
16.66
 20
42.163
 30
4.7752
  0
POINT
 62
0
  8
points
 10
53.52
 20
16.02
 30
4.7752
  0
POINT
 62
0
  8
points
 10
53.52
 20
17.045
 30
4.4196
  0
POINT
 62
0
  8
points
 10
16.66
 20
44.77
 30
4.7752
  0
POINT
 62
0
  8
points
 10
53.52
 20
17.045
 30
4.7752
  0
POINT
 62
0
  8
points
 10
53.52
 20
17.145
 30
4.4196
  0
POINT
 62
0
  8
points
 10
53.52
 20
17.145
 30
4.7752
  0
POINT
 62
0
  8
points
 10
53.52
 20
17.245
 30
4.4196
  0
POINT
 62
0
  8
points
 10
20.2708
 20
0.0
 30
4.7752
  0
POINT
 62
0
  8
points
 10
53.52
 20
17.245
 30
4.7752
  0
POINT
 62
0
  8
points
 10
53.52
 20
25.351
 30
4.4196
  0
POINT
 62
0
  8
points
 10
20.2708
 20
8.739
 30
4.7752
  0
POINT
 62
0
  8
points
 10
20.2708
 20
44.77
 30
4.4196
  0
POINT
 62
0
  8
points
 10
53.52
 20
25.351
 30
4.7752
  0
POINT
 62
0
  8
points
 10
53.52
 20
25.451
 30
4.4196
  0
POINT
 62
0
  8
points
 10
20.2708
 20
8.839
 30
4.7752
  0
POINT
 62
0
  8
points
 10
53.52
 20
25.451
 30
4.7752
  0
POINT
 62
0
  8
points
 10
53.52
 20
25.551
 30
4.4196
  0
POINT
 62
0
  8
points
 10
20.2708
 20
8.875
 30
4.7752
  0
POINT
 62
0
  8
points
 10
53.52
 20
25.551
 30
4.7752
  0
POINT
 62
0
  8
points
 10
53.52
 20
29.257
 30
4.4196
  0
POINT
 62
0
  8
points
 10
20.2708
 20
8.939
 30
4.7752
  0
POINT
 62
0
  8
points
 10
53.52
 20
29.257
 30
4.7752
  0
POINT
 62
0
  8
points
 10
53.52
 20
30.373
 30
4.4196
  0
POINT
 62
0
  8
points
 10
20.2708
 20
10.839
 30
4.7752
  0
POINT
 62
0
  8
points
 10
53.52
 20
30.373
 30
4.7752
  0
POINT
 62
0
  8
points
 10
53.52
 20
33.183
 30
4.4196
  0
POINT
 62
0
  8
points
 10
20.2708
 20
10.975
 30
4.7752
  0
POINT
 62
0
  8
points
 10
53.52
 20
33.183
 30
4.7752
  0
POINT
 62
0
  8
points
 10
53.52
 20
33.657
 30
4.4196
  0
POINT
 62
0
  8
points
 10
20.2708
 20
16.02
 30
4.7752
  0
POINT
 62
0
  8
points
 10
53.52
 20
33.657
 30
4.7752
  0
POINT
 62
0
  8
points
 10
53.52
 20
33.757
 30
4.4196
  0
POINT
 62
0
  8
points
 10
20.2708
 20
17.045
 30
4.7752
  0
POINT
 62
0
  8
points
 10
53.52
 20
33.757
 30
4.7752
  0
POINT
 62
0
  8
points
 10
53.52
 20
33.857
 30
4.4196
  0
POINT
 62
0
  8
points
 10
20.2708
 20
17.145
 30
4.7752
  0
POINT
 62
0
  8
points
 10
53.52
 20
33.857
 30
4.7752
  0
POINT
 62
0
  8
points
 10
53.52
 20
41.963
 30
4.4196
  0
POINT
 62
0
  8
points
 10
20.2708
 20
17.245
 30
4.7752
  0
POINT
 62
0
  8
points
 10
53.52
 20
41.963
 30
4.7752
  0
POINT
 62
0
  8
points
 10
53.52
 20
42.063
 30
4.4196
  0
POINT
 62
0
  8
points
 10
20.2708
 20
25.351
 30
4.7752
  0
POINT
 62
0
  8
points
 10
53.52
 20
42.163
 30
4.4196
  0
POINT
 62
0
  8
points
 10
20.2708
 20
25.451
 30
4.7752
  0
POINT
 62
0
  8
points
 10
53.52
 20
42.163
 30
4.7752
  0
POINT
 62
0
  8
points
 10
53.52
 20
44.77
 30
4.4196
  0
POINT
 62
0
  8
points
 10
20.2708
 20
25.551
 30
4.7752
  0
POINT
 62
0
  8
points
 10
53.52
 20
44.77
 30
4.7752
  0
POINT
 62
0
  8
points
 10
53.52
 20
48.159
 30
4.4196
  0
POINT
 62
0
  8
points
 10
20.2708
 20
29.257
 30
4.7752
  0
POINT
 62
0
  8
points
 10
55.7784
 20
0.0
 30
4.4196
  0
POINT
 62
0
  8
points
 10
20.2708
 20
30.373
 30
4.7752
  0
POINT
 62
0
  8
points
 10
55.7784
 20
8.739
 30
4.4196
  0
POINT
 62
0
  8
points
 10
20.2708
 20
33.183
 30
4.7752
  0
POINT
 62
0
  8
points
 10
55.7784
 20
8.839
 30
4.4196
  0
POINT
 62
0
  8
points
 10
20.2708
 20
33.657
 30
4.7752
  0
POINT
 62
0
  8
points
 10
55.7784
 20
8.875
 30
4.4196
  0
POINT
 62
0
  8
points
 10
20.2708
 20
33.757
 30
4.7752
  0
POINT
 62
0
  8
points
 10
55.7784
 20
8.939
 30
4.4196
  0
POINT
 62
0
  8
points
 10
20.2708
 20
33.857
 30
4.7752
  0
POINT
 62
0
  8
points
 10
55.7784
 20
10.839
 30
4.4196
  0
POINT
 62
0
  8
points
 10
20.2708
 20
41.963
 30
4.7752
  0
POINT
 62
0
  8
points
 10
55.7784
 20
10.975
 30
4.4196
  0
POINT
 62
0
  8
points
 10
55.7784
 20
16.02
 30
4.4196
  0
POINT
 62
0
  8
points
 10
20.2708
 20
42.163
 30
4.7752
  0
POINT
 62
0
  8
points
 10
10.2
 20
48.159
 30
4.4196
  0
POINT
 62
0
  8
points
 10
55.7784
 20
17.045
 30
4.4196
  0
POINT
 62
0
  8
points
 10
20.2708
 20
44.77
 30
4.7752
  0
POINT
 62
0
  8
points
 10
20.2708
 20
48.159
 30
4.4196
  0
POINT
 62
0
  8
points
 10
55.7784
 20
17.145
 30
4.4196
  0
POINT
 62
0
  8
points
 10
55.7784
 20
17.245
 30
4.4196
  0
POINT
 62
0
  8
points
 10
55.7784
 20
25.351
 30
4.4196
  0
POINT
 62
0
  8
points
 10
55.7784
 20
25.451
 30
4.4196
  0
POINT
 62
0
  8
points
 10
55.7784
 20
25.551
 30
4.4196
  0
POINT
 62
0
  8
points
 10
55.7784
 20
29.257
 30
4.4196
  0
POINT
 62
0
  8
points
 10
55.7784
 20
30.373
 30
4.4196
  0
POINT
 62
0
  8
points
 10
7.828
 20
44.77
 30
4.4196
  0
POINT
 62
0
  8
points
 10
55.7784
 20
33.183
 30
4.4196
  0
POINT
 62
0
  8
points
 10
55.7784
 20
33.657
 30
4.4196
  0
POINT
 62
0
  8
points
 10
55.7784
 20
33.757
 30
4.4196
  0
POINT
 62
0
  8
points
 10
55.7784
 20
33.857
 30
4.4196
  0
POINT
 62
0
  8
points
 10
55.7784
 20
41.963
 30
4.4196
  0
POINT
 62
0
  8
points
 10
55.7784
 20
42.063
 30
4.4196
  0
POINT
 62
0
  8
points
 10
7.828
 20
48.159
 30
4.4196
  0
POINT
 62
0
  8
points
 10
55.7784
 20
42.163
 30
4.4196
  0
POINT
 62
0
  8
points
 10
55.7784
 20
44.77
 30
4.4196
  0
POINT
 62
0
  8
points
 10
55.7784
 20
48.159
 30
4.4196
  0
POINT
 62
0
  8
points
 10
20.3708
 20
44.77
 30
4.4196
  0
POINT
 62
0
  8
points
 10
20.3708
 20
48.159
 30
4.4196
  0
POINT
 62
0
  8
points
 10
20.4708
 20
0.0
 30
4.7752
  0
POINT
 62
0
  8
points
 10
20.4708
 20
8.739
 30
4.7752
  0
POINT
 62
0
  8
points
 10
20.4708
 20
8.839
 30
4.4196
  0
POINT
 62
0
  8
points
 10
20.4708
 20
8.839
 30
4.7752
  0
POINT
 62
0
  8
points
 10
20.4708
 20
8.875
 30
4.4196
  0
POINT
 62
0
  8
points
 10
20.4708
 20
8.875
 30
4.7752
  0
POINT
 62
0
  8
points
 10
20.4708
 20
8.939
 30
4.4196
  0
POINT
 62
0
  8
points
 10
20.4708
 20
8.939
 30
4.7752
  0
POINT
 62
0
  8
points
 10
20.4708
 20
10.839
 30
4.4196
  0
POINT
 62
0
  8
points
 10
20.4708
 20
10.839
 30
4.7752
  0
POINT
 62
0
  8
points
 10
20.4708
 20
10.975
 30
4.4196
  0
POINT
 62
0
  8
points
 10
20.4708
 20
10.975
 30
4.7752
  0
POINT
 62
0
  8
points
 10
20.4708
 20
16.02
 30
4.4196
  0
POINT
 62
0
  8
points
 10
20.4708
 20
17.045
 30
4.4196
  0
POINT
 62
0
  8
points
 10
20.4708
 20
17.145
 30
4.4196
  0
POINT
 62
0
  8
points
 10
20.4708
 20
17.245
 30
4.4196
  0
POINT
 62
0
  8
points
 10
20.4708
 20
25.351
 30
4.4196
  0
POINT
 62
0
  8
points
 10
20.4708
 20
25.451
 30
4.4196
  0
POINT
 62
0
  8
points
 10
20.4708
 20
25.551
 30
4.4196
  0
POINT
 62
0
  8
points
 10
20.4708
 20
29.257
 30
4.4196
  0
POINT
 62
0
  8
points
 10
20.4708
 20
30.373
 30
4.4196
  0
POINT
 62
0
  8
points
 10
20.4708
 20
33.183
 30
4.4196
  0
POINT
 62
0
  8
points
 10
20.4708
 20
33.657
 30
4.4196
  0
POINT
 62
0
  8
points
 10
20.4708
 20
33.757
 30
4.4196
  0
POINT
 62
0
  8
points
 10
20.4708
 20
33.857
 30
4.4196
  0
POINT
 62
0
  8
points
 10
20.4708
 20
41.963
 30
4.4196
  0
POINT
 62
0
  8
points
 10
20.4708
 20
42.063
 30
4.4196
  0
POINT
 62
0
  8
points
 10
20.4708
 20
42.163
 30
4.4196
  0
POINT
 62
0
  8
points
 10
10.2
 20
44.77
 30
4.4196
  0
POINT
 62
0
  8
points
 10
20.4708
 20
44.77
 30
4.4196
  0
POINT
 62
0
  8
points
 10
20.4708
 20
48.159
 30
4.4196
  0
POINT
 62
0
  8
points
 10
32.2596
 20
0.0
 30
4.7752
  0
POINT
 62
0
  8
points
 10
32.2596
 20
8.739
 30
4.7752
  0
POINT
 62
0
  8
points
 10
32.2596
 20
8.839
 30
4.4196
  0
POINT
 62
0
  8
points
 10
32.2596
 20
8.839
 30
4.7752
  0
POINT
 62
0
  8
points
 10
32.2596
 20
8.875
 30
4.4196
  0
POINT
 62
0
  8
points
 10
32.2596
 20
8.875
 30
4.7752
  0
POINT
 62
0
  8
points
 10
32.2596
 20
8.939
 30
4.4196
  0
POINT
 62
0
  8
points
 10
32.2596
 20
8.939
 30
4.7752
  0
POINT
 62
0
  8
points
 10
32.2596
 20
10.839
 30
4.4196
  0
POINT
 62
0
  8
points
 10
32.2596
 20
10.839
 30
4.7752
  0
POINT
 62
0
  8
points
 10
32.2596
 20
10.975
 30
4.4196
  0
POINT
 62
0
  8
points
 10
32.2596
 20
10.975
 30
4.7752
  0
POINT
 62
0
  8
points
 10
32.2596
 20
16.02
 30
4.4196
  0
POINT
 62
0
  8
points
 10
32.2596
 20
17.045
 30
4.4196
  0
POINT
 62
0
  8
points
 10
32.2596
 20
17.145
 30
4.4196
  0
POINT
 62
0
  8
points
 10
32.2596
 20
17.245
 30
4.4196
  0
POINT
 62
0
  8
points
 10
32.2596
 20
25.351
 30
4.4196
  0
POINT
 62
0
  8
points
 10
32.2596
 20
25.451
 30
4.4196
  0
POINT
 62
0
  8
points
 10
32.2596
 20
25.551
 30
4.4196
  0
POINT
 62
0
  8
points
 10
32.2596
 20
29.257
 30
4.4196
  0
POINT
 62
0
  8
points
 10
32.2596
 20
30.373
 30
4.4196
  0
POINT
 62
0
  8
points
 10
32.2596
 20
33.183
 30
4.4196
  0
POINT
 62
0
  8
points
 10
32.2596
 20
33.657
 30
4.4196
  0
POINT
 62
0
  8
points
 10
32.2596
 20
33.757
 30
4.4196
  0
POINT
 62
0
  8
points
 10
32.2596
 20
33.857
 30
4.4196
  0
POINT
 62
0
  8
points
 10
32.2596
 20
41.963
 30
4.4196
  0
POINT
 62
0
  8
points
 10
32.2596
 20
42.063
 30
4.4196
  0
POINT
 62
0
  8
points
 10
32.2596
 20
42.163
 30
4.4196
  0
POINT
 62
0
  8
points
 10
32.2596
 20
44.77
 30
4.4196
  0
POINT
 62
0
  8
points
 10
32.2596
 20
48.159
 30
4.4196
  0
3DFACE
 62
0
  8
slabs_blocks
 10
7.828
 20
17.245
 30
4.7752
 11
9.596
 21
17.245
 31
4.7752
 12
9.596
 22
25.351
 32
4.7752
 13
7.828
 23
25.351
 33
4.7752
  0
LINE
 62
0
  8
slabs_blocks
 10
48.768
 20
44.77
 30
4.7752
 11
48.668
 21
44.77
 31
4.7752
  0
3DFACE
 62
0
  8
slabs_blocks
 10
47.52
 20
33.183
 30
4.7752
 11
48.668
 21
33.183
 31
4.7752
 12
48.668
 22
33.657
 32
4.7752
 13
47.52
 23
33.657
 33
4.7752
  0
LINE
 62
0
  8
slabs_blocks
 10
43.92
 20
8.839
 30
4.7752
 11
43.32
 21
8.839
 31
4.7752
  0
3DFACE
 62
0
  8
slabs_blocks
 10
53.52
 20
25.551
 30
4.4196
 11
55.7784
 21
25.551
 31
4.4196
 12
55.7784
 22
29.257
 32
4.4196
 13
53.52
 23
29.257
 33
4.4196
  0
3DFACE
 62
0
  8
slabs_blocks
 10
20.4708
 20
8.739
 30
4.7752
 11
32.2596
 21
8.739
 31
4.7752
 12
32.2596
 22
8.839
 32
4.7752
 13
20.4708
 23
8.839
 33
4.7752
  0
3DFACE
 62
0
  8
slabs_blocks
 10
32.4596
 20
44.77
 30
4.4196
 11
40.1336
 21
44.77
 31
4.4196
 12
40.1336
 22
48.159
 32
4.4196
 13
32.4596
 23
48.159
 33
4.4196
  0
LINE
 62
0
  8
slabs_blocks
 10
47.52
 20
8.739
 30
4.7752
 11
47.52
 21
8.839
 31
4.7752
  0
3DFACE
 62
0
  8
slabs_blocks
 10
43.92
 20
33.657
 30
4.7752
 11
47.52
 21
33.657
 31
4.7752
 12
47.52
 22
33.757
 32
4.7752
 13
43.92
 23
33.757
 33
4.7752
  0
LINE
 62
0
  8
slabs_blocks
 10
48.868
 20
44.77
 30
4.4196
 11
53.52
 21
44.77
 31
4.4196
  0
LINE
 62
0
  8
slabs_blocks
 10
13.9208
 20
41.963
 30
4.7752
 11
11.0
 21
41.963
 31
4.7752
  0
3DFACE
 62
0
  8
slabs_blocks
 10
43.32
 20
33.757
 30
4.7752
 11
43.92
 21
33.757
 31
4.7752
 12
43.92
 22
33.857
 32
4.7752
 13
43.32
 23
33.857
 33
4.7752
  0
LINE
 62
0
  8
slabs_blocks
 10
53.52
 20
0.0
 30
4.7752
 11
53.52
 21
8.739
 31
4.7752
  0
LINE
 62
0
  8
slabs_blocks
 10
0.0
 20
42.163
 30
4.7752
 11
5.996
 21
42.163
 31
4.7752
  0
3DFACE
 62
0
  8
slabs_blocks
 10
5.996
 20
25.551
 30
4.7752
 11
6.096
 21
25.551
 31
4.7752
 12
6.096
 22
29.257
 32
4.7752
 13
5.996
 23
29.257
 33
4.7752
  0
3DFACE
 62
0
  8
slabs_blocks
 10
42.52
 20
33.857
 30
4.7752
 11
43.32
 21
33.857
 31
4.7752
 12
43.32
 22
41.963
 32
4.7752
 13
42.52
 23
41.963
 33
4.7752
  0
3DFACE
 62
0
  8
slabs_blocks
 10
16.66
 20
8.939
 30
4.7752
 11
20.2708
 21
8.939
 31
4.7752
 12
20.2708
 22
10.839
 32
4.7752
 13
16.66
 23
10.839
 33
4.7752
  0
LINE
 62
0
  8
slabs_blocks
 10
7.828
 20
48.159
 30
4.4196
 11
6.196
 21
48.159
 31
4.4196
  0
3DFACE
 62
0
  8
slabs_blocks
 10
0.0
 20
29.257
 30
4.7752
 11
5.996
 21
29.257
 31
4.7752
 12
5.996
 22
30.373
 32
4.7752
 13
0.0
 23
30.373
 33
4.7752
  0
LINE
 62
0
  8
slabs_blocks
 10
42.52
 20
8.839
 30
4.7752
 11
42.52
 21
8.875
 31
4.7752
  0
3DFACE
 62
0
  8
slabs_blocks
 10
14.1208
 20
10.839
 30
4.7752
 11
16.66
 21
10.839
 31
4.7752
 12
16.66
 22
10.975
 32
4.7752
 13
14.1208
 23
10.975
 33
4.7752
  0
3DFACE
 62
0
  8
slabs_blocks
 10
20.4708
 20
8.839
 30
4.4196
 11
32.2596
 21
8.839
 31
4.4196
 12
32.2596
 22
8.875
 32
4.4196
 13
20.4708
 23
8.875
 33
4.4196
  0
LINE
 62
0
  8
slabs_blocks
 10
0.0
 20
44.77
 30
4.7752
 11
0.0
 21
42.163
 31
4.7752
  0
LINE
 62
0
  8
slabs_blocks
 10
40.3336
 20
17.245
 30
4.7752
 11
40.3336
 21
17.145
 31
4.7752
  0
LINE
 62
0
  8
slabs_blocks
 10
40.3336
 20
8.875
 30
4.7752
 11
40.3336
 21
8.839
 31
4.7752
  0
LINE
 62
0
  8
slabs_blocks
 10
9.596
 20
48.159
 30
4.4196
 11
7.828
 21
48.159
 31
4.4196
  0
3DFACE
 62
0
  8
slabs_blocks
 10
40.1336
 20
42.163
 30
4.7752
 11
40.2336
 21
42.163
 31
4.7752
 12
40.2336
 22
44.77
 32
4.7752
 13
40.1336
 23
44.77
 33
4.7752
  0
LINE
 62
0
  8
slabs_blocks
 10
20.2708
 20
44.77
 30
4.4196
 11
20.3708
 21
44.77
 31
4.4196
  0
3DFACE
 62
0
  8
slabs_blocks
 10
48.868
 20
29.257
 30
4.7752
 11
53.52
 21
29.257
 31
4.7752
 12
53.52
 22
30.373
 32
4.7752
 13
48.868
 23
30.373
 33
4.7752
  0
LINE
 62
0
  8
slabs_blocks
 10
6.196
 20
44.77
 30
4.4196
 11
6.196
 21
48.159
 31
4.4196
  0
LINE
 62
0
  8
slabs_blocks
 10
47.52
 20
8.839
 30
4.7752
 11
47.52
 21
8.875
 31
4.7752
  0
3DFACE
 62
0
  8
slabs_blocks
 10
9.596
 20
17.245
 30
4.7752
 11
10.2
 21
17.245
 31
4.7752
 12
10.2
 22
25.351
 32
4.7752
 13
9.596
 23
25.351
 33
4.7752
  0
LINE
 62
0
  8
slabs_blocks
 10
11.0
 20
44.77
 30
4.4196
 11
11.0
 21
48.159
 31
4.4196
  0
3DFACE
 62
0
  8
slabs_blocks
 10
40.1336
 20
44.77
 30
4.4196
 11
40.2336
 21
44.77
 31
4.4196
 12
40.2336
 22
48.159
 32
4.4196
 13
40.1336
 23
48.159
 33
4.4196
  0
LINE
 62
0
  8
slabs_blocks
 10
11.0
 20
48.159
 30
4.4196
 11
10.2
 21
48.159
 31
4.4196
  0
LINE
 62
0
  8
slabs_blocks
 10
43.32
 20
25.451
 30
4.7752
 11
42.52
 21
25.451
 31
4.7752
  0
3DFACE
 62
0
  8
slabs_blocks
 10
47.52
 20
33.657
 30
4.7752
 11
48.668
 21
33.657
 31
4.7752
 12
48.668
 22
33.757
 32
4.7752
 13
47.52
 23
33.757
 33
4.7752
  0
3DFACE
 62
0
  8
slabs_blocks
 10
53.52
 20
29.257
 30
4.4196
 11
55.7784
 21
29.257
 31
4.4196
 12
55.7784
 22
30.373
 32
4.4196
 13
53.52
 23
30.373
 33
4.4196
  0
3DFACE
 62
0
  8
slabs_blocks
 10
20.4708
 20
8.839
 30
4.7752
 11
32.2596
 21
8.839
 31
4.7752
 12
32.2596
 22
8.875
 32
4.7752
 13
20.4708
 23
8.875
 33
4.7752
  0
LINE
 62
0
  8
slabs_blocks
 10
48.668
 20
8.875
 30
4.7752
 11
47.52
 21
8.875
 31
4.7752
  0
3DFACE
 62
0
  8
slabs_blocks
 10
43.92
 20
33.757
 30
4.7752
 11
47.52
 21
33.757
 31
4.7752
 12
47.52
 22
33.857
 32
4.7752
 13
43.92
 23
33.857
 33
4.7752
  0
LINE
 62
0
  8
slabs_blocks
 10
32.2596
 20
10.975
 30
4.4196
 11
32.2596
 21
16.02
 31
4.4196
  0
LINE
 62
0
  8
slabs_blocks
 10
13.9208
 20
44.77
 30
4.4196
 11
13.9208
 21
48.159
 31
4.4196
  0
3DFACE
 62
0
  8
slabs_blocks
 10
6.096
 20
25.551
 30
4.7752
 11
6.196
 21
25.551
 31
4.7752
 12
6.196
 22
29.257
 32
4.7752
 13
6.096
 23
29.257
 33
4.7752
  0
3DFACE
 62
0
  8
slabs_blocks
 10
43.32
 20
33.857
 30
4.7752
 11
43.92
 21
33.857
 31
4.7752
 12
43.92
 22
41.963
 32
4.7752
 13
43.32
 23
41.963
 33
4.7752
  0
LINE
 62
0
  8
slabs_blocks
 10
42.52
 20
8.939
 30
4.7752
 11
40.3336
 21
8.939
 31
4.7752
  0
3DFACE
 62
0
  8
slabs_blocks
 10
5.996
 20
29.257
 30
4.7752
 11
6.096
 21
29.257
 31
4.7752
 12
6.096
 22
30.373
 32
4.7752
 13
5.996
 23
30.373
 33
4.7752
  0
3DFACE
 62
0
  8
slabs_blocks
 10
16.66
 20
10.839
 30
4.7752
 11
20.2708
 21
10.839
 31
4.7752
 12
20.2708
 22
10.975
 32
4.7752
 13
16.66
 23
10.975
 33
4.7752
  0
LINE
 62
0
  8
slabs_blocks
 10
14.0208
 20
48.159
 30
4.4196
 11
13.9208
 21
48.159
 31
4.4196
  0
3DFACE
 62
0
  8
slabs_blocks
 10
14.1208
 20
10.975
 30
4.7752
 11
16.66
 21
10.975
 31
4.7752
 12
16.66
 22
16.02
 32
4.7752
 13
14.1208
 23
16.02
 33
4.7752
  0
3DFACE
 62
0
  8
slabs_blocks
 10
20.4708
 20
8.875
 30
4.4196
 11
32.2596
 21
8.875
 31
4.4196
 12
32.2596
 22
8.939
 32
4.4196
 13
20.4708
 23
8.939
 33
4.4196
  0
3DFACE
 62
0
  8
slabs_blocks
 10
40.2336
 20
42.163
 30
4.7752
 11
40.3336
 21
42.163
 31
4.7752
 12
40.3336
 22
44.77
 32
4.7752
 13
40.2336
 23
44.77
 33
4.7752
  0
LINE
 62
0
  8
slabs_blocks
 10
14.1208
 20
44.77
 30
4.4196
 11
14.1208
 21
48.159
 31
4.4196
  0
LINE
 62
0
  8
slabs_blocks
 10
53.52
 20
8.839
 30
4.7752
 11
48.868
 21
8.839
 31
4.7752
  0
LINE
 62
0
  8
slabs_blocks
 10
47.52
 20
8.875
 30
4.7752
 11
47.52
 21
8.939
 31
4.7752
  0
LINE
 62
0
  8
slabs_blocks
 10
47.52
 20
8.939
 30
4.7752
 11
43.92
 21
8.939
 31
4.7752
  0
3DFACE
 62
0
  8
slabs_blocks
 10
48.868
 20
30.373
 30
4.7752
 11
53.52
 21
30.373
 31
4.7752
 12
53.52
 22
33.183
 32
4.7752
 13
48.868
 23
33.183
 33
4.7752
  0
3DFACE
 62
0
  8
slabs_blocks
 10
32.4596
 20
0.0
 30
4.7752
 11
40.1336
 21
0.0
 31
4.7752
 12
40.1336
 22
8.739
 32
4.7752
 13
32.4596
 23
8.739
 33
4.7752
  0
3DFACE
 62
0
  8
slabs_blocks
 10
10.2
 20
17.245
 30
4.7752
 11
11.0
 21
17.245
 31
4.7752
 12
11.0
 22
25.351
 32
4.7752
 13
10.2
 23
25.351
 33
4.7752
  0
LINE
 62
0
  8
slabs_blocks
 10
48.668
 20
8.939
 30
4.7752
 11
47.52
 21
8.939
 31
4.7752
  0
3DFACE
 62
0
  8
slabs_blocks
 10
40.2336
 20
44.77
 30
4.4196
 11
40.3336
 21
44.77
 31
4.4196
 12
40.3336
 22
48.159
 32
4.4196
 13
40.2336
 23
48.159
 33
4.4196
  0
LINE
 62
0
  8
slabs_blocks
 10
53.52
 20
44.77
 30
4.4196
 11
53.52
 21
48.159
 31
4.4196
  0
LINE
 62
0
  8
slabs_blocks
 10
16.66
 20
44.77
 30
4.4196
 11
20.2708
 21
44.77
 31
4.4196
  0
LINE
 62
0
  8
slabs_blocks
 10
13.9208
 20
44.77
 30
4.7752
 11
11.0
 21
44.77
 31
4.7752
  0
3DFACE
 62
0
  8
slabs_blocks
 10
47.52
 20
33.757
 30
4.7752
 11
48.668
 21
33.757
 31
4.7752
 12
48.668
 22
33.857
 32
4.7752
 13
47.52
 23
33.857
 33
4.7752
  0
3DFACE
 62
0
  8
slabs_blocks
 10
53.52
 20
30.373
 30
4.4196
 11
55.7784
 21
30.373
 31
4.4196
 12
55.7784
 22
33.183
 32
4.4196
 13
53.52
 23
33.183
 33
4.4196
  0
3DFACE
 62
0
  8
slabs_blocks
 10
20.4708
 20
8.875
 30
4.7752
 11
32.2596
 21
8.875
 31
4.7752
 12
32.2596
 22
8.939
 32
4.7752
 13
20.4708
 23
8.939
 33
4.7752
  0
LINE
 62
0
  8
slabs_blocks
 10
5.996
 20
8.739
 30
4.7752
 11
0.0
 21
8.739
 31
4.7752
  0
LINE
 62
0
  8
slabs_blocks
 10
0.0
 20
8.739
 30
4.7752
 11
0.0
 21
0.0
 31
4.7752
  0
3DFACE
 62
0
  8
slabs_blocks
 10
6.196
 20
25.551
 30
4.7752
 11
7.828
 21
25.551
 31
4.7752
 12
7.828
 22
29.257
 32
4.7752
 13
6.196
 23
29.257
 33
4.7752
  0
LINE
 62
0
  8
slabs_blocks
 10
6.096
 20
0.0
 30
4.7752
 11
6.096
 21
8.739
 31
4.7752
  0
3DFACE
 62
0
  8
slabs_blocks
 10
43.92
 20
33.857
 30
4.7752
 11
47.52
 21
33.857
 31
4.7752
 12
47.52
 22
41.963
 32
4.7752
 13
43.92
 23
41.963
 33
4.7752
  0
3DFACE
 62
0
  8
slabs_blocks
 10
7.828
 20
44.77
 30
4.4196
 11
9.596
 21
44.77
 31
4.4196
 12
9.596
 22
48.159
 32
4.4196
 13
7.828
 23
48.159
 33
4.4196
  0
LINE
 62
0
  8
slabs_blocks
 10
6.196
 20
0.0
 30
4.7752
 11
6.196
 21
8.739
 31
4.7752
  0
LINE
 62
0
  8
slabs_blocks
 10
6.196
 20
8.739
 30
4.7752
 11
6.096
 21
8.739
 31
4.7752
  0
LINE
 62
0
  8
slabs_blocks
 10
6.196
 20
0.0
 30
4.7752
 11
7.828
 21
0.0
 31
4.7752
  0
LINE
 62
0
  8
slabs_blocks
 10
7.828
 20
0.0
 30
4.7752
 11
7.828
 21
8.739
 31
4.7752
  0
3DFACE
 62
0
  8
slabs_blocks
 10
6.096
 20
29.257
 30
4.7752
 11
6.196
 21
29.257
 31
4.7752
 12
6.196
 22
30.373
 32
4.7752
 13
6.096
 23
30.373
 33
4.7752
  0
LINE
 62
0
  8
slabs_blocks
 10
0.0
 20
8.939
 30
4.7752
 11
5.996
 21
8.939
 31
4.7752
  0
LINE
 62
0
  8
slabs_blocks
 10
5.996
 20
8.939
 30
4.7752
 11
5.996
 21
10.839
 31
4.7752
  0
LINE
 62
0
  8
slabs_blocks
 10
5.996
 20
10.839
 30
4.7752
 11
0.0
 21
10.839
 31
4.7752
  0
LINE
 62
0
  8
slabs_blocks
 10
0.0
 20
10.839
 30
4.7752
 11
0.0
 21
8.939
 31
4.7752
  0
LINE
 62
0
  8
slabs_blocks
 10
5.996
 20
8.939
 30
4.7752
 11
6.096
 21
8.939
 31
4.7752
  0
LINE
 62
0
  8
slabs_blocks
 10
6.096
 20
8.939
 30
4.7752
 11
6.096
 21
10.839
 31
4.7752
  0
LINE
 62
0
  8
slabs_blocks
 10
6.096
 20
10.839
 30
4.7752
 11
5.996
 21
10.839
 31
4.7752
  0
LINE
 62
0
  8
slabs_blocks
 10
6.096
 20
8.939
 30
4.7752
 11
6.196
 21
8.939
 31
4.7752
  0
LINE
 62
0
  8
slabs_blocks
 10
6.196
 20
8.939
 30
4.7752
 11
6.196
 21
10.839
 31
4.7752
  0
LINE
 62
0
  8
slabs_blocks
 10
6.196
 20
10.839
 30
4.7752
 11
6.096
 21
10.839
 31
4.7752
  0
LINE
 62
0
  8
slabs_blocks
 10
6.196
 20
8.939
 30
4.7752
 11
7.828
 21
8.939
 31
4.7752
  0
LINE
 62
0
  8
slabs_blocks
 10
7.828
 20
8.939
 30
4.7752
 11
7.828
 21
10.839
 31
4.7752
  0
3DFACE
 62
0
  8
slabs_blocks
 10
16.66
 20
10.975
 30
4.7752
 11
20.2708
 21
10.975
 31
4.7752
 12
20.2708
 22
16.02
 32
4.7752
 13
16.66
 23
16.02
 33
4.7752
  0
LINE
 62
0
  8
slabs_blocks
 10
5.996
 20
10.839
 30
4.7752
 11
5.996
 21
10.975
 31
4.7752
  0
LINE
 62
0
  8
slabs_blocks
 10
5.996
 20
10.975
 30
4.7752
 11
0.0
 21
10.975
 31
4.7752
  0
LINE
 62
0
  8
slabs_blocks
 10
0.0
 20
10.975
 30
4.7752
 11
0.0
 21
10.839
 31
4.7752
  0
LINE
 62
0
  8
slabs_blocks
 10
6.096
 20
10.839
 30
4.7752
 11
6.096
 21
10.975
 31
4.7752
  0
3DFACE
 62
0
  8
slabs_blocks
 10
40.3336
 20
42.163
 30
4.7752
 11
42.52
 21
42.163
 31
4.7752
 12
42.52
 22
44.77
 32
4.7752
 13
40.3336
 23
44.77
 33
4.7752
  0
LINE
 62
0
  8
slabs_blocks
 10
6.196
 20
10.839
 30
4.7752
 11
6.196
 21
10.975
 31
4.7752
  0
LINE
 62
0
  8
slabs_blocks
 10
6.196
 20
10.975
 30
4.7752
 11
6.096
 21
10.975
 31
4.7752
  0
3DFACE
 62
0
  8
slabs_blocks
 10
14.1208
 20
16.02
 30
4.7752
 11
16.66
 21
16.02
 31
4.7752
 12
16.66
 22
17.045
 32
4.7752
 13
14.1208
 23
17.045
 33
4.7752
  0
LINE
 62
0
  8
slabs_blocks
 10
7.828
 20
10.975
 30
4.7752
 11
6.196
 21
10.975
 31
4.7752
  0
3DFACE
 62
0
  8
slabs_blocks
 10
20.4708
 20
8.939
 30
4.4196
 11
32.2596
 21
8.939
 31
4.4196
 12
32.2596
 22
10.839
 32
4.4196
 13
20.4708
 23
10.839
 33
4.4196
  0
LINE
 62
0
  8
slabs_blocks
 10
5.996
 20
16.02
 30
4.7752
 11
0.0
 21
16.02
 31
4.7752
  0
LINE
 62
0
  8
slabs_blocks
 10
0.0
 20
16.02
 30
4.7752
 11
0.0
 21
10.975
 31
4.7752
  0
LINE
 62
0
  8
slabs_blocks
 10
6.096
 20
10.975
 30
4.7752
 11
6.096
 21
16.02
 31
4.7752
  0
LINE
 62
0
  8
slabs_blocks
 10
6.096
 20
16.02
 30
4.7752
 11
5.996
 21
16.02
 31
4.7752
  0
LINE
 62
0
  8
slabs_blocks
 10
6.196
 20
10.975
 30
4.7752
 11
6.196
 21
16.02
 31
4.7752
  0
LINE
 62
0
  8
slabs_blocks
 10
6.196
 20
16.02
 30
4.7752
 11
6.096
 21
16.02
 31
4.7752
  0
LINE
 62
0
  8
slabs_blocks
 10
7.828
 20
10.975
 30
4.7752
 11
7.828
 21
16.02
 31
4.7752
  0
LINE
 62
0
  8
slabs_blocks
 10
7.828
 20
16.02
 30
4.7752
 11
6.196
 21
16.02
 31
4.7752
  0
LINE
 62
0
  8
slabs_blocks
 10
5.996
 20
16.02
 30
4.7752
 11
5.996
 21
17.045
 31
4.7752
  0
LINE
 62
0
  8
slabs_blocks
 10
5.996
 20
17.045
 30
4.7752
 11
0.0
 21
17.045
 31
4.7752
  0
LINE
 62
0
  8
slabs_blocks
 10
0.0
 20
17.045
 30
4.7752
 11
0.0
 21
16.02
 31
4.7752
  0
LINE
 62
0
  8
slabs_blocks
 10
6.096
 20
16.02
 30
4.7752
 11
6.096
 21
17.045
 31
4.7752
  0
LINE
 62
0
  8
slabs_blocks
 10
6.096
 20
17.045
 30
4.7752
 11
5.996
 21
17.045
 31
4.7752
  0
LINE
 62
0
  8
slabs_blocks
 10
6.196
 20
16.02
 30
4.7752
 11
6.196
 21
17.045
 31
4.7752
  0
LINE
 62
0
  8
slabs_blocks
 10
6.196
 20
17.045
 30
4.7752
 11
6.096
 21
17.045
 31
4.7752
  0
LINE
 62
0
  8
slabs_blocks
 10
7.828
 20
16.02
 30
4.7752
 11
7.828
 21
17.045
 31
4.7752
  0
LINE
 62
0
  8
slabs_blocks
 10
7.828
 20
17.045
 30
4.7752
 11
6.196
 21
17.045
 31
4.7752
  0
LINE
 62
0
  8
slabs_blocks
 10
0.0
 20
17.245
 30
4.7752
 11
5.996
 21
17.245
 31
4.7752
  0
LINE
 62
0
  8
slabs_blocks
 10
5.996
 20
17.245
 30
4.7752
 11
5.996
 21
25.351
 31
4.7752
  0
LINE
 62
0
  8
slabs_blocks
 10
5.996
 20
25.351
 30
4.7752
 11
0.0
 21
25.351
 31
4.7752
  0
LINE
 62
0
  8
slabs_blocks
 10
0.0
 20
25.351
 30
4.7752
 11
0.0
 21
17.245
 31
4.7752
  0
3DFACE
 62
0
  8
slabs_blocks
 10
11.0
 20
17.245
 30
4.7752
 11
13.9208
 21
17.245
 31
4.7752
 12
13.9208
 22
25.351
 32
4.7752
 13
11.0
 23
25.351
 33
4.7752
  0
LINE
 62
0
  8
slabs_blocks
 10
6.096
 20
17.245
 30
4.7752
 11
6.096
 21
25.351
 31
4.7752
  0
3DFACE
 62
0
  8
slabs_blocks
 10
48.868
 20
33.183
 30
4.7752
 11
53.52
 21
33.183
 31
4.7752
 12
53.52
 22
33.657
 32
4.7752
 13
48.868
 23
33.657
 33
4.7752
  0
LINE
 62
0
  8
slabs_blocks
 10
6.096
 20
17.245
 30
4.7752
 11
6.196
 21
17.245
 31
4.7752
  0
LINE
 62
0
  8
slabs_blocks
 10
6.196
 20
17.245
 30
4.7752
 11
6.196
 21
25.351
 31
4.7752
  0
3DFACE
 62
0
  8
slabs_blocks
 10
32.4596
 20
8.739
 30
4.7752
 11
40.1336
 21
8.739
 31
4.7752
 12
40.1336
 22
8.839
 32
4.7752
 13
32.4596
 23
8.839
 33
4.7752
  0
LINE
 62
0
  8
slabs_blocks
 10
6.196
 20
17.245
 30
4.7752
 11
7.828
 21
17.245
 31
4.7752
  0
3DFACE
 62
0
  8
slabs_blocks
 10
40.3336
 20
44.77
 30
4.4196
 11
42.52
 21
44.77
 31
4.4196
 12
42.52
 22
48.159
 32
4.4196
 13
40.3336
 23
48.159
 33
4.4196
  0
LINE
 62
0
  8
slabs_blocks
 10
7.828
 20
25.351
 30
4.7752
 11
6.196
 21
25.351
 31
4.7752
  0
LINE
 62
0
  8
slabs_blocks
 10
7.828
 20
17.245
 30
4.7752
 11
9.596
 21
17.245
 31
4.7752
  0
LINE
 62
0
  8
slabs_blocks
 10
9.596
 20
17.245
 30
4.7752
 11
9.596
 21
25.351
 31
4.7752
  0
LINE
 62
0
  8
slabs_blocks
 10
9.596
 20
25.351
 30
4.7752
 11
7.828
 21
25.351
 31
4.7752
  0
LINE
 62
0
  8
slabs_blocks
 10
9.596
 20
17.245
 30
4.7752
 11
10.2
 21
17.245
 31
4.7752
  0
LINE
 62
0
  8
slabs_blocks
 10
10.2
 20
17.245
 30
4.7752
 11
10.2
 21
25.351
 31
4.7752
  0
LINE
 62
0
  8
slabs_blocks
 10
10.2
 20
25.351
 30
4.7752
 11
9.596
 21
25.351
 31
4.7752
  0
LINE
 62
0
  8
slabs_blocks
 10
10.2
 20
17.245
 30
4.7752
 11
11.0
 21
17.245
 31
4.7752
  0
LINE
 62
0
  8
slabs_blocks
 10
11.0
 20
17.245
 30
4.7752
 11
11.0
 21
25.351
 31
4.7752
  0
LINE
 62
0
  8
slabs_blocks
 10
11.0
 20
25.351
 30
4.7752
 11
10.2
 21
25.351
 31
4.7752
  0
LINE
 62
0
  8
slabs_blocks
 10
11.0
 20
17.245
 30
4.7752
 11
13.9208
 21
17.245
 31
4.7752
  0
LINE
 62
0
  8
slabs_blocks
 10
13.9208
 20
17.245
 30
4.7752
 11
13.9208
 21
25.351
 31
4.7752
  0
LINE
 62
0
  8
slabs_blocks
 10
13.9208
 20
25.351
 30
4.7752
 11
11.0
 21
25.351
 31
4.7752
  0
LINE
 62
0
  8
slabs_blocks
 10
0.0
 20
25.551
 30
4.7752
 11
5.996
 21
25.551
 31
4.7752
  0
LINE
 62
0
  8
slabs_blocks
 10
5.996
 20
25.551
 30
4.7752
 11
5.996
 21
29.257
 31
4.7752
  0
LINE
 62
0
  8
slabs_blocks
 10
5.996
 20
29.257
 30
4.7752
 11
0.0
 21
29.257
 31
4.7752
  0
3DFACE
 62
0
  8
slabs_blocks
 10
7.828
 20
25.551
 30
4.7752
 11
9.596
 21
25.551
 31
4.7752
 12
9.596
 22
29.257
 32
4.7752
 13
7.828
 23
29.257
 33
4.7752
  0
LINE
 62
0
  8
slabs_blocks
 10
5.996
 20
25.551
 30
4.7752
 11
6.096
 21
25.551
 31
4.7752
  0
3DFACE
 62
0
  8
slabs_blocks
 10
47.52
 20
33.857
 30
4.7752
 11
48.668
 21
33.857
 31
4.7752
 12
48.668
 22
41.963
 32
4.7752
 13
47.52
 23
41.963
 33
4.7752
  0
LINE
 62
0
  8
slabs_blocks
 10
6.096
 20
29.257
 30
4.7752
 11
5.996
 21
29.257
 31
4.7752
  0
3DFACE
 62
0
  8
slabs_blocks
 10
53.52
 20
33.183
 30
4.4196
 11
55.7784
 21
33.183
 31
4.4196
 12
55.7784
 22
33.657
 32
4.4196
 13
53.52
 23
33.657
 33
4.4196
  0
3DFACE
 62
0
  8
slabs_blocks
 10
20.4708
 20
8.939
 30
4.7752
 11
32.2596
 21
8.939
 31
4.7752
 12
32.2596
 22
10.839
 32
4.7752
 13
20.4708
 23
10.839
 33
4.7752
  0
LINE
 62
0
  8
slabs_blocks
 10
6.196
 20
29.257
 30
4.7752
 11
6.096
 21
29.257
 31
4.7752
  0
LINE
 62
0
  8
slabs_blocks
 10
6.196
 20
25.551
 30
4.7752
 11
7.828
 21
25.551
 31
4.7752
  0
3DFACE
 62
0
  8
slabs_blocks
 10
6.196
 20
29.257
 30
4.7752
 11
7.828
 21
29.257
 31
4.7752
 12
7.828
 22
30.373
 32
4.7752
 13
6.196
 23
30.373
 33
4.7752
  0
LINE
 62
0
  8
slabs_blocks
 10
7.828
 20
29.257
 30
4.7752
 11
6.196
 21
29.257
 31
4.7752
  0
LINE
 62
0
  8
slabs_blocks
 10
7.828
 20
25.551
 30
4.7752
 11
9.596
 21
25.551
 31
4.7752
  0
LINE
 62
0
  8
slabs_blocks
 10
9.596
 20
25.551
 30
4.7752
 11
9.596
 21
29.257
 31
4.7752
  0
LINE
 62
0
  8
slabs_blocks
 10
9.596
 20
29.257
 30
4.7752
 11
7.828
 21
29.257
 31
4.7752
  0
LINE
 62
0
  8
slabs_blocks
 10
9.596
 20
25.551
 30
4.7752
 11
10.2
 21
25.551
 31
4.7752
  0
LINE
 62
0
  8
slabs_blocks
 10
10.2
 20
25.551
 30
4.7752
 11
10.2
 21
29.257
 31
4.7752
  0
LINE
 62
0
  8
slabs_blocks
 10
10.2
 20
29.257
 30
4.7752
 11
9.596
 21
29.257
 31
4.7752
  0
3DFACE
 62
0
  8
slabs_blocks
 10
6.096
 20
30.373
 30
4.7752
 11
6.196
 21
30.373
 31
4.7752
 12
6.196
 22
33.183
 32
4.7752
 13
6.096
 23
33.183
 33
4.7752
  0
LINE
 62
0
  8
slabs_blocks
 10
11.0
 20
25.551
 30
4.7752
 11
11.0
 21
29.257
 31
4.7752
  0
LINE
 62
0
  8
slabs_blocks
 10
11.0
 20
29.257
 30
4.7752
 11
10.2
 21
29.257
 31
4.7752
  0
LINE
 62
0
  8
slabs_blocks
 10
11.0
 20
25.551
 30
4.7752
 11
13.9208
 21
25.551
 31
4.7752
  0
LINE
 62
0
  8
slabs_blocks
 10
13.9208
 20
25.551
 30
4.7752
 11
13.9208
 21
29.257
 31
4.7752
  0
LINE
 62
0
  8
slabs_blocks
 10
13.9208
 20
29.257
 30
4.7752
 11
11.0
 21
29.257
 31
4.7752
  0
LINE
 62
0
  8
slabs_blocks
 10
5.996
 20
29.257
 30
4.7752
 11
5.996
 21
30.373
 31
4.7752
  0
LINE
 62
0
  8
slabs_blocks
 10
5.996
 20
30.373
 30
4.7752
 11
0.0
 21
30.373
 31
4.7752
  0
LINE
 62
0
  8
slabs_blocks
 10
0.0
 20
30.373
 30
4.7752
 11
0.0
 21
29.257
 31
4.7752
  0
LINE
 62
0
  8
slabs_blocks
 10
6.096
 20
29.257
 30
4.7752
 11
6.096
 21
30.373
 31
4.7752
  0
3DFACE
 62
0
  8
slabs_blocks
 10
42.52
 20
42.163
 30
4.7752
 11
43.32
 21
42.163
 31
4.7752
 12
43.32
 22
44.77
 32
4.7752
 13
42.52
 23
44.77
 33
4.7752
  0
LINE
 62
0
  8
slabs_blocks
 10
6.196
 20
29.257
 30
4.7752
 11
6.196
 21
30.373
 31
4.7752
  0
LINE
 62
0
  8
slabs_blocks
 10
6.196
 20
30.373
 30
4.7752
 11
6.096
 21
30.373
 31
4.7752
  0
3DFACE
 62
0
  8
slabs_blocks
 10
16.66
 20
16.02
 30
4.7752
 11
20.2708
 21
16.02
 31
4.7752
 12
20.2708
 22
17.045
 32
4.7752
 13
16.66
 23
17.045
 33
4.7752
  0
LINE
 62
0
  8
slabs_blocks
 10
7.828
 20
30.373
 30
4.7752
 11
6.196
 21
30.373
 31
4.7752
  0
LINE
 62
0
  8
slabs_blocks
 10
9.596
 20
29.257
 30
4.7752
 11
9.596
 21
30.373
 31
4.7752
  0
LINE
 62
0
  8
slabs_blocks
 10
9.596
 20
30.373
 30
4.7752
 11
7.828
 21
30.373
 31
4.7752
  0
LINE
 62
0
  8
slabs_blocks
 10
10.2
 20
29.257
 30
4.7752
 11
10.2
 21
30.373
 31
4.7752
  0
LINE
 62
0
  8
slabs_blocks
 10
10.2
 20
30.373
 30
4.7752
 11
9.596
 21
30.373
 31
4.7752
  0
LINE
 62
0
  8
slabs_blocks
 10
11.0
 20
29.257
 30
4.7752
 11
11.0
 21
30.373
 31
4.7752
  0
LINE
 62
0
  8
slabs_blocks
 10
11.0
 20
30.373
 30
4.7752
 11
10.2
 21
30.373
 31
4.7752
  0
3DFACE
 62
0
  8
slabs_blocks
 10
14.1208
 20
17.045
 30
4.7752
 11
16.66
 21
17.045
 31
4.7752
 12
16.66
 22
17.145
 32
4.7752
 13
14.1208
 23
17.145
 33
4.7752
  0
LINE
 62
0
  8
slabs_blocks
 10
13.9208
 20
30.373
 30
4.7752
 11
11.0
 21
30.373
 31
4.7752
  0
3DFACE
 62
0
  8
slabs_blocks
 10
20.4708
 20
10.839
 30
4.4196
 11
32.2596
 21
10.839
 31
4.4196
 12
32.2596
 22
10.975
 32
4.4196
 13
20.4708
 23
10.975
 33
4.4196
  0
LINE
 62
0
  8
slabs_blocks
 10
6.196
 20
33.183
 30
4.7752
 11
6.096
 21
33.183
 31
4.7752
  0
LINE
 62
0
  8
slabs_blocks
 10
6.096
 20
33.183
 30
4.7752
 11
6.096
 21
30.373
 31
4.7752
  0
LINE
 62
0
  8
slabs_blocks
 10
7.828
 20
30.373
 30
4.7752
 11
7.828
 21
33.183
 31
4.7752
  0
LINE
 62
0
  8
slabs_blocks
 10
7.828
 20
33.183
 30
4.7752
 11
6.196
 21
33.183
 31
4.7752
  0
LINE
 62
0
  8
slabs_blocks
 10
9.596
 20
30.373
 30
4.7752
 11
9.596
 21
33.183
 31
4.7752
  0
LINE
 62
0
  8
slabs_blocks
 10
9.596
 20
33.183
 30
4.7752
 11
7.828
 21
33.183
 31
4.7752
  0
LINE
 62
0
  8
slabs_blocks
 10
10.2
 20
30.373
 30
4.7752
 11
10.2
 21
33.183
 31
4.7752
  0
LINE
 62
0
  8
slabs_blocks
 10
10.2
 20
33.183
 30
4.7752
 11
9.596
 21
33.183
 31
4.7752
  0
LINE
 62
0
  8
slabs_blocks
 10
11.0
 20
30.373
 30
4.7752
 11
11.0
 21
33.183
 31
4.7752
  0
LINE
 62
0
  8
slabs_blocks
 10
11.0
 20
33.183
 30
4.7752
 11
10.2
 21
33.183
 31
4.7752
  0
LINE
 62
0
  8
slabs_blocks
 10
13.9208
 20
30.373
 30
4.7752
 11
13.9208
 21
33.183
 31
4.7752
  0
LINE
 62
0
  8
slabs_blocks
 10
13.9208
 20
33.183
 30
4.7752
 11
11.0
 21
33.183
 31
4.7752
  0
LINE
 62
0
  8
slabs_blocks
 10
6.196
 20
33.183
 30
4.7752
 11
6.196
 21
33.657
 31
4.7752
  0
LINE
 62
0
  8
slabs_blocks
 10
6.196
 20
33.657
 30
4.7752
 11
6.096
 21
33.657
 31
4.7752
  0
LINE
 62
0
  8
slabs_blocks
 10
6.096
 20
33.657
 30
4.7752
 11
6.096
 21
33.183
 31
4.7752
  0
LINE
 62
0
  8
slabs_blocks
 10
7.828
 20
33.183
 30
4.7752
 11
7.828
 21
33.657
 31
4.7752
  0
LINE
 62
0
  8
slabs_blocks
 10
7.828
 20
33.657
 30
4.7752
 11
6.196
 21
33.657
 31
4.7752
  0
LINE
 62
0
  8
slabs_blocks
 10
9.596
 20
33.183
 30
4.7752
 11
9.596
 21
33.657
 31
4.7752
  0
LINE
 62
0
  8
slabs_blocks
 10
9.596
 20
33.657
 30
4.7752
 11
7.828
 21
33.657
 31
4.7752
  0
LINE
 62
0
  8
slabs_blocks
 10
10.2
 20
33.183
 30
4.7752
 11
10.2
 21
33.657
 31
4.7752
  0
3DFACE
 62
0
  8
slabs_blocks
 10
42.52
 20
44.77
 30
4.4196
 11
43.32
 21
44.77
 31
4.4196
 12
43.32
 22
48.159
 32
4.4196
 13
42.52
 23
48.159
 33
4.4196
  0
LINE
 62
0
  8
slabs_blocks
 10
11.0
 20
33.183
 30
4.7752
 11
11.0
 21
33.657
 31
4.7752
  0
LINE
 62
0
  8
slabs_blocks
 10
11.0
 20
33.657
 30
4.7752
 11
10.2
 21
33.657
 31
4.7752
  0
3DFACE
 62
0
  8
slabs_blocks
 10
48.868
 20
33.657
 30
4.7752
 11
53.52
 21
33.657
 31
4.7752
 12
53.52
 22
33.757
 32
4.7752
 13
48.868
 23
33.757
 33
4.7752
  0
LINE
 62
0
  8
slabs_blocks
 10
13.9208
 20
33.657
 30
4.7752
 11
11.0
 21
33.657
 31
4.7752
  0
LINE
 62
0
  8
slabs_blocks
 10
0.0
 20
33.857
 30
4.7752
 11
5.996
 21
33.857
 31
4.7752
  0
3DFACE
 62
0
  8
slabs_blocks
 10
32.4596
 20
8.839
 30
4.7752
 11
40.1336
 21
8.839
 31
4.7752
 12
40.1336
 22
8.875
 32
4.7752
 13
32.4596
 23
8.875
 33
4.7752
  0
LINE
 62
0
  8
slabs_blocks
 10
5.996
 20
41.963
 30
4.7752
 11
0.0
 21
41.963
 31
4.7752
  0
LINE
 62
0
  8
slabs_blocks
 10
0.0
 20
41.963
 30
4.7752
 11
0.0
 21
33.857
 31
4.7752
  0
LINE
 62
0
  8
slabs_blocks
 10
5.996
 20
33.857
 30
4.7752
 11
6.096
 21
33.857
 31
4.7752
  0
LINE
 62
0
  8
slabs_blocks
 10
6.096
 20
33.857
 30
4.7752
 11
6.096
 21
41.963
 31
4.7752
  0
LINE
 62
0
  8
slabs_blocks
 10
6.096
 20
41.963
 30
4.7752
 11
5.996
 21
41.963
 31
4.7752
  0
LINE
 62
0
  8
slabs_blocks
 10
6.096
 20
33.857
 30
4.7752
 11
6.196
 21
33.857
 31
4.7752
  0
LINE
 62
0
  8
slabs_blocks
 10
6.196
 20
33.857
 30
4.7752
 11
6.196
 21
41.963
 31
4.7752
  0
LINE
 62
0
  8
slabs_blocks
 10
6.196
 20
41.963
 30
4.7752
 11
6.096
 21
41.963
 31
4.7752
  0
LINE
 62
0
  8
slabs_blocks
 10
6.196
 20
33.857
 30
4.7752
 11
7.828
 21
33.857
 31
4.7752
  0
LINE
 62
0
  8
slabs_blocks
 10
7.828
 20
33.857
 30
4.7752
 11
7.828
 21
41.963
 31
4.7752
  0
3DFACE
 62
0
  8
slabs_blocks
 10
9.596
 20
25.551
 30
4.7752
 11
10.2
 21
25.551
 31
4.7752
 12
10.2
 22
29.257
 32
4.7752
 13
9.596
 23
29.257
 33
4.7752
  0
LINE
 62
0
  8
slabs_blocks
 10
7.828
 20
33.857
 30
4.7752
 11
9.596
 21
33.857
 31
4.7752
  0
LINE
 62
0
  8
slabs_blocks
 10
9.596
 20
33.857
 30
4.7752
 11
9.596
 21
41.963
 31
4.7752
  0
LINE
 62
0
  8
slabs_blocks
 10
9.596
 20
41.963
 30
4.7752
 11
7.828
 21
41.963
 31
4.7752
  0
LINE
 62
0
  8
slabs_blocks
 10
9.596
 20
33.857
 30
4.7752
 11
10.2
 21
33.857
 31
4.7752
  0
LINE
 62
0
  8
slabs_blocks
 10
10.2
 20
33.857
 30
4.7752
 11
10.2
 21
41.963
 31
4.7752
  0
LINE
 62
0
  8
slabs_blocks
 10
10.2
 20
41.963
 30
4.7752
 11
9.596
 21
41.963
 31
4.7752
  0
LINE
 62
0
  8
slabs_blocks
 10
10.2
 20
33.857
 30
4.7752
 11
11.0
 21
33.857
 31
4.7752
  0
3DFACE
 62
0
  8
slabs_blocks
 10
7.828
 20
29.257
 30
4.7752
 11
9.596
 21
29.257
 31
4.7752
 12
9.596
 22
30.373
 32
4.7752
 13
7.828
 23
30.373
 33
4.7752
  0
LINE
 62
0
  8
slabs_blocks
 10
11.0
 20
41.963
 30
4.7752
 11
10.2
 21
41.963
 31
4.7752
  0
LINE
 62
0
  8
slabs_blocks
 10
11.0
 20
33.857
 30
4.7752
 11
13.9208
 21
33.857
 31
4.7752
  0
LINE
 62
0
  8
slabs_blocks
 10
13.9208
 20
33.857
 30
4.7752
 11
13.9208
 21
41.963
 31
4.7752
  0
3DFACE
 62
0
  8
slabs_blocks
 10
53.52
 20
33.657
 30
4.4196
 11
55.7784
 21
33.657
 31
4.4196
 12
55.7784
 22
33.757
 32
4.4196
 13
53.52
 23
33.757
 33
4.4196
  0
3DFACE
 62
0
  8
slabs_blocks
 10
20.4708
 20
10.839
 30
4.7752
 11
32.2596
 21
10.839
 31
4.7752
 12
32.2596
 22
10.975
 32
4.7752
 13
20.4708
 23
10.975
 33
4.7752
  0
LINE
 62
0
  8
slabs_blocks
 10
5.996
 20
42.163
 30
4.7752
 11
5.996
 21
44.77
 31
4.7752
  0
LINE
 62
0
  8
slabs_blocks
 10
5.996
 20
44.77
 30
4.7752
 11
0.0
 21
44.77
 31
4.7752
  0
3DFACE
 62
0
  8
slabs_blocks
 10
6.196
 20
30.373
 30
4.7752
 11
7.828
 21
30.373
 31
4.7752
 12
7.828
 22
33.183
 32
4.7752
 13
6.196
 23
33.183
 33
4.7752
  0
LINE
 62
0
  8
slabs_blocks
 10
5.996
 20
42.163
 30
4.7752
 11
6.096
 21
42.163
 31
4.7752
  0
LINE
 62
0
  8
slabs_blocks
 10
6.096
 20
42.163
 30
4.7752
 11
6.096
 21
44.77
 31
4.7752
  0
LINE
 62
0
  8
slabs_blocks
 10
6.096
 20
44.77
 30
4.7752
 11
5.996
 21
44.77
 31
4.7752
  0
LINE
 62
0
  8
slabs_blocks
 10
6.096
 20
42.163
 30
4.7752
 11
6.196
 21
42.163
 31
4.7752
  0
LINE
 62
0
  8
slabs_blocks
 10
6.196
 20
42.163
 30
4.7752
 11
6.196
 21
44.77
 31
4.7752
  0
LINE
 62
0
  8
slabs_blocks
 10
6.196
 20
44.77
 30
4.7752
 11
6.096
 21
44.77
 31
4.7752
  0
LINE
 62
0
  8
slabs_blocks
 10
6.196
 20
42.163
 30
4.7752
 11
7.828
 21
42.163
 31
4.7752
  0
3DFACE
 62
0
  8
slabs_blocks
 10
6.096
 20
33.183
 30
4.7752
 11
6.196
 21
33.183
 31
4.7752
 12
6.196
 22
33.657
 32
4.7752
 13
6.096
 23
33.657
 33
4.7752
  0
LINE
 62
0
  8
slabs_blocks
 10
7.828
 20
44.77
 30
4.7752
 11
6.196
 21
44.77
 31
4.7752
  0
3DFACE
 62
0
  8
slabs_blocks
 10
43.32
 20
42.163
 30
4.7752
 11
43.92
 21
42.163
 31
4.7752
 12
43.92
 22
44.77
 32
4.7752
 13
43.32
 23
44.77
 33
4.7752
  0
LINE
 62
0
  8
slabs_blocks
 10
9.596
 20
42.163
 30
4.7752
 11
9.596
 21
44.77
 31
4.7752
  0
LINE
 62
0
  8
slabs_blocks
 10
9.596
 20
44.77
 30
4.7752
 11
7.828
 21
44.77
 31
4.7752
  0
LINE
 62
0
  8
slabs_blocks
 10
9.596
 20
42.163
 30
4.7752
 11
10.2
 21
42.163
 31
4.7752
  0
LINE
 62
0
  8
slabs_blocks
 10
10.2
 20
42.163
 30
4.7752
 11
10.2
 21
44.77
 31
4.7752
  0
LINE
 62
0
  8
slabs_blocks
 10
10.2
 20
44.77
 30
4.7752
 11
9.596
 21
44.77
 31
4.7752
  0
LINE
 62
0
  8
slabs_blocks
 10
10.2
 20
42.163
 30
4.7752
 11
11.0
 21
42.163
 31
4.7752
  0
LINE
 62
0
  8
slabs_blocks
 10
11.0
 20
42.163
 30
4.7752
 11
11.0
 21
44.77
 31
4.7752
  0
LINE
 62
0
  8
slabs_blocks
 10
11.0
 20
44.77
 30
4.7752
 11
10.2
 21
44.77
 31
4.7752
  0
LINE
 62
0
  8
slabs_blocks
 10
11.0
 20
42.163
 30
4.7752
 11
13.9208
 21
42.163
 31
4.7752
  0
LINE
 62
0
  8
slabs_blocks
 10
13.9208
 20
42.163
 30
4.7752
 11
13.9208
 21
44.77
 31
4.7752
  0
3DFACE
 62
0
  8
slabs_blocks
 10
16.66
 20
17.045
 30
4.7752
 11
20.2708
 21
17.045
 31
4.7752
 12
20.2708
 22
17.145
 32
4.7752
 13
16.66
 23
17.145
 33
4.7752
  0
LINE
 62
0
  8
slabs_blocks
 10
13.9208
 20
42.163
 30
4.7752
 11
14.0208
 21
42.163
 31
4.7752
  0
LINE
 62
0
  8
slabs_blocks
 10
14.0208
 20
42.163
 30
4.7752
 11
14.0208
 21
44.77
 31
4.7752
  0
LINE
 62
0
  8
slabs_blocks
 10
14.0208
 20
44.77
 30
4.7752
 11
13.9208
 21
44.77
 31
4.7752
  0
LINE
 62
0
  8
slabs_blocks
 10
14.0208
 20
42.163
 30
4.7752
 11
14.1208
 21
42.163
 31
4.7752
  0
LINE
 62
0
  8
slabs_blocks
 10
14.1208
 20
42.163
 30
4.7752
 11
14.1208
 21
44.77
 31
4.7752
  0
LINE
 62
0
  8
slabs_blocks
 10
14.1208
 20
44.77
 30
4.7752
 11
14.0208
 21
44.77
 31
4.7752
  0
LINE
 62
0
  8
slabs_blocks
 10
14.1208
 20
42.163
 30
4.7752
 11
16.66
 21
42.163
 31
4.7752
  0
3DFACE
 62
0
  8
slabs_blocks
 10
14.1208
 20
17.145
 30
4.7752
 11
16.66
 21
17.145
 31
4.7752
 12
16.66
 22
17.245
 32
4.7752
 13
14.1208
 23
17.245
 33
4.7752
  0
LINE
 62
0
  8
slabs_blocks
 10
16.66
 20
44.77
 30
4.7752
 11
14.1208
 21
44.77
 31
4.7752
  0
3DFACE
 62
0
  8
slabs_blocks
 10
20.4708
 20
10.975
 30
4.4196
 11
32.2596
 21
10.975
 31
4.4196
 12
32.2596
 22
16.02
 32
4.4196
 13
20.4708
 23
16.02
 33
4.4196
  0
LINE
 62
0
  8
slabs_blocks
 10
20.2708
 20
42.163
 30
4.7752
 11
20.2708
 21
44.77
 31
4.7752
  0
3DFACE
 62
0
  8
slabs_blocks
 10
0.0
 20
44.77
 30
4.4196
 11
5.996
 21
44.77
 31
4.4196
 12
5.996
 22
48.159
 32
4.4196
 13
0.0
 23
48.159
 33
4.4196
  0
3DFACE
 62
0
  8
slabs_blocks
 10
40.3336
 20
0.0
 30
4.7752
 11
42.52
 21
0.0
 31
4.7752
 12
42.52
 22
8.739
 32
4.7752
 13
40.3336
 23
8.739
 33
4.7752
  0
LINE
 62
0
  8
slabs_blocks
 10
40.1336
 20
42.163
 30
4.7752
 11
40.1336
 21
44.77
 31
4.7752
  0
LINE
 62
0
  8
slabs_blocks
 10
40.1336
 20
44.77
 30
4.7752
 11
32.4596
 21
44.77
 31
4.7752
  0
LINE
 62
0
  8
slabs_blocks
 10
32.4596
 20
44.77
 30
4.7752
 11
32.4596
 21
42.163
 31
4.7752
  0
LINE
 62
0
  8
slabs_blocks
 10
40.1336
 20
42.163
 30
4.7752
 11
40.2336
 21
42.163
 31
4.7752
  0
LINE
 62
0
  8
slabs_blocks
 10
40.2336
 20
42.163
 30
4.7752
 11
40.2336
 21
44.77
 31
4.7752
  0
LINE
 62
0
  8
slabs_blocks
 10
40.2336
 20
44.77
 30
4.7752
 11
40.1336
 21
44.77
 31
4.7752
  0
LINE
 62
0
  8
slabs_blocks
 10
40.2336
 20
42.163
 30
4.7752
 11
40.3336
 21
42.163
 31
4.7752
  0
LINE
 62
0
  8
slabs_blocks
 10
40.3336
 20
42.163
 30
4.7752
 11
40.3336
 21
44.77
 31
4.7752
  0
LINE
 62
0
  8
slabs_blocks
 10
40.3336
 20
44.77
 30
4.7752
 11
40.2336
 21
44.77
 31
4.7752
  0
3DFACE
 62
0
  8
slabs_blocks
 10
43.32
 20
44.77
 30
4.4196
 11
43.92
 21
44.77
 31
4.4196
 12
43.92
 22
48.159
 32
4.4196
 13
43.32
 23
48.159
 33
4.4196
  0
LINE
 62
0
  8
slabs_blocks
 10
42.52
 20
42.163
 30
4.7752
 11
42.52
 21
44.77
 31
4.7752
  0
LINE
 62
0
  8
slabs_blocks
 10
42.52
 20
44.77
 30
4.7752
 11
40.3336
 21
44.77
 31
4.7752
  0
LINE
 62
0
  8
slabs_blocks
 10
42.52
 20
42.163
 30
4.7752
 11
43.32
 21
42.163
 31
4.7752
  0
LINE
 62
0
  8
slabs_blocks
 10
43.32
 20
42.163
 30
4.7752
 11
43.32
 21
44.77
 31
4.7752
  0
LINE
 62
0
  8
slabs_blocks
 10
43.32
 20
44.77
 30
4.7752
 11
42.52
 21
44.77
 31
4.7752
  0
LINE
 62
0
  8
slabs_blocks
 10
43.32
 20
42.163
 30
4.7752
 11
43.92
 21
42.163
 31
4.7752
  0
LINE
 62
0
  8
slabs_blocks
 10
43.92
 20
42.163
 30
4.7752
 11
43.92
 21
44.77
 31
4.7752
  0
LINE
 62
0
  8
slabs_blocks
 10
43.92
 20
44.77
 30
4.7752
 11
43.32
 21
44.77
 31
4.7752
  0
LINE
 62
0
  8
slabs_blocks
 10
43.92
 20
42.163
 30
4.7752
 11
47.52
 21
42.163
 31
4.7752
  0
LINE
 62
0
  8
slabs_blocks
 10
47.52
 20
42.163
 30
4.7752
 11
47.52
 21
44.77
 31
4.7752
  0
3DFACE
 62
0
  8
slabs_blocks
 10
48.868
 20
33.757
 30
4.7752
 11
53.52
 21
33.757
 31
4.7752
 12
53.52
 22
33.857
 32
4.7752
 13
48.868
 23
33.857
 33
4.7752
  0
LINE
 62
0
  8
slabs_blocks
 10
47.52
 20
42.163
 30
4.7752
 11
48.668
 21
42.163
 31
4.7752
  0
LINE
 62
0
  8
slabs_blocks
 10
48.668
 20
42.163
 30
4.7752
 11
48.668
 21
44.77
 31
4.7752
  0
3DFACE
 62
0
  8
slabs_blocks
 10
32.4596
 20
8.875
 30
4.7752
 11
40.1336
 21
8.875
 31
4.7752
 12
40.1336
 22
8.939
 32
4.7752
 13
32.4596
 23
8.939
 33
4.7752
  0
LINE
 62
0
  8
slabs_blocks
 10
48.668
 20
42.163
 30
4.7752
 11
48.768
 21
42.163
 31
4.7752
  0
LINE
 62
0
  8
slabs_blocks
 10
48.768
 20
42.163
 30
4.7752
 11
48.768
 21
44.77
 31
4.7752
  0
3DFACE
 62
0
  8
slabs_blocks
 10
10.2
 20
25.551
 30
4.7752
 11
11.0
 21
25.551
 31
4.7752
 12
11.0
 22
29.257
 32
4.7752
 13
10.2
 23
29.257
 33
4.7752
  0
LINE
 62
0
  8
slabs_blocks
 10
48.768
 20
42.163
 30
4.7752
 11
48.868
 21
42.163
 31
4.7752
  0
LINE
 62
0
  8
slabs_blocks
 10
48.868
 20
42.163
 30
4.7752
 11
48.868
 21
44.77
 31
4.7752
  0
LINE
 62
0
  8
slabs_blocks
 10
48.868
 20
44.77
 30
4.7752
 11
48.768
 21
44.77
 31
4.7752
  0
LINE
 62
0
  8
slabs_blocks
 10
48.868
 20
42.163
 30
4.7752
 11
53.52
 21
42.163
 31
4.7752
  0
LINE
 62
0
  8
slabs_blocks
 10
53.52
 20
42.163
 30
4.7752
 11
53.52
 21
44.77
 31
4.7752
  0
LINE
 62
0
  8
slabs_blocks
 10
53.52
 20
44.77
 30
4.7752
 11
48.868
 21
44.77
 31
4.7752
  0
LINE
 62
0
  8
slabs_blocks
 10
16.66
 20
0.0
 30
4.7752
 11
20.2708
 21
0.0
 31
4.7752
  0
3DFACE
 62
0
  8
slabs_blocks
 10
9.596
 20
29.257
 30
4.7752
 11
10.2
 21
29.257
 31
4.7752
 12
10.2
 22
30.373
 32
4.7752
 13
9.596
 23
30.373
 33
4.7752
  0
LINE
 62
0
  8
slabs_blocks
 10
20.2708
 20
8.739
 30
4.7752
 11
16.66
 21
8.739
 31
4.7752
  0
LINE
 62
0
  8
slabs_blocks
 10
16.66
 20
8.739
 30
4.7752
 11
16.66
 21
0.0
 31
4.7752
  0
LINE
 62
0
  8
slabs_blocks
 10
20.2708
 20
8.739
 30
4.7752
 11
20.2708
 21
8.839
 31
4.7752
  0
LINE
 62
0
  8
slabs_blocks
 10
20.2708
 20
8.839
 30
4.7752
 11
16.66
 21
8.839
 31
4.7752
  0
LINE
 62
0
  8
slabs_blocks
 10
16.66
 20
8.839
 30
4.7752
 11
16.66
 21
8.739
 31
4.7752
  0
LINE
 62
0
  8
slabs_blocks
 10
14.1208
 20
8.839
 30
4.7752
 11
16.66
 21
8.839
 31
4.7752
  0
LINE
 62
0
  8
slabs_blocks
 10
16.66
 20
8.839
 30
4.7752
 11
16.66
 21
8.875
 31
4.7752
  0
3DFACE
 62
0
  8
slabs_blocks
 10
7.828
 20
30.373
 30
4.7752
 11
9.596
 21
30.373
 31
4.7752
 12
9.596
 22
33.183
 32
4.7752
 13
7.828
 23
33.183
 33
4.7752
  0
LINE
 62
0
  8
slabs_blocks
 10
14.1208
 20
8.875
 30
4.7752
 11
14.1208
 21
8.839
 31
4.7752
  0
LINE
 62
0
  8
slabs_blocks
 10
20.2708
 20
8.839
 30
4.7752
 11
20.2708
 21
8.875
 31
4.7752
  0
LINE
 62
0
  8
slabs_blocks
 10
20.2708
 20
8.875
 30
4.7752
 11
16.66
 21
8.875
 31
4.7752
  0
3DFACE
 62
0
  8
slabs_blocks
 10
53.52
 20
33.757
 30
4.4196
 11
55.7784
 21
33.757
 31
4.4196
 12
55.7784
 22
33.857
 32
4.4196
 13
53.52
 23
33.857
 33
4.4196
  0
LINE
 62
0
  8
slabs_blocks
 10
16.66
 20
8.939
 30
4.7752
 11
14.1208
 21
8.939
 31
4.7752
  0
LINE
 62
0
  8
slabs_blocks
 10
14.1208
 20
8.939
 30
4.7752
 11
14.1208
 21
8.875
 31
4.7752
  0
LINE
 62
0
  8
slabs_blocks
 10
20.2708
 20
8.875
 30
4.7752
 11
20.2708
 21
8.939
 31
4.7752
  0
3DFACE
 62
0
  8
slabs_blocks
 10
6.196
 20
33.183
 30
4.7752
 11
7.828
 21
33.183
 31
4.7752
 12
7.828
 22
33.657
 32
4.7752
 13
6.196
 23
33.657
 33
4.7752
  0
LINE
 62
0
  8
slabs_blocks
 10
16.66
 20
8.939
 30
4.7752
 11
16.66
 21
10.839
 31
4.7752
  0
3DFACE
 62
0
  8
slabs_blocks
 10
43.92
 20
42.163
 30
4.7752
 11
47.52
 21
42.163
 31
4.7752
 12
47.52
 22
44.77
 32
4.7752
 13
43.92
 23
44.77
 33
4.7752
  0
LINE
 62
0
  8
slabs_blocks
 10
14.1208
 20
10.839
 30
4.7752
 11
14.1208
 21
8.939
 31
4.7752
  0
LINE
 62
0
  8
slabs_blocks
 10
20.2708
 20
8.939
 30
4.7752
 11
20.2708
 21
10.839
 31
4.7752
  0
LINE
 62
0
  8
slabs_blocks
 10
20.2708
 20
10.839
 30
4.7752
 11
16.66
 21
10.839
 31
4.7752
  0
LINE
 62
0
  8
slabs_blocks
 10
16.66
 20
10.839
 30
4.7752
 11
16.66
 21
10.975
 31
4.7752
  0
LINE
 62
0
  8
slabs_blocks
 10
16.66
 20
10.975
 30
4.7752
 11
14.1208
 21
10.975
 31
4.7752
  0
LINE
 62
0
  8
slabs_blocks
 10
14.1208
 20
10.975
 30
4.7752
 11
14.1208
 21
10.839
 31
4.7752
  0
LINE
 62
0
  8
slabs_blocks
 10
20.2708
 20
10.839
 30
4.7752
 11
20.2708
 21
10.975
 31
4.7752
  0
LINE
 62
0
  8
slabs_blocks
 10
20.2708
 20
10.975
 30
4.7752
 11
16.66
 21
10.975
 31
4.7752
  0
LINE
 62
0
  8
slabs_blocks
 10
16.66
 20
10.975
 30
4.7752
 11
16.66
 21
16.02
 31
4.7752
  0
LINE
 62
0
  8
slabs_blocks
 10
16.66
 20
16.02
 30
4.7752
 11
14.1208
 21
16.02
 31
4.7752
  0
LINE
 62
0
  8
slabs_blocks
 10
14.1208
 20
16.02
 30
4.7752
 11
14.1208
 21
10.975
 31
4.7752
  0
LINE
 62
0
  8
slabs_blocks
 10
20.2708
 20
10.975
 30
4.7752
 11
20.2708
 21
16.02
 31
4.7752
  0
LINE
 62
0
  8
slabs_blocks
 10
20.2708
 20
16.02
 30
4.7752
 11
16.66
 21
16.02
 31
4.7752
  0
LINE
 62
0
  8
slabs_blocks
 10
16.66
 20
16.02
 30
4.7752
 11
16.66
 21
17.045
 31
4.7752
  0
LINE
 62
0
  8
slabs_blocks
 10
16.66
 20
17.045
 30
4.7752
 11
14.1208
 21
17.045
 31
4.7752
  0
LINE
 62
0
  8
slabs_blocks
 10
14.1208
 20
17.045
 30
4.7752
 11
14.1208
 21
16.02
 31
4.7752
  0
LINE
 62
0
  8
slabs_blocks
 10
20.2708
 20
16.02
 30
4.7752
 11
20.2708
 21
17.045
 31
4.7752
  0
LINE
 62
0
  8
slabs_blocks
 10
20.2708
 20
17.045
 30
4.7752
 11
16.66
 21
17.045
 31
4.7752
  0
3DFACE
 62
0
  8
slabs_blocks
 10
16.66
 20
17.145
 30
4.7752
 11
20.2708
 21
17.145
 31
4.7752
 12
20.2708
 22
17.245
 32
4.7752
 13
16.66
 23
17.245
 33
4.7752
  0
LINE
 62
0
  8
slabs_blocks
 10
20.2708
 20
0.0
 30
4.7752
 11
20.2708
 21
8.739
 31
4.7752
  0
LINE
 62
0
  8
slabs_blocks
 10
14.1208
 20
17.145
 30
4.7752
 11
14.1208
 21
17.045
 31
4.7752
  0
3DFACE
 62
0
  8
slabs_blocks
 10
0.0
 20
33.857
 30
4.7752
 11
5.996
 21
33.857
 31
4.7752
 12
5.996
 22
41.963
 32
4.7752
 13
0.0
 23
41.963
 33
4.7752
  0
LINE
 62
0
  8
slabs_blocks
 10
20.2708
 20
17.145
 30
4.7752
 11
16.66
 21
17.145
 31
4.7752
  0
3DFACE
 62
0
  8
slabs_blocks
 10
42.52
 20
0.0
 30
4.7752
 11
43.32
 21
0.0
 31
4.7752
 12
43.32
 22
8.739
 32
4.7752
 13
42.52
 23
8.739
 33
4.7752
  0
LINE
 62
0
  8
slabs_blocks
 10
16.66
 20
17.245
 30
4.7752
 11
14.1208
 21
17.245
 31
4.7752
  0
LINE
 62
0
  8
slabs_blocks
 10
14.1208
 20
17.245
 30
4.7752
 11
14.1208
 21
17.145
 31
4.7752
  0
3DFACE
 62
0
  8
slabs_blocks
 10
14.1208
 20
17.245
 30
4.7752
 11
16.66
 21
17.245
 31
4.7752
 12
16.66
 22
25.351
 32
4.7752
 13
14.1208
 23
25.351
 33
4.7752
  0
LINE
 62
0
  8
slabs_blocks
 10
20.2708
 20
17.245
 30
4.7752
 11
16.66
 21
17.245
 31
4.7752
  0
3DFACE
 62
0
  8
slabs_blocks
 10
20.4708
 20
16.02
 30
4.4196
 11
32.2596
 21
16.02
 31
4.4196
 12
32.2596
 22
17.045
 32
4.4196
 13
20.4708
 23
17.045
 33
4.4196
  0
LINE
 62
0
  8
slabs_blocks
 10
16.66
 20
25.351
 30
4.7752
 11
14.1208
 21
25.351
 31
4.7752
  0
LINE
 62
0
  8
slabs_blocks
 10
14.1208
 20
25.351
 30
4.7752
 11
14.1208
 21
17.245
 31
4.7752
  0
3DFACE
 62
0
  8
slabs_blocks
 10
40.3336
 20
8.739
 30
4.7752
 11
42.52
 21
8.739
 31
4.7752
 12
42.52
 22
8.839
 32
4.7752
 13
40.3336
 23
8.839
 33
4.7752
  0
LINE
 62
0
  8
slabs_blocks
 10
20.2708
 20
25.351
 30
4.7752
 11
16.66
 21
25.351
 31
4.7752
  0
3DFACE
 62
0
  8
slabs_blocks
 10
43.92
 20
44.77
 30
4.4196
 11
47.52
 21
44.77
 31
4.4196
 12
47.52
 22
48.159
 32
4.4196
 13
43.92
 23
48.159
 33
4.4196
  0
LINE
 62
0
  8
slabs_blocks
 10
16.66
 20
25.451
 30
4.7752
 11
14.1208
 21
25.451
 31
4.7752
  0
LINE
 62
0
  8
slabs_blocks
 10
14.1208
 20
25.451
 30
4.7752
 11
14.1208
 21
25.351
 31
4.7752
  0
LINE
 62
0
  8
slabs_blocks
 10
20.2708
 20
25.351
 30
4.7752
 11
20.2708
 21
25.451
 31
4.7752
  0
LINE
 62
0
  8
slabs_blocks
 10
20.2708
 20
25.451
 30
4.7752
 11
16.66
 21
25.451
 31
4.7752
  0
LINE
 62
0
  8
slabs_blocks
 10
16.66
 20
25.451
 30
4.7752
 11
16.66
 21
25.551
 31
4.7752
  0
LINE
 62
0
  8
slabs_blocks
 10
16.66
 20
25.551
 30
4.7752
 11
14.1208
 21
25.551
 31
4.7752
  0
LINE
 62
0
  8
slabs_blocks
 10
14.1208
 20
25.551
 30
4.7752
 11
14.1208
 21
25.451
 31
4.7752
  0
LINE
 62
0
  8
slabs_blocks
 10
20.2708
 20
25.451
 30
4.7752
 11
20.2708
 21
25.551
 31
4.7752
  0
LINE
 62
0
  8
slabs_blocks
 10
20.2708
 20
25.551
 30
4.7752
 11
16.66
 21
25.551
 31
4.7752
  0
LINE
 62
0
  8
slabs_blocks
 10
16.66
 20
25.551
 30
4.7752
 11
16.66
 21
29.257
 31
4.7752
  0
LINE
 62
0
  8
slabs_blocks
 10
16.66
 20
29.257
 30
4.7752
 11
14.1208
 21
29.257
 31
4.7752
  0
LINE
 62
0
  8
slabs_blocks
 10
14.1208
 20
29.257
 30
4.7752
 11
14.1208
 21
25.551
 31
4.7752
  0
LINE
 62
0
  8
slabs_blocks
 10
20.2708
 20
25.551
 30
4.7752
 11
20.2708
 21
29.257
 31
4.7752
  0
LINE
 62
0
  8
slabs_blocks
 10
20.2708
 20
29.257
 30
4.7752
 11
16.66
 21
29.257
 31
4.7752
  0
LINE
 62
0
  8
slabs_blocks
 10
16.66
 20
29.257
 30
4.7752
 11
16.66
 21
30.373
 31
4.7752
  0
LINE
 62
0
  8
slabs_blocks
 10
16.66
 20
30.373
 30
4.7752
 11
14.1208
 21
30.373
 31
4.7752
  0
3DFACE
 62
0
  8
slabs_blocks
 10
11.0
 20
25.551
 30
4.7752
 11
13.9208
 21
25.551
 31
4.7752
 12
13.9208
 22
29.257
 32
4.7752
 13
11.0
 23
29.257
 33
4.7752
  0
LINE
 62
0
  8
slabs_blocks
 10
20.2708
 20
29.257
 30
4.7752
 11
20.2708
 21
30.373
 31
4.7752
  0
3DFACE
 62
0
  8
slabs_blocks
 10
48.868
 20
33.857
 30
4.7752
 11
53.52
 21
33.857
 31
4.7752
 12
53.52
 22
41.963
 32
4.7752
 13
48.868
 23
41.963
 33
4.7752
  0
LINE
 62
0
  8
slabs_blocks
 10
16.66
 20
30.373
 30
4.7752
 11
16.66
 21
33.183
 31
4.7752
  0
LINE
 62
0
  8
slabs_blocks
 10
16.66
 20
33.183
 30
4.7752
 11
14.1208
 21
33.183
 31
4.7752
  0
3DFACE
 62
0
  8
slabs_blocks
 10
32.4596
 20
8.939
 30
4.7752
 11
40.1336
 21
8.939
 31
4.7752
 12
40.1336
 22
10.839
 32
4.7752
 13
32.4596
 23
10.839
 33
4.7752
  0
LINE
 62
0
  8
slabs_blocks
 10
20.2708
 20
30.373
 30
4.7752
 11
20.2708
 21
33.183
 31
4.7752
  0
LINE
 62
0
  8
slabs_blocks
 10
20.2708
 20
33.183
 30
4.7752
 11
16.66
 21
33.183
 31
4.7752
  0
3DFACE
 62
0
  8
slabs_blocks
 10
10.2
 20
29.257
 30
4.7752
 11
11.0
 21
29.257
 31
4.7752
 12
11.0
 22
30.373
 32
4.7752
 13
10.2
 23
30.373
 33
4.7752
  0
LINE
 62
0
  8
slabs_blocks
 10
16.66
 20
33.657
 30
4.7752
 11
14.1208
 21
33.657
 31
4.7752
  0
LINE
 62
0
  8
slabs_blocks
 10
14.1208
 20
33.657
 30
4.7752
 11
14.1208
 21
33.183
 31
4.7752
  0
LINE
 62
0
  8
slabs_blocks
 10
20.2708
 20
33.183
 30
4.7752
 11
20.2708
 21
33.657
 31
4.7752
  0
LINE
 62
0
  8
slabs_blocks
 10
20.2708
 20
33.657
 30
4.7752
 11
16.66
 21
33.657
 31
4.7752
  0
LINE
 62
0
  8
slabs_blocks
 10
16.66
 20
33.657
 30
4.7752
 11
16.66
 21
33.757
 31
4.7752
  0
LINE
 62
0
  8
slabs_blocks
 10
16.66
 20
33.757
 30
4.7752
 11
14.1208
 21
33.757
 31
4.7752
  0
LINE
 62
0
  8
slabs_blocks
 10
14.1208
 20
33.757
 30
4.7752
 11
14.1208
 21
33.657
 31
4.7752
  0
3DFACE
 62
0
  8
slabs_blocks
 10
9.596
 20
30.373
 30
4.7752
 11
10.2
 21
30.373
 31
4.7752
 12
10.2
 22
33.183
 32
4.7752
 13
9.596
 23
33.183
 33
4.7752
  0
LINE
 62
0
  8
slabs_blocks
 10
16.66
 20
8.875
 30
4.7752
 11
14.1208
 21
8.875
 31
4.7752
  0
LINE
 62
0
  8
slabs_blocks
 10
16.66
 20
33.757
 30
4.7752
 11
16.66
 21
33.857
 31
4.7752
  0
LINE
 62
0
  8
slabs_blocks
 10
16.66
 20
33.857
 30
4.7752
 11
14.1208
 21
33.857
 31
4.7752
  0
LINE
 62
0
  8
slabs_blocks
 10
14.1208
 20
33.857
 30
4.7752
 11
14.1208
 21
33.757
 31
4.7752
  0
LINE
 62
0
  8
slabs_blocks
 10
20.2708
 20
33.757
 30
4.7752
 11
20.2708
 21
33.857
 31
4.7752
  0
LINE
 62
0
  8
slabs_blocks
 10
20.2708
 20
33.857
 30
4.7752
 11
16.66
 21
33.857
 31
4.7752
  0
LINE
 62
0
  8
slabs_blocks
 10
16.66
 20
33.857
 30
4.7752
 11
16.66
 21
41.963
 31
4.7752
  0
3DFACE
 62
0
  8
slabs_blocks
 10
7.828
 20
33.183
 30
4.7752
 11
9.596
 21
33.183
 31
4.7752
 12
9.596
 22
33.657
 32
4.7752
 13
7.828
 23
33.657
 33
4.7752
  0
LINE
 62
0
  8
slabs_blocks
 10
14.1208
 20
41.963
 30
4.7752
 11
14.1208
 21
33.857
 31
4.7752
  0
3DFACE
 62
0
  8
slabs_blocks
 10
47.52
 20
42.163
 30
4.7752
 11
48.668
 21
42.163
 31
4.7752
 12
48.668
 22
44.77
 32
4.7752
 13
47.52
 23
44.77
 33
4.7752
  0
LINE
 62
0
  8
slabs_blocks
 10
20.2708
 20
41.963
 30
4.7752
 11
16.66
 21
41.963
 31
4.7752
  0
3DFACE
 62
0
  8
slabs_blocks
 10
53.52
 20
33.857
 30
4.4196
 11
55.7784
 21
33.857
 31
4.4196
 12
55.7784
 22
41.963
 32
4.4196
 13
53.52
 23
41.963
 33
4.4196
  0
LINE
 62
0
  8
slabs_blocks
 10
32.2596
 20
0.0
 30
4.7752
 11
32.2596
 21
8.739
 31
4.7752
  0
LINE
 62
0
  8
slabs_blocks
 10
32.2596
 20
8.739
 30
4.7752
 11
20.4708
 21
8.739
 31
4.7752
  0
LINE
 62
0
  8
slabs_blocks
 10
7.828
 20
42.163
 30
4.7752
 11
9.596
 21
42.163
 31
4.7752
  0
LINE
 62
0
  8
slabs_blocks
 10
32.2596
 20
8.739
 30
4.7752
 11
32.2596
 21
8.839
 31
4.7752
  0
LINE
 62
0
  8
slabs_blocks
 10
32.2596
 20
8.839
 30
4.7752
 11
20.4708
 21
8.839
 31
4.7752
  0
LINE
 62
0
  8
slabs_blocks
 10
20.4708
 20
8.839
 30
4.7752
 11
20.4708
 21
8.739
 31
4.7752
  0
LINE
 62
0
  8
slabs_blocks
 10
32.2596
 20
8.839
 30
4.7752
 11
32.2596
 21
8.875
 31
4.7752
  0
LINE
 62
0
  8
slabs_blocks
 10
32.2596
 20
8.875
 30
4.7752
 11
20.4708
 21
8.875
 31
4.7752
  0
LINE
 62
0
  8
slabs_blocks
 10
20.4708
 20
8.875
 30
4.7752
 11
20.4708
 21
8.839
 31
4.7752
  0
LINE
 62
0
  8
slabs_blocks
 10
32.2596
 20
8.875
 30
4.7752
 11
32.2596
 21
8.939
 31
4.7752
  0
LINE
 62
0
  8
slabs_blocks
 10
32.2596
 20
8.939
 30
4.7752
 11
20.4708
 21
8.939
 31
4.7752
  0
LINE
 62
0
  8
slabs_blocks
 10
20.4708
 20
8.939
 30
4.7752
 11
20.4708
 21
8.875
 31
4.7752
  0
LINE
 62
0
  8
slabs_blocks
 10
16.66
 20
8.875
 30
4.7752
 11
16.66
 21
8.939
 31
4.7752
  0
LINE
 62
0
  8
slabs_blocks
 10
32.2596
 20
10.839
 30
4.7752
 11
20.4708
 21
10.839
 31
4.7752
  0
LINE
 62
0
  8
slabs_blocks
 10
20.4708
 20
10.839
 30
4.7752
 11
20.4708
 21
8.939
 31
4.7752
  0
LINE
 62
0
  8
slabs_blocks
 10
32.2596
 20
10.839
 30
4.7752
 11
32.2596
 21
10.975
 31
4.7752
  0
LINE
 62
0
  8
slabs_blocks
 10
32.2596
 20
10.975
 30
4.7752
 11
20.4708
 21
10.975
 31
4.7752
  0
LINE
 62
0
  8
slabs_blocks
 10
20.4708
 20
10.975
 30
4.7752
 11
20.4708
 21
10.839
 31
4.7752
  0
LINE
 62
0
  8
slabs_blocks
 10
20.4708
 20
8.839
 30
4.4196
 11
32.2596
 21
8.839
 31
4.4196
  0
3DFACE
 62
0
  8
slabs_blocks
 10
5.996
 20
33.857
 30
4.7752
 11
6.096
 21
33.857
 31
4.7752
 12
6.096
 22
41.963
 32
4.7752
 13
5.996
 23
41.963
 33
4.7752
  0
LINE
 62
0
  8
slabs_blocks
 10
32.2596
 20
8.875
 30
4.4196
 11
20.4708
 21
8.875
 31
4.4196
  0
3DFACE
 62
0
  8
slabs_blocks
 10
43.32
 20
0.0
 30
4.7752
 11
43.92
 21
0.0
 31
4.7752
 12
43.92
 22
8.739
 32
4.7752
 13
43.32
 23
8.739
 33
4.7752
  0
LINE
 62
0
  8
slabs_blocks
 10
32.2596
 20
8.875
 30
4.4196
 11
32.2596
 21
8.939
 31
4.4196
  0
LINE
 62
0
  8
slabs_blocks
 10
32.2596
 20
8.939
 30
4.4196
 11
20.4708
 21
8.939
 31
4.4196
  0
3DFACE
 62
0
  8
slabs_blocks
 10
16.66
 20
17.245
 30
4.7752
 11
20.2708
 21
17.245
 31
4.7752
 12
20.2708
 22
25.351
 32
4.7752
 13
16.66
 23
25.351
 33
4.7752
  0
LINE
 62
0
  8
slabs_blocks
 10
32.2596
 20
8.939
 30
4.4196
 11
32.2596
 21
10.839
 31
4.4196
  0
LINE
 62
0
  8
slabs_blocks
 10
32.2596
 20
10.839
 30
4.4196
 11
20.4708
 21
10.839
 31
4.4196
  0
LINE
 62
0
  8
slabs_blocks
 10
20.4708
 20
10.839
 30
4.4196
 11
20.4708
 21
8.939
 31
4.4196
  0
LINE
 62
0
  8
slabs_blocks
 10
32.2596
 20
10.839
 30
4.4196
 11
32.2596
 21
10.975
 31
4.4196
  0
3DFACE
 62
0
  8
slabs_blocks
 10
42.52
 20
8.739
 30
4.7752
 11
43.32
 21
8.739
 31
4.7752
 12
43.32
 22
8.839
 32
4.7752
 13
42.52
 23
8.839
 33
4.7752
  0
LINE
 62
0
  8
slabs_blocks
 10
20.4708
 20
10.975
 30
4.4196
 11
20.4708
 21
10.839
 31
4.4196
  0
3DFACE
 62
0
  8
slabs_blocks
 10
47.52
 20
44.77
 30
4.4196
 11
48.668
 21
44.77
 31
4.4196
 12
48.668
 22
48.159
 32
4.4196
 13
47.52
 23
48.159
 33
4.4196
  0
3DFACE
 62
0
  8
slabs_blocks
 10
14.1208
 20
25.351
 30
4.7752
 11
16.66
 21
25.351
 31
4.7752
 12
16.66
 22
25.451
 32
4.7752
 13
14.1208
 23
25.451
 33
4.7752
  0
LINE
 62
0
  8
slabs_blocks
 10
20.4708
 20
16.02
 30
4.4196
 11
20.4708
 21
10.975
 31
4.4196
  0
3DFACE
 62
0
  8
slabs_blocks
 10
20.4708
 20
17.045
 30
4.4196
 11
32.2596
 21
17.045
 31
4.4196
 12
32.2596
 22
17.145
 32
4.4196
 13
20.4708
 23
17.145
 33
4.4196
  0
LINE
 62
0
  8
slabs_blocks
 10
32.2596
 20
17.045
 30
4.4196
 11
20.4708
 21
17.045
 31
4.4196
  0
LINE
 62
0
  8
slabs_blocks
 10
20.2708
 20
8.939
 30
4.7752
 11
16.66
 21
8.939
 31
4.7752
  0
3DFACE
 62
0
  8
slabs_blocks
 10
40.3336
 20
8.839
 30
4.7752
 11
42.52
 21
8.839
 31
4.7752
 12
42.52
 22
8.875
 32
4.7752
 13
40.3336
 23
8.875
 33
4.7752
  0
LINE
 62
0
  8
slabs_blocks
 10
32.2596
 20
17.145
 30
4.4196
 11
20.4708
 21
17.145
 31
4.4196
  0
LINE
 62
0
  8
slabs_blocks
 10
20.4708
 20
17.145
 30
4.4196
 11
20.4708
 21
17.045
 31
4.4196
  0
LINE
 62
0
  8
slabs_blocks
 10
48.668
 20
17.245
 30
4.7752
 11
47.52
 21
17.245
 31
4.7752
  0
LINE
 62
0
  8
slabs_blocks
 10
32.2596
 20
17.245
 30
4.4196
 11
20.4708
 21
17.245
 31
4.4196
  0
LINE
 62
0
  8
slabs_blocks
 10
20.4708
 20
17.245
 30
4.4196
 11
20.4708
 21
17.145
 31
4.4196
  0
LINE
 62
0
  8
slabs_blocks
 10
32.2596
 20
17.245
 30
4.4196
 11
32.2596
 21
25.351
 31
4.4196
  0
LINE
 62
0
  8
slabs_blocks
 10
32.2596
 20
25.351
 30
4.4196
 11
20.4708
 21
25.351
 31
4.4196
  0
LINE
 62
0
  8
slabs_blocks
 10
20.4708
 20
25.351
 30
4.4196
 11
20.4708
 21
17.245
 31
4.4196
  0
LINE
 62
0
  8
slabs_blocks
 10
32.2596
 20
25.351
 30
4.4196
 11
32.2596
 21
25.451
 31
4.4196
  0
LINE
 62
0
  8
slabs_blocks
 10
32.2596
 20
25.451
 30
4.4196
 11
20.4708
 21
25.451
 31
4.4196
  0
LINE
 62
0
  8
slabs_blocks
 10
16.66
 20
10.839
 30
4.7752
 11
14.1208
 21
10.839
 31
4.7752
  0
LINE
 62
0
  8
slabs_blocks
 10
32.2596
 20
25.451
 30
4.4196
 11
32.2596
 21
25.551
 31
4.4196
  0
LINE
 62
0
  8
slabs_blocks
 10
32.2596
 20
25.551
 30
4.4196
 11
20.4708
 21
25.551
 31
4.4196
  0
LINE
 62
0
  8
slabs_blocks
 10
20.4708
 20
25.551
 30
4.4196
 11
20.4708
 21
25.451
 31
4.4196
  0
LINE
 62
0
  8
slabs_blocks
 10
42.52
 20
25.351
 30
4.7752
 11
40.3336
 21
25.351
 31
4.7752
  0
LINE
 62
0
  8
slabs_blocks
 10
32.2596
 20
29.257
 30
4.4196
 11
20.4708
 21
29.257
 31
4.4196
  0
LINE
 62
0
  8
slabs_blocks
 10
20.4708
 20
29.257
 30
4.4196
 11
20.4708
 21
25.551
 31
4.4196
  0
LINE
 62
0
  8
slabs_blocks
 10
32.2596
 20
29.257
 30
4.4196
 11
32.2596
 21
30.373
 31
4.4196
  0
3DFACE
 62
0
  8
slabs_blocks
 10
11.0
 20
29.257
 30
4.7752
 11
13.9208
 21
29.257
 31
4.7752
 12
13.9208
 22
30.373
 32
4.7752
 13
11.0
 23
30.373
 33
4.7752
  0
LINE
 62
0
  8
slabs_blocks
 10
43.32
 20
17.245
 30
4.7752
 11
42.52
 21
17.245
 31
4.7752
  0
LINE
 62
0
  8
slabs_blocks
 10
32.2596
 20
30.373
 30
4.4196
 11
32.2596
 21
33.183
 31
4.4196
  0
LINE
 62
0
  8
slabs_blocks
 10
32.2596
 20
33.183
 30
4.4196
 11
20.4708
 21
33.183
 31
4.4196
  0
LINE
 62
0
  8
slabs_blocks
 10
20.4708
 20
33.183
 30
4.4196
 11
20.4708
 21
30.373
 31
4.4196
  0
3DFACE
 62
0
  8
slabs_blocks
 10
32.4596
 20
10.839
 30
4.7752
 11
40.1336
 21
10.839
 31
4.7752
 12
40.1336
 22
10.975
 32
4.7752
 13
32.4596
 23
10.975
 33
4.7752
  0
LINE
 62
0
  8
slabs_blocks
 10
32.2596
 20
33.657
 30
4.4196
 11
20.4708
 21
33.657
 31
4.4196
  0
LINE
 62
0
  8
slabs_blocks
 10
20.4708
 20
33.657
 30
4.4196
 11
20.4708
 21
33.183
 31
4.4196
  0
3DFACE
 62
0
  8
slabs_blocks
 10
10.2
 20
30.373
 30
4.7752
 11
11.0
 21
30.373
 31
4.7752
 12
11.0
 22
33.183
 32
4.7752
 13
10.2
 23
33.183
 33
4.7752
  0
LINE
 62
0
  8
slabs_blocks
 10
32.2596
 20
33.757
 30
4.4196
 11
20.4708
 21
33.757
 31
4.4196
  0
LINE
 62
0
  8
slabs_blocks
 10
20.4708
 20
33.757
 30
4.4196
 11
20.4708
 21
33.657
 31
4.4196
  0
LINE
 62
0
  8
slabs_blocks
 10
32.2596
 20
33.757
 30
4.4196
 11
32.2596
 21
33.857
 31
4.4196
  0
LINE
 62
0
  8
slabs_blocks
 10
32.2596
 20
33.857
 30
4.4196
 11
20.4708
 21
33.857
 31
4.4196
  0
LINE
 62
0
  8
slabs_blocks
 10
20.4708
 20
33.857
 30
4.4196
 11
20.4708
 21
33.757
 31
4.4196
  0
LINE
 62
0
  8
slabs_blocks
 10
32.2596
 20
33.857
 30
4.4196
 11
32.2596
 21
41.963
 31
4.4196
  0
LINE
 62
0
  8
slabs_blocks
 10
32.2596
 20
41.963
 30
4.4196
 11
20.4708
 21
41.963
 31
4.4196
  0
3DFACE
 62
0
  8
slabs_blocks
 10
9.596
 20
33.183
 30
4.7752
 11
10.2
 21
33.183
 31
4.7752
 12
10.2
 22
33.657
 32
4.7752
 13
9.596
 23
33.657
 33
4.7752
  0
LINE
 62
0
  8
slabs_blocks
 10
32.2596
 20
41.963
 30
4.4196
 11
32.2596
 21
42.063
 31
4.4196
  0
3DFACE
 62
0
  8
slabs_blocks
 10
48.668
 20
42.163
 30
4.7752
 11
48.768
 21
42.163
 31
4.7752
 12
48.768
 22
44.77
 32
4.7752
 13
48.668
 23
44.77
 33
4.7752
  0
LINE
 62
0
  8
slabs_blocks
 10
53.52
 20
16.02
 30
4.7752
 11
48.868
 21
16.02
 31
4.7752
  0
LINE
 62
0
  8
slabs_blocks
 10
32.2596
 20
42.063
 30
4.4196
 11
32.2596
 21
42.163
 31
4.4196
  0
LINE
 62
0
  8
slabs_blocks
 10
32.2596
 20
42.163
 30
4.4196
 11
20.4708
 21
42.163
 31
4.4196
  0
LINE
 62
0
  8
slabs_blocks
 10
20.4708
 20
42.163
 30
4.4196
 11
20.4708
 21
42.063
 31
4.4196
  0
LINE
 62
0
  8
slabs_blocks
 10
32.2596
 20
42.163
 30
4.4196
 11
32.2596
 21
44.77
 31
4.4196
  0
LINE
 62
0
  8
slabs_blocks
 10
32.2596
 20
44.77
 30
4.4196
 11
20.4708
 21
44.77
 31
4.4196
  0
LINE
 62
0
  8
slabs_blocks
 10
20.4708
 20
44.77
 30
4.4196
 11
20.4708
 21
42.163
 31
4.4196
  0
LINE
 62
0
  8
slabs_blocks
 10
32.2596
 20
44.77
 30
4.4196
 11
32.2596
 21
48.159
 31
4.4196
  0
LINE
 62
0
  8
slabs_blocks
 10
32.2596
 20
48.159
 30
4.4196
 11
20.4708
 21
48.159
 31
4.4196
  0
3DFACE
 62
0
  8
slabs_blocks
 10
53.52
 20
41.963
 30
4.4196
 11
55.7784
 21
41.963
 31
4.4196
 12
55.7784
 22
42.063
 32
4.4196
 13
53.52
 23
42.063
 33
4.4196
  0
LINE
 62
0
  8
slabs_blocks
 10
32.4596
 20
0.0
 30
4.7752
 11
40.1336
 21
0.0
 31
4.7752
  0
LINE
 62
0
  8
slabs_blocks
 10
40.1336
 20
0.0
 30
4.7752
 11
40.1336
 21
8.739
 31
4.7752
  0
LINE
 62
0
  8
slabs_blocks
 10
40.1336
 20
8.739
 30
4.7752
 11
32.4596
 21
8.739
 31
4.7752
  0
LINE
 62
0
  8
slabs_blocks
 10
32.4596
 20
8.739
 30
4.7752
 11
32.4596
 21
0.0
 31
4.7752
  0
LINE
 62
0
  8
slabs_blocks
 10
40.1336
 20
8.739
 30
4.7752
 11
40.1336
 21
8.839
 31
4.7752
  0
LINE
 62
0
  8
slabs_blocks
 10
40.1336
 20
8.839
 30
4.7752
 11
32.4596
 21
8.839
 31
4.7752
  0
LINE
 62
0
  8
slabs_blocks
 10
32.4596
 20
8.839
 30
4.7752
 11
32.4596
 21
8.739
 31
4.7752
  0
LINE
 62
0
  8
slabs_blocks
 10
40.1336
 20
8.839
 30
4.7752
 11
40.1336
 21
8.875
 31
4.7752
  0
LINE
 62
0
  8
slabs_blocks
 10
40.1336
 20
8.875
 30
4.7752
 11
32.4596
 21
8.875
 31
4.7752
  0
LINE
 62
0
  8
slabs_blocks
 10
32.4596
 20
8.875
 30
4.7752
 11
32.4596
 21
8.839
 31
4.7752
  0
LINE
 62
0
  8
slabs_blocks
 10
40.1336
 20
8.875
 30
4.7752
 11
40.1336
 21
8.939
 31
4.7752
  0
3DFACE
 62
0
  8
slabs_blocks
 10
6.096
 20
33.857
 30
4.7752
 11
6.196
 21
33.857
 31
4.7752
 12
6.196
 22
41.963
 32
4.7752
 13
6.096
 23
41.963
 33
4.7752
  0
LINE
 62
0
  8
slabs_blocks
 10
32.4596
 20
8.939
 30
4.7752
 11
32.4596
 21
8.875
 31
4.7752
  0
3DFACE
 62
0
  8
slabs_blocks
 10
43.92
 20
0.0
 30
4.7752
 11
47.52
 21
0.0
 31
4.7752
 12
47.52
 22
8.739
 32
4.7752
 13
43.92
 23
8.739
 33
4.7752
  0
LINE
 62
0
  8
slabs_blocks
 10
40.1336
 20
10.839
 30
4.7752
 11
32.4596
 21
10.839
 31
4.7752
  0
LINE
 62
0
  8
slabs_blocks
 10
32.4596
 20
10.839
 30
4.7752
 11
32.4596
 21
8.939
 31
4.7752
  0
LINE
 62
0
  8
slabs_blocks
 10
40.1336
 20
10.839
 30
4.7752
 11
40.1336
 21
10.975
 31
4.7752
  0
LINE
 62
0
  8
slabs_blocks
 10
40.1336
 20
10.975
 30
4.7752
 11
32.4596
 21
10.975
 31
4.7752
  0
LINE
 62
0
  8
slabs_blocks
 10
32.4596
 20
10.975
 30
4.7752
 11
32.4596
 21
10.839
 31
4.7752
  0
LINE
 62
0
  8
slabs_blocks
 10
40.1336
 20
10.975
 30
4.7752
 11
40.1336
 21
16.02
 31
4.7752
  0
LINE
 62
0
  8
slabs_blocks
 10
40.1336
 20
16.02
 30
4.7752
 11
32.4596
 21
16.02
 31
4.7752
  0
3DFACE
 62
0
  8
slabs_blocks
 10
43.32
 20
8.739
 30
4.7752
 11
43.92
 21
8.739
 31
4.7752
 12
43.92
 22
8.839
 32
4.7752
 13
43.32
 23
8.839
 33
4.7752
  0
LINE
 62
0
  8
slabs_blocks
 10
40.1336
 20
16.02
 30
4.7752
 11
40.1336
 21
17.045
 31
4.7752
  0
3DFACE
 62
0
  8
slabs_blocks
 10
48.668
 20
44.77
 30
4.4196
 11
48.768
 21
44.77
 31
4.4196
 12
48.768
 22
48.159
 32
4.4196
 13
48.668
 23
48.159
 33
4.4196
  0
3DFACE
 62
0
  8
slabs_blocks
 10
16.66
 20
25.351
 30
4.7752
 11
20.2708
 21
25.351
 31
4.7752
 12
20.2708
 22
25.451
 32
4.7752
 13
16.66
 23
25.451
 33
4.7752
  0
LINE
 62
0
  8
slabs_blocks
 10
40.1336
 20
17.045
 30
4.7752
 11
40.1336
 21
17.145
 31
4.7752
  0
LINE
 62
0
  8
slabs_blocks
 10
40.1336
 20
17.145
 30
4.7752
 11
32.4596
 21
17.145
 31
4.7752
  0
LINE
 62
0
  8
slabs_blocks
 10
32.4596
 20
17.145
 30
4.7752
 11
32.4596
 21
17.045
 31
4.7752
  0
LINE
 62
0
  8
slabs_blocks
 10
40.1336
 20
17.145
 30
4.7752
 11
40.1336
 21
17.245
 31
4.7752
  0
3DFACE
 62
0
  8
slabs_blocks
 10
42.52
 20
8.839
 30
4.7752
 11
43.32
 21
8.839
 31
4.7752
 12
43.32
 22
8.875
 32
4.7752
 13
42.52
 23
8.875
 33
4.7752
  0
LINE
 62
0
  8
slabs_blocks
 10
32.4596
 20
17.245
 30
4.7752
 11
32.4596
 21
17.145
 31
4.7752
  0
LINE
 62
0
  8
slabs_blocks
 10
40.1336
 20
17.245
 30
4.7752
 11
40.1336
 21
25.351
 31
4.7752
  0
3DFACE
 62
0
  8
slabs_blocks
 10
14.1208
 20
25.451
 30
4.7752
 11
16.66
 21
25.451
 31
4.7752
 12
16.66
 22
25.551
 32
4.7752
 13
14.1208
 23
25.551
 33
4.7752
  0
LINE
 62
0
  8
slabs_blocks
 10
32.4596
 20
25.351
 30
4.7752
 11
32.4596
 21
17.245
 31
4.7752
  0
3DFACE
 62
0
  8
slabs_blocks
 10
20.4708
 20
17.145
 30
4.4196
 11
32.2596
 21
17.145
 31
4.4196
 12
32.2596
 22
17.245
 32
4.4196
 13
20.4708
 23
17.245
 33
4.4196
  0
LINE
 62
0
  8
slabs_blocks
 10
40.1336
 20
25.451
 30
4.7752
 11
32.4596
 21
25.451
 31
4.7752
  0
LINE
 62
0
  8
slabs_blocks
 10
32.4596
 20
25.451
 30
4.7752
 11
32.4596
 21
25.351
 31
4.7752
  0
3DFACE
 62
0
  8
slabs_blocks
 10
40.3336
 20
8.875
 30
4.7752
 11
42.52
 21
8.875
 31
4.7752
 12
42.52
 22
8.939
 32
4.7752
 13
40.3336
 23
8.939
 33
4.7752
  0
LINE
 62
0
  8
slabs_blocks
 10
40.1336
 20
25.551
 30
4.7752
 11
32.4596
 21
25.551
 31
4.7752
  0
LINE
 62
0
  8
slabs_blocks
 10
32.4596
 20
25.551
 30
4.7752
 11
32.4596
 21
25.451
 31
4.7752
  0
LINE
 62
0
  8
slabs_blocks
 10
40.1336
 20
25.551
 30
4.7752
 11
40.1336
 21
29.257
 31
4.7752
  0
LINE
 62
0
  8
slabs_blocks
 10
40.1336
 20
29.257
 30
4.7752
 11
32.4596
 21
29.257
 31
4.7752
  0
LINE
 62
0
  8
slabs_blocks
 10
32.4596
 20
29.257
 30
4.7752
 11
32.4596
 21
25.551
 31
4.7752
  0
3DFACE
 62
0
  8
slabs_blocks
 10
9.596
 20
44.77
 30
4.4196
 11
10.2
 21
44.77
 31
4.4196
 12
10.2
 22
48.159
 32
4.4196
 13
9.596
 23
48.159
 33
4.4196
  0
LINE
 62
0
  8
slabs_blocks
 10
40.1336
 20
30.373
 30
4.7752
 11
32.4596
 21
30.373
 31
4.7752
  0
LINE
 62
0
  8
slabs_blocks
 10
32.4596
 20
30.373
 30
4.7752
 11
32.4596
 21
29.257
 31
4.7752
  0
LINE
 62
0
  8
slabs_blocks
 10
40.1336
 20
30.373
 30
4.7752
 11
40.1336
 21
33.183
 31
4.7752
  0
LINE
 62
0
  8
slabs_blocks
 10
40.1336
 20
33.183
 30
4.7752
 11
32.4596
 21
33.183
 31
4.7752
  0
LINE
 62
0
  8
slabs_blocks
 10
32.4596
 20
33.183
 30
4.7752
 11
32.4596
 21
30.373
 31
4.7752
  0
LINE
 62
0
  8
slabs_blocks
 10
40.1336
 20
33.183
 30
4.7752
 11
40.1336
 21
33.657
 31
4.7752
  0
LINE
 62
0
  8
slabs_blocks
 10
40.1336
 20
33.657
 30
4.7752
 11
32.4596
 21
33.657
 31
4.7752
  0
LINE
 62
0
  8
slabs_blocks
 10
32.4596
 20
33.657
 30
4.7752
 11
32.4596
 21
33.183
 31
4.7752
  0
LINE
 62
0
  8
slabs_blocks
 10
40.1336
 20
33.657
 30
4.7752
 11
40.1336
 21
33.757
 31
4.7752
  0
LINE
 62
0
  8
slabs_blocks
 10
40.1336
 20
33.757
 30
4.7752
 11
32.4596
 21
33.757
 31
4.7752
  0
LINE
 62
0
  8
slabs_blocks
 10
32.4596
 20
33.757
 30
4.7752
 11
32.4596
 21
33.657
 31
4.7752
  0
LINE
 62
0
  8
slabs_blocks
 10
40.1336
 20
33.757
 30
4.7752
 11
40.1336
 21
33.857
 31
4.7752
  0
3DFACE
 62
0
  8
slabs_blocks
 10
11.0
 20
30.373
 30
4.7752
 11
13.9208
 21
30.373
 31
4.7752
 12
13.9208
 22
33.183
 32
4.7752
 13
11.0
 23
33.183
 33
4.7752
  0
LINE
 62
0
  8
slabs_blocks
 10
32.4596
 20
33.857
 30
4.7752
 11
32.4596
 21
33.757
 31
4.7752
  0
LINE
 62
0
  8
slabs_blocks
 10
40.1336
 20
33.857
 30
4.7752
 11
40.1336
 21
41.963
 31
4.7752
  0
LINE
 62
0
  8
slabs_blocks
 10
40.1336
 20
41.963
 30
4.7752
 11
32.4596
 21
41.963
 31
4.7752
  0
LINE
 62
0
  8
slabs_blocks
 10
32.4596
 20
41.963
 30
4.7752
 11
32.4596
 21
33.857
 31
4.7752
  0
3DFACE
 62
0
  8
slabs_blocks
 10
32.4596
 20
10.975
 30
4.7752
 11
40.1336
 21
10.975
 31
4.7752
 12
40.1336
 22
16.02
 32
4.7752
 13
32.4596
 23
16.02
 33
4.7752
  0
LINE
 62
0
  8
slabs_blocks
 10
42.52
 20
0.0
 30
4.7752
 11
42.52
 21
8.739
 31
4.7752
  0
LINE
 62
0
  8
slabs_blocks
 10
42.52
 20
8.739
 30
4.7752
 11
40.3336
 21
8.739
 31
4.7752
  0
3DFACE
 62
0
  8
slabs_blocks
 10
10.2
 20
33.183
 30
4.7752
 11
11.0
 21
33.183
 31
4.7752
 12
11.0
 22
33.657
 32
4.7752
 13
10.2
 23
33.657
 33
4.7752
  0
LINE
 62
0
  8
slabs_blocks
 10
42.52
 20
0.0
 30
4.7752
 11
43.32
 21
0.0
 31
4.7752
  0
3DFACE
 62
0
  8
slabs_blocks
 10
48.768
 20
42.163
 30
4.7752
 11
48.868
 21
42.163
 31
4.7752
 12
48.868
 22
44.77
 32
4.7752
 13
48.768
 23
44.77
 33
4.7752
  0
LINE
 62
0
  8
slabs_blocks
 10
43.32
 20
8.739
 30
4.7752
 11
42.52
 21
8.739
 31
4.7752
  0
LINE
 62
0
  8
slabs_blocks
 10
43.32
 20
0.0
 30
4.7752
 11
43.92
 21
0.0
 31
4.7752
  0
LINE
 62
0
  8
slabs_blocks
 10
43.92
 20
0.0
 30
4.7752
 11
43.92
 21
8.739
 31
4.7752
  0
LINE
 62
0
  8
slabs_blocks
 10
43.92
 20
8.739
 30
4.7752
 11
43.32
 21
8.739
 31
4.7752
  0
LINE
 62
0
  8
slabs_blocks
 10
43.92
 20
0.0
 30
4.7752
 11
47.52
 21
0.0
 31
4.7752
  0
LINE
 62
0
  8
slabs_blocks
 10
47.52
 20
0.0
 30
4.7752
 11
47.52
 21
8.739
 31
4.7752
  0
LINE
 62
0
  8
slabs_blocks
 10
47.52
 20
8.739
 30
4.7752
 11
43.92
 21
8.739
 31
4.7752
  0
LINE
 62
0
  8
slabs_blocks
 10
47.52
 20
0.0
 30
4.7752
 11
48.668
 21
0.0
 31
4.7752
  0
LINE
 62
0
  8
slabs_blocks
 10
48.668
 20
0.0
 30
4.7752
 11
48.668
 21
8.739
 31
4.7752
  0
LINE
 62
0
  8
slabs_blocks
 10
48.668
 20
8.739
 30
4.7752
 11
47.52
 21
8.739
 31
4.7752
  0
LINE
 62
0
  8
slabs_blocks
 10
16.66
 20
17.045
 30
4.7752
 11
16.66
 21
17.145
 31
4.7752
  0
LINE
 62
0
  8
slabs_blocks
 10
42.52
 20
8.839
 30
4.7752
 11
40.3336
 21
8.839
 31
4.7752
  0
LINE
 62
0
  8
slabs_blocks
 10
40.3336
 20
8.839
 30
4.7752
 11
40.3336
 21
8.739
 31
4.7752
  0
LINE
 62
0
  8
slabs_blocks
 10
43.32
 20
8.739
 30
4.7752
 11
43.32
 21
8.839
 31
4.7752
  0
LINE
 62
0
  8
slabs_blocks
 10
43.32
 20
8.839
 30
4.7752
 11
42.52
 21
8.839
 31
4.7752
  0
LINE
 62
0
  8
slabs_blocks
 10
43.92
 20
8.739
 30
4.7752
 11
43.92
 21
8.839
 31
4.7752
  0
LINE
 62
0
  8
slabs_blocks
 10
16.66
 20
17.145
 30
4.7752
 11
14.1208
 21
17.145
 31
4.7752
  0
3DFACE
 62
0
  8
slabs_blocks
 10
53.52
 20
42.063
 30
4.4196
 11
55.7784
 21
42.063
 31
4.4196
 12
55.7784
 22
42.163
 32
4.4196
 13
53.52
 23
42.163
 33
4.4196
  0
LINE
 62
0
  8
slabs_blocks
 10
47.52
 20
8.839
 30
4.7752
 11
43.92
 21
8.839
 31
4.7752
  0
LINE
 62
0
  8
slabs_blocks
 10
48.668
 20
8.739
 30
4.7752
 11
48.668
 21
8.839
 31
4.7752
  0
LINE
 62
0
  8
slabs_blocks
 10
48.668
 20
8.839
 30
4.7752
 11
47.52
 21
8.839
 31
4.7752
  0
3DFACE
 62
0
  8
slabs_blocks
 10
6.196
 20
33.857
 30
4.7752
 11
7.828
 21
33.857
 31
4.7752
 12
7.828
 22
41.963
 32
4.7752
 13
6.196
 23
41.963
 33
4.7752
  0
LINE
 62
0
  8
slabs_blocks
 10
42.52
 20
8.875
 30
4.7752
 11
40.3336
 21
8.875
 31
4.7752
  0
3DFACE
 62
0
  8
slabs_blocks
 10
47.52
 20
0.0
 30
4.7752
 11
48.668
 21
0.0
 31
4.7752
 12
48.668
 22
8.739
 32
4.7752
 13
47.52
 23
8.739
 33
4.7752
  0
LINE
 62
0
  8
slabs_blocks
 10
43.32
 20
8.839
 30
4.7752
 11
43.32
 21
8.875
 31
4.7752
  0
LINE
 62
0
  8
slabs_blocks
 10
43.32
 20
8.875
 30
4.7752
 11
42.52
 21
8.875
 31
4.7752
  0
LINE
 62
0
  8
slabs_blocks
 10
43.92
 20
8.839
 30
4.7752
 11
43.92
 21
8.875
 31
4.7752
  0
LINE
 62
0
  8
slabs_blocks
 10
43.92
 20
8.875
 30
4.7752
 11
43.32
 21
8.875
 31
4.7752
  0
LINE
 62
0
  8
slabs_blocks
 10
20.2708
 20
17.045
 30
4.7752
 11
20.2708
 21
17.145
 31
4.7752
  0
LINE
 62
0
  8
slabs_blocks
 10
47.52
 20
8.875
 30
4.7752
 11
43.92
 21
8.875
 31
4.7752
  0
LINE
 62
0
  8
slabs_blocks
 10
48.668
 20
8.839
 30
4.7752
 11
48.668
 21
8.875
 31
4.7752
  0
3DFACE
 62
0
  8
slabs_blocks
 10
43.92
 20
8.739
 30
4.7752
 11
47.52
 21
8.739
 31
4.7752
 12
47.52
 22
8.839
 32
4.7752
 13
43.92
 23
8.839
 33
4.7752
  0
LINE
 62
0
  8
slabs_blocks
 10
42.52
 20
8.875
 30
4.7752
 11
42.52
 21
8.939
 31
4.7752
  0
3DFACE
 62
0
  8
slabs_blocks
 10
48.768
 20
44.77
 30
4.4196
 11
48.868
 21
44.77
 31
4.4196
 12
48.868
 22
48.159
 32
4.4196
 13
48.768
 23
48.159
 33
4.4196
  0
LINE
 62
0
  8
slabs_blocks
 10
40.3336
 20
8.939
 30
4.7752
 11
40.3336
 21
8.875
 31
4.7752
  0
LINE
 62
0
  8
slabs_blocks
 10
43.32
 20
8.875
 30
4.7752
 11
43.32
 21
8.939
 31
4.7752
  0
LINE
 62
0
  8
slabs_blocks
 10
43.32
 20
8.939
 30
4.7752
 11
42.52
 21
8.939
 31
4.7752
  0
LINE
 62
0
  8
slabs_blocks
 10
43.92
 20
8.875
 30
4.7752
 11
43.92
 21
8.939
 31
4.7752
  0
LINE
 62
0
  8
slabs_blocks
 10
43.92
 20
8.939
 30
4.7752
 11
43.32
 21
8.939
 31
4.7752
  0
3DFACE
 62
0
  8
slabs_blocks
 10
43.32
 20
8.839
 30
4.7752
 11
43.92
 21
8.839
 31
4.7752
 12
43.92
 22
8.875
 32
4.7752
 13
43.32
 23
8.875
 33
4.7752
  0
LINE
 62
0
  8
slabs_blocks
 10
16.66
 20
17.145
 30
4.7752
 11
16.66
 21
17.245
 31
4.7752
  0
LINE
 62
0
  8
slabs_blocks
 10
48.668
 20
8.875
 30
4.7752
 11
48.668
 21
8.939
 31
4.7752
  0
3DFACE
 62
0
  8
slabs_blocks
 10
16.66
 20
25.451
 30
4.7752
 11
20.2708
 21
25.451
 31
4.7752
 12
20.2708
 22
25.551
 32
4.7752
 13
16.66
 23
25.551
 33
4.7752
  0
LINE
 62
0
  8
slabs_blocks
 10
42.52
 20
8.939
 30
4.7752
 11
42.52
 21
10.839
 31
4.7752
  0
LINE
 62
0
  8
slabs_blocks
 10
42.52
 20
10.839
 30
4.7752
 11
40.3336
 21
10.839
 31
4.7752
  0
3DFACE
 62
0
  8
slabs_blocks
 10
0.0
 20
42.163
 30
4.7752
 11
5.996
 21
42.163
 31
4.7752
 12
5.996
 22
44.77
 32
4.7752
 13
0.0
 23
44.77
 33
4.7752
  0
LINE
 62
0
  8
slabs_blocks
 10
43.32
 20
8.939
 30
4.7752
 11
43.32
 21
10.839
 31
4.7752
  0
3DFACE
 62
0
  8
slabs_blocks
 10
42.52
 20
8.875
 30
4.7752
 11
43.32
 21
8.875
 31
4.7752
 12
43.32
 22
8.939
 32
4.7752
 13
42.52
 23
8.939
 33
4.7752
  0
LINE
 62
0
  8
slabs_blocks
 10
43.92
 20
8.939
 30
4.7752
 11
43.92
 21
10.839
 31
4.7752
  0
LINE
 62
0
  8
slabs_blocks
 10
43.92
 20
10.839
 30
4.7752
 11
43.32
 21
10.839
 31
4.7752
  0
3DFACE
 62
0
  8
slabs_blocks
 10
14.1208
 20
25.551
 30
4.7752
 11
16.66
 21
25.551
 31
4.7752
 12
16.66
 22
29.257
 32
4.7752
 13
14.1208
 23
29.257
 33
4.7752
  0
LINE
 62
0
  8
slabs_blocks
 10
47.52
 20
10.839
 30
4.7752
 11
43.92
 21
10.839
 31
4.7752
  0
3DFACE
 62
0
  8
slabs_blocks
 10
20.4708
 20
17.245
 30
4.4196
 11
32.2596
 21
17.245
 31
4.4196
 12
32.2596
 22
25.351
 32
4.4196
 13
20.4708
 23
25.351
 33
4.4196
  0
LINE
 62
0
  8
slabs_blocks
 10
48.668
 20
10.839
 30
4.7752
 11
47.52
 21
10.839
 31
4.7752
  0
LINE
 62
0
  8
slabs_blocks
 10
42.52
 20
10.839
 30
4.7752
 11
42.52
 21
10.975
 31
4.7752
  0
3DFACE
 62
0
  8
slabs_blocks
 10
40.3336
 20
8.939
 30
4.7752
 11
42.52
 21
8.939
 31
4.7752
 12
42.52
 22
10.839
 32
4.7752
 13
40.3336
 23
10.839
 33
4.7752
  0
LINE
 62
0
  8
slabs_blocks
 10
40.3336
 20
10.975
 30
4.7752
 11
40.3336
 21
10.839
 31
4.7752
  0
LINE
 62
0
  8
slabs_blocks
 10
43.32
 20
10.839
 30
4.7752
 11
43.32
 21
10.975
 31
4.7752
  0
LINE
 62
0
  8
slabs_blocks
 10
20.2708
 20
17.145
 30
4.7752
 11
20.2708
 21
17.245
 31
4.7752
  0
LINE
 62
0
  8
slabs_blocks
 10
43.92
 20
10.839
 30
4.7752
 11
43.92
 21
10.975
 31
4.7752
  0
LINE
 62
0
  8
slabs_blocks
 10
43.92
 20
10.975
 30
4.7752
 11
43.32
 21
10.975
 31
4.7752
  0
LINE
 62
0
  8
slabs_blocks
 10
47.52
 20
10.839
 30
4.7752
 11
47.52
 21
10.975
 31
4.7752
  0
LINE
 62
0
  8
slabs_blocks
 10
47.52
 20
10.975
 30
4.7752
 11
43.92
 21
10.975
 31
4.7752
  0
LINE
 62
0
  8
slabs_blocks
 10
48.668
 20
10.839
 30
4.7752
 11
48.668
 21
10.975
 31
4.7752
  0
LINE
 62
0
  8
slabs_blocks
 10
48.668
 20
10.975
 30
4.7752
 11
47.52
 21
10.975
 31
4.7752
  0
LINE
 62
0
  8
slabs_blocks
 10
42.52
 20
10.975
 30
4.7752
 11
42.52
 21
16.02
 31
4.7752
  0
LINE
 62
0
  8
slabs_blocks
 10
42.52
 20
16.02
 30
4.7752
 11
40.3336
 21
16.02
 31
4.7752
  0
LINE
 62
0
  8
slabs_blocks
 10
40.3336
 20
16.02
 30
4.7752
 11
40.3336
 21
10.975
 31
4.7752
  0
LINE
 62
0
  8
slabs_blocks
 10
43.32
 20
10.975
 30
4.7752
 11
43.32
 21
16.02
 31
4.7752
  0
LINE
 62
0
  8
slabs_blocks
 10
43.32
 20
16.02
 30
4.7752
 11
42.52
 21
16.02
 31
4.7752
  0
LINE
 62
0
  8
slabs_blocks
 10
16.66
 20
17.245
 30
4.7752
 11
16.66
 21
25.351
 31
4.7752
  0
LINE
 62
0
  8
slabs_blocks
 10
43.92
 20
16.02
 30
4.7752
 11
43.32
 21
16.02
 31
4.7752
  0
LINE
 62
0
  8
slabs_blocks
 10
47.52
 20
10.975
 30
4.7752
 11
47.52
 21
16.02
 31
4.7752
  0
LINE
 62
0
  8
slabs_blocks
 10
47.52
 20
16.02
 30
4.7752
 11
43.92
 21
16.02
 31
4.7752
  0
3DFACE
 62
0
  8
slabs_blocks
 10
11.0
 20
33.183
 30
4.7752
 11
13.9208
 21
33.183
 31
4.7752
 12
13.9208
 22
33.657
 32
4.7752
 13
11.0
 23
33.657
 33
4.7752
  0
LINE
 62
0
  8
slabs_blocks
 10
48.668
 20
16.02
 30
4.7752
 11
47.52
 21
16.02
 31
4.7752
  0
3DFACE
 62
0
  8
slabs_blocks
 10
48.868
 20
42.163
 30
4.7752
 11
53.52
 21
42.163
 31
4.7752
 12
53.52
 22
44.77
 32
4.7752
 13
48.868
 23
44.77
 33
4.7752
  0
LINE
 62
0
  8
slabs_blocks
 10
42.52
 20
17.045
 30
4.7752
 11
40.3336
 21
17.045
 31
4.7752
  0
LINE
 62
0
  8
slabs_blocks
 10
40.3336
 20
17.045
 30
4.7752
 11
40.3336
 21
16.02
 31
4.7752
  0
3DFACE
 62
0
  8
slabs_blocks
 10
32.4596
 20
16.02
 30
4.7752
 11
40.1336
 21
16.02
 31
4.7752
 12
40.1336
 22
17.045
 32
4.7752
 13
32.4596
 23
17.045
 33
4.7752
  0
LINE
 62
0
  8
slabs_blocks
 10
43.32
 20
17.045
 30
4.7752
 11
42.52
 21
17.045
 31
4.7752
  0
LINE
 62
0
  8
slabs_blocks
 10
43.92
 20
16.02
 30
4.7752
 11
43.92
 21
17.045
 31
4.7752
  0
LINE
 62
0
  8
slabs_blocks
 10
43.92
 20
17.045
 30
4.7752
 11
43.32
 21
17.045
 31
4.7752
  0
LINE
 62
0
  8
slabs_blocks
 10
47.52
 20
16.02
 30
4.7752
 11
47.52
 21
17.045
 31
4.7752
  0
LINE
 62
0
  8
slabs_blocks
 10
47.52
 20
17.045
 30
4.7752
 11
43.92
 21
17.045
 31
4.7752
  0
LINE
 62
0
  8
slabs_blocks
 10
48.668
 20
16.02
 30
4.7752
 11
48.668
 21
17.045
 31
4.7752
  0
LINE
 62
0
  8
slabs_blocks
 10
48.668
 20
17.045
 30
4.7752
 11
47.52
 21
17.045
 31
4.7752
  0
LINE
 62
0
  8
slabs_blocks
 10
42.52
 20
17.045
 30
4.7752
 11
42.52
 21
17.145
 31
4.7752
  0
LINE
 62
0
  8
slabs_blocks
 10
20.2708
 20
17.245
 30
4.7752
 11
20.2708
 21
25.351
 31
4.7752
  0
LINE
 62
0
  8
slabs_blocks
 10
42.52
 20
17.145
 30
4.7752
 11
40.3336
 21
17.145
 31
4.7752
  0
LINE
 62
0
  8
slabs_blocks
 10
43.32
 20
17.045
 30
4.7752
 11
43.32
 21
17.145
 31
4.7752
  0
LINE
 62
0
  8
slabs_blocks
 10
43.32
 20
17.145
 30
4.7752
 11
42.52
 21
17.145
 31
4.7752
  0
LINE
 62
0
  8
slabs_blocks
 10
43.92
 20
17.045
 30
4.7752
 11
43.92
 21
17.145
 31
4.7752
  0
LINE
 62
0
  8
slabs_blocks
 10
43.92
 20
17.145
 30
4.7752
 11
43.32
 21
17.145
 31
4.7752
  0
LINE
 62
0
  8
slabs_blocks
 10
47.52
 20
17.045
 30
4.7752
 11
47.52
 21
17.145
 31
4.7752
  0
LINE
 62
0
  8
slabs_blocks
 10
47.52
 20
17.145
 30
4.7752
 11
43.92
 21
17.145
 31
4.7752
  0
LINE
 62
0
  8
slabs_blocks
 10
48.668
 20
17.045
 30
4.7752
 11
48.668
 21
17.145
 31
4.7752
  0
LINE
 62
0
  8
slabs_blocks
 10
48.668
 20
17.145
 30
4.7752
 11
47.52
 21
17.145
 31
4.7752
  0
3DFACE
 62
0
  8
slabs_blocks
 10
7.828
 20
33.857
 30
4.7752
 11
9.596
 21
33.857
 31
4.7752
 12
9.596
 22
41.963
 32
4.7752
 13
7.828
 23
41.963
 33
4.7752
  0
LINE
 62
0
  8
slabs_blocks
 10
42.52
 20
17.245
 30
4.7752
 11
40.3336
 21
17.245
 31
4.7752
  0
LINE
 62
0
  8
slabs_blocks
 10
16.66
 20
25.351
 30
4.7752
 11
16.66
 21
25.451
 31
4.7752
  0
LINE
 62
0
  8
slabs_blocks
 10
43.32
 20
17.145
 30
4.7752
 11
43.32
 21
17.245
 31
4.7752
  0
3DFACE
 62
0
  8
slabs_blocks
 10
53.52
 20
42.163
 30
4.4196
 11
55.7784
 21
42.163
 31
4.4196
 12
55.7784
 22
44.77
 32
4.4196
 13
53.52
 23
44.77
 33
4.4196
  0
LINE
 62
0
  8
slabs_blocks
 10
43.92
 20
17.145
 30
4.7752
 11
43.92
 21
17.245
 31
4.7752
  0
LINE
 62
0
  8
slabs_blocks
 10
43.92
 20
17.245
 30
4.7752
 11
43.32
 21
17.245
 31
4.7752
  0
LINE
 62
0
  8
slabs_blocks
 10
47.52
 20
17.145
 30
4.7752
 11
47.52
 21
17.245
 31
4.7752
  0
LINE
 62
0
  8
slabs_blocks
 10
47.52
 20
17.245
 30
4.7752
 11
43.92
 21
17.245
 31
4.7752
  0
LINE
 62
0
  8
slabs_blocks
 10
48.668
 20
17.145
 30
4.7752
 11
48.668
 21
17.245
 31
4.7752
  0
3DFACE
 62
0
  8
slabs_blocks
 10
47.52
 20
8.739
 30
4.7752
 11
48.668
 21
8.739
 31
4.7752
 12
48.668
 22
8.839
 32
4.7752
 13
47.52
 23
8.839
 33
4.7752
  0
LINE
 62
0
  8
slabs_blocks
 10
42.52
 20
17.245
 30
4.7752
 11
42.52
 21
25.351
 31
4.7752
  0
3DFACE
 62
0
  8
slabs_blocks
 10
48.868
 20
44.77
 30
4.4196
 11
53.52
 21
44.77
 31
4.4196
 12
53.52
 22
48.159
 32
4.4196
 13
48.868
 23
48.159
 33
4.4196
  0
LINE
 62
0
  8
slabs_blocks
 10
40.3336
 20
25.351
 30
4.7752
 11
40.3336
 21
17.245
 31
4.7752
  0
LINE
 62
0
  8
slabs_blocks
 10
43.32
 20
17.245
 30
4.7752
 11
43.32
 21
25.351
 31
4.7752
  0
LINE
 62
0
  8
slabs_blocks
 10
43.32
 20
25.351
 30
4.7752
 11
42.52
 21
25.351
 31
4.7752
  0
LINE
 62
0
  8
slabs_blocks
 10
43.92
 20
17.245
 30
4.7752
 11
43.92
 21
25.351
 31
4.7752
  0
LINE
 62
0
  8
slabs_blocks
 10
43.92
 20
25.351
 30
4.7752
 11
43.32
 21
25.351
 31
4.7752
  0
3DFACE
 62
0
  8
slabs_blocks
 10
43.92
 20
8.839
 30
4.7752
 11
47.52
 21
8.839
 31
4.7752
 12
47.52
 22
8.875
 32
4.7752
 13
43.92
 23
8.875
 33
4.7752
  0
LINE
 62
0
  8
slabs_blocks
 10
47.52
 20
25.351
 30
4.7752
 11
43.92
 21
25.351
 31
4.7752
  0
LINE
 62
0
  8
slabs_blocks
 10
48.668
 20
17.245
 30
4.7752
 11
48.668
 21
25.351
 31
4.7752
  0
LINE
 62
0
  8
slabs_blocks
 10
48.668
 20
25.351
 30
4.7752
 11
47.52
 21
25.351
 31
4.7752
  0
LINE
 62
0
  8
slabs_blocks
 10
42.52
 20
25.351
 30
4.7752
 11
42.52
 21
25.451
 31
4.7752
  0
LINE
 62
0
  8
slabs_blocks
 10
42.52
 20
25.451
 30
4.7752
 11
40.3336
 21
25.451
 31
4.7752
  0
3DFACE
 62
0
  8
slabs_blocks
 10
5.996
 20
42.163
 30
4.7752
 11
6.096
 21
42.163
 31
4.7752
 12
6.096
 22
44.77
 32
4.7752
 13
5.996
 23
44.77
 33
4.7752
  0
LINE
 62
0
  8
slabs_blocks
 10
43.32
 20
25.351
 30
4.7752
 11
43.32
 21
25.451
 31
4.7752
  0
3DFACE
 62
0
  8
slabs_blocks
 10
43.32
 20
8.875
 30
4.7752
 11
43.92
 21
8.875
 31
4.7752
 12
43.92
 22
8.939
 32
4.7752
 13
43.32
 23
8.939
 33
4.7752
  0
LINE
 62
0
  8
slabs_blocks
 10
43.92
 20
25.351
 30
4.7752
 11
43.92
 21
25.451
 31
4.7752
  0
LINE
 62
0
  8
slabs_blocks
 10
43.92
 20
25.451
 30
4.7752
 11
43.32
 21
25.451
 31
4.7752
  0
3DFACE
 62
0
  8
slabs_blocks
 10
16.66
 20
25.551
 30
4.7752
 11
20.2708
 21
25.551
 31
4.7752
 12
20.2708
 22
29.257
 32
4.7752
 13
16.66
 23
29.257
 33
4.7752
  0
LINE
 62
0
  8
slabs_blocks
 10
47.52
 20
25.451
 30
4.7752
 11
43.92
 21
25.451
 31
4.7752
  0
LINE
 62
0
  8
slabs_blocks
 10
48.668
 20
25.351
 30
4.7752
 11
48.668
 21
25.451
 31
4.7752
  0
LINE
 62
0
  8
slabs_blocks
 10
48.668
 20
25.451
 30
4.7752
 11
47.52
 21
25.451
 31
4.7752
  0
LINE
 62
0
  8
slabs_blocks
 10
42.52
 20
25.451
 30
4.7752
 11
42.52
 21
25.551
 31
4.7752
  0
3DFACE
 62
0
  8
slabs_blocks
 10
42.52
 20
8.939
 30
4.7752
 11
43.32
 21
8.939
 31
4.7752
 12
43.32
 22
10.839
 32
4.7752
 13
42.52
 23
10.839
 33
4.7752
  0
LINE
 62
0
  8
slabs_blocks
 10
40.3336
 20
25.551
 30
4.7752
 11
40.3336
 21
25.451
 31
4.7752
  0
LINE
 62
0
  8
slabs_blocks
 10
43.32
 20
25.451
 30
4.7752
 11
43.32
 21
25.551
 31
4.7752
  0
3DFACE
 62
0
  8
slabs_blocks
 10
14.1208
 20
29.257
 30
4.7752
 11
16.66
 21
29.257
 31
4.7752
 12
16.66
 22
30.373
 32
4.7752
 13
14.1208
 23
30.373
 33
4.7752
  0
LINE
 62
0
  8
slabs_blocks
 10
43.92
 20
25.451
 30
4.7752
 11
43.92
 21
25.551
 31
4.7752
  0
3DFACE
 62
0
  8
slabs_blocks
 10
20.4708
 20
25.351
 30
4.4196
 11
32.2596
 21
25.351
 31
4.4196
 12
32.2596
 22
25.451
 32
4.4196
 13
20.4708
 23
25.451
 33
4.4196
  0
LINE
 62
0
  8
slabs_blocks
 10
47.52
 20
25.451
 30
4.7752
 11
47.52
 21
25.551
 31
4.7752
  0
LINE
 62
0
  8
slabs_blocks
 10
47.52
 20
25.551
 30
4.7752
 11
43.92
 21
25.551
 31
4.7752
  0
3DFACE
 62
0
  8
slabs_blocks
 10
40.3336
 20
10.839
 30
4.7752
 11
42.52
 21
10.839
 31
4.7752
 12
42.52
 22
10.975
 32
4.7752
 13
40.3336
 23
10.975
 33
4.7752
  0
LINE
 62
0
  8
slabs_blocks
 10
48.668
 20
25.551
 30
4.7752
 11
47.52
 21
25.551
 31
4.7752
  0
LINE
 62
0
  8
slabs_blocks
 10
42.52
 20
25.551
 30
4.7752
 11
42.52
 21
29.257
 31
4.7752
  0
LINE
 62
0
  8
slabs_blocks
 10
42.52
 20
29.257
 30
4.7752
 11
40.3336
 21
29.257
 31
4.7752
  0
LINE
 62
0
  8
slabs_blocks
 10
40.3336
 20
29.257
 30
4.7752
 11
40.3336
 21
25.551
 31
4.7752
  0
LINE
 62
0
  8
slabs_blocks
 10
43.32
 20
25.551
 30
4.7752
 11
43.32
 21
29.257
 31
4.7752
  0
LINE
 62
0
  8
slabs_blocks
 10
43.32
 20
29.257
 30
4.7752
 11
42.52
 21
29.257
 31
4.7752
  0
LINE
 62
0
  8
slabs_blocks
 10
43.92
 20
25.551
 30
4.7752
 11
43.92
 21
29.257
 31
4.7752
  0
LINE
 62
0
  8
slabs_blocks
 10
43.92
 20
29.257
 30
4.7752
 11
43.32
 21
29.257
 31
4.7752
  0
LINE
 62
0
  8
slabs_blocks
 10
47.52
 20
25.551
 30
4.7752
 11
47.52
 21
29.257
 31
4.7752
  0
LINE
 62
0
  8
slabs_blocks
 10
47.52
 20
29.257
 30
4.7752
 11
43.92
 21
29.257
 31
4.7752
  0
LINE
 62
0
  8
slabs_blocks
 10
48.668
 20
25.551
 30
4.7752
 11
48.668
 21
29.257
 31
4.7752
  0
LINE
 62
0
  8
slabs_blocks
 10
48.668
 20
29.257
 30
4.7752
 11
47.52
 21
29.257
 31
4.7752
  0
LINE
 62
0
  8
slabs_blocks
 10
42.52
 20
29.257
 30
4.7752
 11
42.52
 21
30.373
 31
4.7752
  0
LINE
 62
0
  8
slabs_blocks
 10
42.52
 20
30.373
 30
4.7752
 11
40.3336
 21
30.373
 31
4.7752
  0
LINE
 62
0
  8
slabs_blocks
 10
40.3336
 20
30.373
 30
4.7752
 11
40.3336
 21
29.257
 31
4.7752
  0
3DFACE
 62
0
  8
slabs_blocks
 10
5.996
 20
44.77
 30
4.4196
 11
6.096
 21
44.77
 31
4.4196
 12
6.096
 22
48.159
 32
4.4196
 13
5.996
 23
48.159
 33
4.4196
  0
LINE
 62
0
  8
slabs_blocks
 10
43.32
 20
30.373
 30
4.7752
 11
42.52
 21
30.373
 31
4.7752
  0
LINE
 62
0
  8
slabs_blocks
 10
43.92
 20
29.257
 30
4.7752
 11
43.92
 21
30.373
 31
4.7752
  0
LINE
 62
0
  8
slabs_blocks
 10
43.92
 20
30.373
 30
4.7752
 11
43.32
 21
30.373
 31
4.7752
  0
LINE
 62
0
  8
slabs_blocks
 10
47.52
 20
29.257
 30
4.7752
 11
47.52
 21
30.373
 31
4.7752
  0
LINE
 62
0
  8
slabs_blocks
 10
47.52
 20
30.373
 30
4.7752
 11
43.92
 21
30.373
 31
4.7752
  0
LINE
 62
0
  8
slabs_blocks
 10
48.668
 20
29.257
 30
4.7752
 11
48.668
 21
30.373
 31
4.7752
  0
LINE
 62
0
  8
slabs_blocks
 10
48.668
 20
30.373
 30
4.7752
 11
47.52
 21
30.373
 31
4.7752
  0
3DFACE
 62
0
  8
slabs_blocks
 10
32.4596
 20
17.045
 30
4.7752
 11
40.1336
 21
17.045
 31
4.7752
 12
40.1336
 22
17.145
 32
4.7752
 13
32.4596
 23
17.145
 33
4.7752
  0
LINE
 62
0
  8
slabs_blocks
 10
42.52
 20
33.183
 30
4.7752
 11
40.3336
 21
33.183
 31
4.7752
  0
LINE
 62
0
  8
slabs_blocks
 10
40.3336
 20
33.183
 30
4.7752
 11
40.3336
 21
30.373
 31
4.7752
  0
LINE
 62
0
  8
slabs_blocks
 10
43.32
 20
30.373
 30
4.7752
 11
43.32
 21
33.183
 31
4.7752
  0
LINE
 62
0
  8
slabs_blocks
 10
43.32
 20
33.183
 30
4.7752
 11
42.52
 21
33.183
 31
4.7752
  0
LINE
 62
0
  8
slabs_blocks
 10
43.92
 20
30.373
 30
4.7752
 11
43.92
 21
33.183
 31
4.7752
  0
LINE
 62
0
  8
slabs_blocks
 10
43.92
 20
33.183
 30
4.7752
 11
43.32
 21
33.183
 31
4.7752
  0
LINE
 62
0
  8
slabs_blocks
 10
47.52
 20
30.373
 30
4.7752
 11
47.52
 21
33.183
 31
4.7752
  0
LINE
 62
0
  8
slabs_blocks
 10
47.52
 20
33.183
 30
4.7752
 11
43.92
 21
33.183
 31
4.7752
  0
LINE
 62
0
  8
slabs_blocks
 10
48.668
 20
30.373
 30
4.7752
 11
48.668
 21
33.183
 31
4.7752
  0
LINE
 62
0
  8
slabs_blocks
 10
48.668
 20
33.183
 30
4.7752
 11
47.52
 21
33.183
 31
4.7752
  0
3DFACE
 62
0
  8
slabs_blocks
 10
9.596
 20
33.857
 30
4.7752
 11
10.2
 21
33.857
 31
4.7752
 12
10.2
 22
41.963
 32
4.7752
 13
9.596
 23
41.963
 33
4.7752
  0
LINE
 62
0
  8
slabs_blocks
 10
43.32
 20
29.257
 30
4.7752
 11
43.32
 21
30.373
 31
4.7752
  0
LINE
 62
0
  8
slabs_blocks
 10
40.3336
 20
33.657
 30
4.7752
 11
40.3336
 21
33.183
 31
4.7752
  0
LINE
 62
0
  8
slabs_blocks
 10
43.32
 20
33.183
 30
4.7752
 11
43.32
 21
33.657
 31
4.7752
  0
LINE
 62
0
  8
slabs_blocks
 10
43.32
 20
33.657
 30
4.7752
 11
42.52
 21
33.657
 31
4.7752
  0
LINE
 62
0
  8
slabs_blocks
 10
43.92
 20
33.183
 30
4.7752
 11
43.92
 21
33.657
 31
4.7752
  0
LINE
 62
0
  8
slabs_blocks
 10
43.92
 20
33.657
 30
4.7752
 11
43.32
 21
33.657
 31
4.7752
  0
LINE
 62
0
  8
slabs_blocks
 10
47.52
 20
33.183
 30
4.7752
 11
47.52
 21
33.657
 31
4.7752
  0
LINE
 62
0
  8
slabs_blocks
 10
47.52
 20
33.657
 30
4.7752
 11
43.92
 21
33.657
 31
4.7752
  0
LINE
 62
0
  8
slabs_blocks
 10
48.668
 20
33.183
 30
4.7752
 11
48.668
 21
33.657
 31
4.7752
  0
LINE
 62
0
  8
slabs_blocks
 10
48.668
 20
33.657
 30
4.7752
 11
47.52
 21
33.657
 31
4.7752
  0
LINE
 62
0
  8
slabs_blocks
 10
42.52
 20
33.657
 30
4.7752
 11
42.52
 21
33.757
 31
4.7752
  0
3DFACE
 62
0
  8
slabs_blocks
 10
53.52
 20
44.77
 30
4.4196
 11
55.7784
 21
44.77
 31
4.4196
 12
55.7784
 22
48.159
 32
4.4196
 13
53.52
 23
48.159
 33
4.4196
  0
LINE
 62
0
  8
slabs_blocks
 10
40.3336
 20
33.757
 30
4.7752
 11
40.3336
 21
33.657
 31
4.7752
  0
LINE
 62
0
  8
slabs_blocks
 10
43.32
 20
33.657
 30
4.7752
 11
43.32
 21
33.757
 31
4.7752
  0
LINE
 62
0
  8
slabs_blocks
 10
43.32
 20
33.757
 30
4.7752
 11
42.52
 21
33.757
 31
4.7752
  0
LINE
 62
0
  8
slabs_blocks
 10
43.92
 20
33.657
 30
4.7752
 11
43.92
 21
33.757
 31
4.7752
  0
LINE
 62
0
  8
slabs_blocks
 10
6.096
 20
25.351
 30
4.7752
 11
5.996
 21
25.351
 31
4.7752
  0
3DFACE
 62
0
  8
slabs_blocks
 10
47.52
 20
8.839
 30
4.7752
 11
48.668
 21
8.839
 31
4.7752
 12
48.668
 22
8.875
 32
4.7752
 13
47.52
 23
8.875
 33
4.7752
  0
LINE
 62
0
  8
slabs_blocks
 10
47.52
 20
33.757
 30
4.7752
 11
43.92
 21
33.757
 31
4.7752
  0
LINE
 62
0
  8
slabs_blocks
 10
48.668
 20
33.657
 30
4.7752
 11
48.668
 21
33.757
 31
4.7752
  0
LINE
 62
0
  8
slabs_blocks
 10
48.668
 20
33.757
 30
4.7752
 11
47.52
 21
33.757
 31
4.7752
  0
LINE
 62
0
  8
slabs_blocks
 10
42.52
 20
33.757
 30
4.7752
 11
42.52
 21
33.857
 31
4.7752
  0
LINE
 62
0
  8
slabs_blocks
 10
42.52
 20
33.857
 30
4.7752
 11
40.3336
 21
33.857
 31
4.7752
  0
3DFACE
 62
0
  8
slabs_blocks
 10
6.096
 20
42.163
 30
4.7752
 11
6.196
 21
42.163
 31
4.7752
 12
6.196
 22
44.77
 32
4.7752
 13
6.096
 23
44.77
 33
4.7752
  0
LINE
 62
0
  8
slabs_blocks
 10
43.32
 20
33.757
 30
4.7752
 11
43.32
 21
33.857
 31
4.7752
  0
3DFACE
 62
0
  8
slabs_blocks
 10
43.92
 20
8.875
 30
4.7752
 11
47.52
 21
8.875
 31
4.7752
 12
47.52
 22
8.939
 32
4.7752
 13
43.92
 23
8.939
 33
4.7752
  0
LINE
 62
0
  8
slabs_blocks
 10
14.1208
 20
30.373
 30
4.7752
 11
14.1208
 21
29.257
 31
4.7752
  0
LINE
 62
0
  8
slabs_blocks
 10
43.92
 20
33.857
 30
4.7752
 11
43.32
 21
33.857
 31
4.7752
  0
LINE
 62
0
  8
slabs_blocks
 10
47.52
 20
33.757
 30
4.7752
 11
47.52
 21
33.857
 31
4.7752
  0
LINE
 62
0
  8
slabs_blocks
 10
47.52
 20
33.857
 30
4.7752
 11
43.92
 21
33.857
 31
4.7752
  0
LINE
 62
0
  8
slabs_blocks
 10
48.668
 20
33.757
 30
4.7752
 11
48.668
 21
33.857
 31
4.7752
  0
LINE
 62
0
  8
slabs_blocks
 10
48.668
 20
33.857
 30
4.7752
 11
47.52
 21
33.857
 31
4.7752
  0
LINE
 62
0
  8
slabs_blocks
 10
42.52
 20
33.857
 30
4.7752
 11
42.52
 21
41.963
 31
4.7752
  0
3DFACE
 62
0
  8
slabs_blocks
 10
43.32
 20
8.939
 30
4.7752
 11
43.92
 21
8.939
 31
4.7752
 12
43.92
 22
10.839
 32
4.7752
 13
43.32
 23
10.839
 33
4.7752
  0
LINE
 62
0
  8
slabs_blocks
 10
40.3336
 20
41.963
 30
4.7752
 11
40.3336
 21
33.857
 31
4.7752
  0
LINE
 62
0
  8
slabs_blocks
 10
43.32
 20
33.857
 30
4.7752
 11
43.32
 21
41.963
 31
4.7752
  0
3DFACE
 62
0
  8
slabs_blocks
 10
16.66
 20
29.257
 30
4.7752
 11
20.2708
 21
29.257
 31
4.7752
 12
20.2708
 22
30.373
 32
4.7752
 13
16.66
 23
30.373
 33
4.7752
  0
LINE
 62
0
  8
slabs_blocks
 10
43.92
 20
33.857
 30
4.7752
 11
43.92
 21
41.963
 31
4.7752
  0
LINE
 62
0
  8
slabs_blocks
 10
20.2708
 20
30.373
 30
4.7752
 11
16.66
 21
30.373
 31
4.7752
  0
LINE
 62
0
  8
slabs_blocks
 10
47.52
 20
33.857
 30
4.7752
 11
47.52
 21
41.963
 31
4.7752
  0
LINE
 62
0
  8
slabs_blocks
 10
47.52
 20
41.963
 30
4.7752
 11
43.92
 21
41.963
 31
4.7752
  0
3DFACE
 62
0
  8
slabs_blocks
 10
42.52
 20
10.839
 30
4.7752
 11
43.32
 21
10.839
 31
4.7752
 12
43.32
 22
10.975
 32
4.7752
 13
42.52
 23
10.975
 33
4.7752
  0
LINE
 62
0
  8
slabs_blocks
 10
48.668
 20
41.963
 30
4.7752
 11
47.52
 21
41.963
 31
4.7752
  0
LINE
 62
0
  8
slabs_blocks
 10
48.868
 20
0.0
 30
4.7752
 11
53.52
 21
0.0
 31
4.7752
  0
3DFACE
 62
0
  8
slabs_blocks
 10
14.1208
 20
30.373
 30
4.7752
 11
16.66
 21
30.373
 31
4.7752
 12
16.66
 22
33.183
 32
4.7752
 13
14.1208
 23
33.183
 33
4.7752
  0
LINE
 62
0
  8
slabs_blocks
 10
53.52
 20
8.739
 30
4.7752
 11
48.868
 21
8.739
 31
4.7752
  0
3DFACE
 62
0
  8
slabs_blocks
 10
20.4708
 20
25.451
 30
4.4196
 11
32.2596
 21
25.451
 31
4.4196
 12
32.2596
 22
25.551
 32
4.4196
 13
20.4708
 23
25.551
 33
4.4196
  0
3DFACE
 62
0
  8
slabs_blocks
 10
0.0
 20
0.0
 30
4.7752
 11
5.996
 21
0.0
 31
4.7752
 12
5.996
 22
8.739
 32
4.7752
 13
0.0
 23
8.739
 33
4.7752
  0
LINE
 62
0
  8
slabs_blocks
 10
42.52
 20
30.373
 30
4.7752
 11
42.52
 21
33.183
 31
4.7752
  0
3DFACE
 62
0
  8
slabs_blocks
 10
40.3336
 20
10.975
 30
4.7752
 11
42.52
 21
10.975
 31
4.7752
 12
42.52
 22
16.02
 32
4.7752
 13
40.3336
 23
16.02
 33
4.7752
  0
LINE
 62
0
  8
slabs_blocks
 10
53.52
 20
8.839
 30
4.7752
 11
53.52
 21
8.875
 31
4.7752
  0
LINE
 62
0
  8
slabs_blocks
 10
53.52
 20
8.875
 30
4.7752
 11
48.868
 21
8.875
 31
4.7752
  0
LINE
 62
0
  8
slabs_blocks
 10
48.868
 20
8.875
 30
4.7752
 11
48.868
 21
8.839
 31
4.7752
  0
LINE
 62
0
  8
slabs_blocks
 10
53.52
 20
8.875
 30
4.7752
 11
53.52
 21
8.939
 31
4.7752
  0
LINE
 62
0
  8
slabs_blocks
 10
53.52
 20
8.939
 30
4.7752
 11
48.868
 21
8.939
 31
4.7752
  0
LINE
 62
0
  8
slabs_blocks
 10
48.868
 20
8.939
 30
4.7752
 11
48.868
 21
8.875
 31
4.7752
  0
LINE
 62
0
  8
slabs_blocks
 10
14.1208
 20
33.183
 30
4.7752
 11
14.1208
 21
30.373
 31
4.7752
  0
3DFACE
 62
0
  8
slabs_blocks
 10
6.096
 20
44.77
 30
4.4196
 11
6.196
 21
44.77
 31
4.4196
 12
6.196
 22
48.159
 32
4.4196
 13
6.096
 23
48.159
 33
4.4196
  0
LINE
 62
0
  8
slabs_blocks
 10
48.868
 20
10.839
 30
4.7752
 11
48.868
 21
8.939
 31
4.7752
  0
LINE
 62
0
  8
slabs_blocks
 10
53.52
 20
10.839
 30
4.7752
 11
53.52
 21
10.975
 31
4.7752
  0
LINE
 62
0
  8
slabs_blocks
 10
53.52
 20
10.975
 30
4.7752
 11
48.868
 21
10.975
 31
4.7752
  0
LINE
 62
0
  8
slabs_blocks
 10
48.868
 20
10.975
 30
4.7752
 11
48.868
 21
10.839
 31
4.7752
  0
3DFACE
 62
0
  8
slabs_blocks
 10
48.868
 20
16.02
 30
4.7752
 11
53.52
 21
16.02
 31
4.7752
 12
53.52
 22
17.045
 32
4.7752
 13
48.868
 23
17.045
 33
4.7752
  0
LINE
 62
0
  8
slabs_blocks
 10
40.3336
 20
17.145
 30
4.7752
 11
40.3336
 21
17.045
 31
4.7752
  0
LINE
 62
0
  8
slabs_blocks
 10
48.868
 20
16.02
 30
4.7752
 11
48.868
 21
10.975
 31
4.7752
  0
LINE
 62
0
  8
slabs_blocks
 10
40.3336
 20
10.839
 30
4.7752
 11
40.3336
 21
8.939
 31
4.7752
  0
LINE
 62
0
  8
slabs_blocks
 10
53.52
 20
17.045
 30
4.7752
 11
48.868
 21
17.045
 31
4.7752
  0
LINE
 62
0
  8
slabs_blocks
 10
48.868
 20
17.045
 30
4.7752
 11
48.868
 21
16.02
 31
4.7752
  0
LINE
 62
0
  8
slabs_blocks
 10
53.52
 20
17.045
 30
4.7752
 11
53.52
 21
17.145
 31
4.7752
  0
LINE
 62
0
  8
slabs_blocks
 10
53.52
 20
17.145
 30
4.7752
 11
48.868
 21
17.145
 31
4.7752
  0
LINE
 62
0
  8
slabs_blocks
 10
48.868
 20
17.145
 30
4.7752
 11
48.868
 21
17.045
 31
4.7752
  0
LINE
 62
0
  8
slabs_blocks
 10
53.52
 20
17.145
 30
4.7752
 11
53.52
 21
17.245
 31
4.7752
  0
LINE
 62
0
  8
slabs_blocks
 10
53.52
 20
17.245
 30
4.7752
 11
48.868
 21
17.245
 31
4.7752
  0
3DFACE
 62
0
  8
slabs_blocks
 10
32.4596
 20
17.145
 30
4.7752
 11
40.1336
 21
17.145
 31
4.7752
 12
40.1336
 22
17.245
 32
4.7752
 13
32.4596
 23
17.245
 33
4.7752
  0
LINE
 62
0
  8
slabs_blocks
 10
16.66
 20
33.183
 30
4.7752
 11
16.66
 21
33.657
 31
4.7752
  0
LINE
 62
0
  8
slabs_blocks
 10
53.52
 20
25.351
 30
4.7752
 11
48.868
 21
25.351
 31
4.7752
  0
3DFACE
 62
0
  8
slabs_blocks
 10
10.2
 20
33.857
 30
4.7752
 11
11.0
 21
33.857
 31
4.7752
 12
11.0
 22
41.963
 32
4.7752
 13
10.2
 23
41.963
 33
4.7752
  0
LINE
 62
0
  8
slabs_blocks
 10
53.52
 20
25.351
 30
4.7752
 11
53.52
 21
25.451
 31
4.7752
  0
3DFACE
 62
0
  8
slabs_blocks
 10
48.868
 20
0.0
 30
4.7752
 11
53.52
 21
0.0
 31
4.7752
 12
53.52
 22
8.739
 32
4.7752
 13
48.868
 23
8.739
 33
4.7752
  0
LINE
 62
0
  8
slabs_blocks
 10
48.868
 20
25.451
 30
4.7752
 11
48.868
 21
25.351
 31
4.7752
  0
LINE
 62
0
  8
slabs_blocks
 10
53.52
 20
25.451
 30
4.7752
 11
53.52
 21
25.551
 31
4.7752
  0
LINE
 62
0
  8
slabs_blocks
 10
53.52
 20
25.551
 30
4.7752
 11
48.868
 21
25.551
 31
4.7752
  0
LINE
 62
0
  8
slabs_blocks
 10
48.868
 20
25.551
 30
4.7752
 11
48.868
 21
25.451
 31
4.7752
  0
LINE
 62
0
  8
slabs_blocks
 10
53.52
 20
25.551
 30
4.7752
 11
53.52
 21
29.257
 31
4.7752
  0
LINE
 62
0
  8
slabs_blocks
 10
53.52
 20
29.257
 30
4.7752
 11
48.868
 21
29.257
 31
4.7752
  0
LINE
 62
0
  8
slabs_blocks
 10
48.868
 20
29.257
 30
4.7752
 11
48.868
 21
25.551
 31
4.7752
  0
LINE
 62
0
  8
slabs_blocks
 10
53.52
 20
29.257
 30
4.7752
 11
53.52
 21
30.373
 31
4.7752
  0
LINE
 62
0
  8
slabs_blocks
 10
53.52
 20
30.373
 30
4.7752
 11
48.868
 21
30.373
 31
4.7752
  0
LINE
 62
0
  8
slabs_blocks
 10
48.868
 20
30.373
 30
4.7752
 11
48.868
 21
29.257
 31
4.7752
  0
LINE
 62
0
  8
slabs_blocks
 10
53.52
 20
30.373
 30
4.7752
 11
53.52
 21
33.183
 31
4.7752
  0
LINE
 62
0
  8
slabs_blocks
 10
53.52
 20
33.183
 30
4.7752
 11
48.868
 21
33.183
 31
4.7752
  0
LINE
 62
0
  8
slabs_blocks
 10
48.868
 20
33.183
 30
4.7752
 11
48.868
 21
30.373
 31
4.7752
  0
LINE
 62
0
  8
slabs_blocks
 10
53.52
 20
33.183
 30
4.7752
 11
53.52
 21
33.657
 31
4.7752
  0
LINE
 62
0
  8
slabs_blocks
 10
53.52
 20
33.657
 30
4.7752
 11
48.868
 21
33.657
 31
4.7752
  0
LINE
 62
0
  8
slabs_blocks
 10
48.868
 20
33.657
 30
4.7752
 11
48.868
 21
33.183
 31
4.7752
  0
LINE
 62
0
  8
slabs_blocks
 10
53.52
 20
33.657
 30
4.7752
 11
53.52
 21
33.757
 31
4.7752
  0
LINE
 62
0
  8
slabs_blocks
 10
53.52
 20
33.757
 30
4.7752
 11
48.868
 21
33.757
 31
4.7752
  0
LINE
 62
0
  8
slabs_blocks
 10
48.868
 20
33.757
 30
4.7752
 11
48.868
 21
33.657
 31
4.7752
  0
LINE
 62
0
  8
slabs_blocks
 10
53.52
 20
33.757
 30
4.7752
 11
53.52
 21
33.857
 31
4.7752
  0
LINE
 62
0
  8
slabs_blocks
 10
53.52
 20
33.857
 30
4.7752
 11
48.868
 21
33.857
 31
4.7752
  0
3DFACE
 62
0
  8
slabs_blocks
 10
6.196
 20
42.163
 30
4.7752
 11
7.828
 21
42.163
 31
4.7752
 12
7.828
 22
44.77
 32
4.7752
 13
6.196
 23
44.77
 33
4.7752
  0
LINE
 62
0
  8
slabs_blocks
 10
53.52
 20
33.857
 30
4.7752
 11
53.52
 21
41.963
 31
4.7752
  0
3DFACE
 62
0
  8
slabs_blocks
 10
47.52
 20
8.875
 30
4.7752
 11
48.668
 21
8.875
 31
4.7752
 12
48.668
 22
8.939
 32
4.7752
 13
47.52
 23
8.939
 33
4.7752
  0
LINE
 62
0
  8
slabs_blocks
 10
48.868
 20
41.963
 30
4.7752
 11
48.868
 21
33.857
 31
4.7752
  0
3DFACE
 62
0
  8
slabs_blocks
 10
53.52
 20
0.0
 30
4.4196
 11
55.7784
 21
0.0
 31
4.4196
 12
55.7784
 22
8.739
 32
4.4196
 13
53.52
 23
8.739
 33
4.4196
  0
LINE
 62
0
  8
slabs_blocks
 10
55.7784
 20
0.0
 30
4.4196
 11
55.7784
 21
8.739
 31
4.4196
  0
LINE
 62
0
  8
slabs_blocks
 10
55.7784
 20
8.739
 30
4.4196
 11
53.52
 21
8.739
 31
4.4196
  0
LINE
 62
0
  8
slabs_blocks
 10
53.52
 20
8.739
 30
4.4196
 11
53.52
 21
0.0
 31
4.4196
  0
LINE
 62
0
  8
slabs_blocks
 10
55.7784
 20
8.739
 30
4.4196
 11
55.7784
 21
8.839
 31
4.4196
  0
LINE
 62
0
  8
slabs_blocks
 10
55.7784
 20
8.839
 30
4.4196
 11
53.52
 21
8.839
 31
4.4196
  0
3DFACE
 62
0
  8
slabs_blocks
 10
43.92
 20
8.939
 30
4.7752
 11
47.52
 21
8.939
 31
4.7752
 12
47.52
 22
10.839
 32
4.7752
 13
43.92
 23
10.839
 33
4.7752
  0
LINE
 62
0
  8
slabs_blocks
 10
55.7784
 20
8.839
 30
4.4196
 11
55.7784
 21
8.875
 31
4.4196
  0
LINE
 62
0
  8
slabs_blocks
 10
55.7784
 20
8.875
 30
4.4196
 11
53.52
 21
8.875
 31
4.4196
  0
LINE
 62
0
  8
slabs_blocks
 10
53.52
 20
8.875
 30
4.4196
 11
53.52
 21
8.839
 31
4.4196
  0
LINE
 62
0
  8
slabs_blocks
 10
42.52
 20
33.183
 30
4.7752
 11
42.52
 21
33.657
 31
4.7752
  0
LINE
 62
0
  8
slabs_blocks
 10
55.7784
 20
8.939
 30
4.4196
 11
53.52
 21
8.939
 31
4.4196
  0
LINE
 62
0
  8
slabs_blocks
 10
53.52
 20
8.939
 30
4.4196
 11
53.52
 21
8.875
 31
4.4196
  0
LINE
 62
0
  8
slabs_blocks
 10
55.7784
 20
8.939
 30
4.4196
 11
55.7784
 21
10.839
 31
4.4196
  0
3DFACE
 62
0
  8
slabs_blocks
 10
43.32
 20
10.839
 30
4.7752
 11
43.92
 21
10.839
 31
4.7752
 12
43.92
 22
10.975
 32
4.7752
 13
43.32
 23
10.975
 33
4.7752
  0
LINE
 62
0
  8
slabs_blocks
 10
53.52
 20
10.839
 30
4.4196
 11
53.52
 21
8.939
 31
4.4196
  0
LINE
 62
0
  8
slabs_blocks
 10
42.52
 20
33.657
 30
4.7752
 11
40.3336
 21
33.657
 31
4.7752
  0
3DFACE
 62
0
  8
slabs_blocks
 10
16.66
 20
30.373
 30
4.7752
 11
20.2708
 21
30.373
 31
4.7752
 12
20.2708
 22
33.183
 32
4.7752
 13
16.66
 23
33.183
 33
4.7752
  0
LINE
 62
0
  8
slabs_blocks
 10
20.2708
 20
33.657
 30
4.7752
 11
20.2708
 21
33.757
 31
4.7752
  0
LINE
 62
0
  8
slabs_blocks
 10
55.7784
 20
10.975
 30
4.4196
 11
55.7784
 21
16.02
 31
4.4196
  0
3DFACE
 62
0
  8
slabs_blocks
 10
5.996
 20
0.0
 30
4.7752
 11
6.096
 21
0.0
 31
4.7752
 12
6.096
 22
8.739
 32
4.7752
 13
5.996
 23
8.739
 33
4.7752
  0
LINE
 62
0
  8
slabs_blocks
 10
43.32
 20
10.839
 30
4.7752
 11
42.52
 21
10.839
 31
4.7752
  0
3DFACE
 62
0
  8
slabs_blocks
 10
42.52
 20
10.975
 30
4.7752
 11
43.32
 21
10.975
 31
4.7752
 12
43.32
 22
16.02
 32
4.7752
 13
42.52
 23
16.02
 33
4.7752
  0
LINE
 62
0
  8
slabs_blocks
 10
55.7784
 20
17.045
 30
4.4196
 11
53.52
 21
17.045
 31
4.4196
  0
LINE
 62
0
  8
slabs_blocks
 10
20.2708
 20
33.757
 30
4.7752
 11
16.66
 21
33.757
 31
4.7752
  0
3DFACE
 62
0
  8
slabs_blocks
 10
14.1208
 20
33.183
 30
4.7752
 11
16.66
 21
33.183
 31
4.7752
 12
16.66
 22
33.657
 32
4.7752
 13
14.1208
 23
33.657
 33
4.7752
  0
LINE
 62
0
  8
slabs_blocks
 10
55.7784
 20
17.145
 30
4.4196
 11
53.52
 21
17.145
 31
4.4196
  0
3DFACE
 62
0
  8
slabs_blocks
 10
20.4708
 20
25.551
 30
4.4196
 11
32.2596
 21
25.551
 31
4.4196
 12
32.2596
 22
29.257
 32
4.4196
 13
20.4708
 23
29.257
 33
4.4196
  0
LINE
 62
0
  8
slabs_blocks
 10
55.7784
 20
17.145
 30
4.4196
 11
55.7784
 21
17.245
 31
4.4196
  0
LINE
 62
0
  8
slabs_blocks
 10
55.7784
 20
17.245
 30
4.4196
 11
53.52
 21
17.245
 31
4.4196
  0
3DFACE
 62
0
  8
slabs_blocks
 10
40.3336
 20
16.02
 30
4.7752
 11
42.52
 21
16.02
 31
4.7752
 12
42.52
 22
17.045
 32
4.7752
 13
40.3336
 23
17.045
 33
4.7752
  0
LINE
 62
0
  8
slabs_blocks
 10
55.7784
 20
17.245
 30
4.4196
 11
55.7784
 21
25.351
 31
4.4196
  0
LINE
 62
0
  8
slabs_blocks
 10
55.7784
 20
25.351
 30
4.4196
 11
53.52
 21
25.351
 31
4.4196
  0
LINE
 62
0
  8
slabs_blocks
 10
53.52
 20
25.351
 30
4.4196
 11
53.52
 21
17.245
 31
4.4196
  0
LINE
 62
0
  8
slabs_blocks
 10
55.7784
 20
25.351
 30
4.4196
 11
55.7784
 21
25.451
 31
4.4196
  0
LINE
 62
0
  8
slabs_blocks
 10
55.7784
 20
25.451
 30
4.4196
 11
53.52
 21
25.451
 31
4.4196
  0
LINE
 62
0
  8
slabs_blocks
 10
53.52
 20
25.451
 30
4.4196
 11
53.52
 21
25.351
 31
4.4196
  0
LINE
 62
0
  8
slabs_blocks
 10
55.7784
 20
25.451
 30
4.4196
 11
55.7784
 21
25.551
 31
4.4196
  0
LINE
 62
0
  8
slabs_blocks
 10
55.7784
 20
25.551
 30
4.4196
 11
53.52
 21
25.551
 31
4.4196
  0
LINE
 62
0
  8
slabs_blocks
 10
53.52
 20
25.551
 30
4.4196
 11
53.52
 21
25.451
 31
4.4196
  0
LINE
 62
0
  8
slabs_blocks
 10
55.7784
 20
25.551
 30
4.4196
 11
55.7784
 21
29.257
 31
4.4196
  0
LINE
 62
0
  8
slabs_blocks
 10
55.7784
 20
29.257
 30
4.4196
 11
53.52
 21
29.257
 31
4.4196
  0
LINE
 62
0
  8
slabs_blocks
 10
53.52
 20
29.257
 30
4.4196
 11
53.52
 21
25.551
 31
4.4196
  0
LINE
 62
0
  8
slabs_blocks
 10
55.7784
 20
29.257
 30
4.4196
 11
55.7784
 21
30.373
 31
4.4196
  0
LINE
 62
0
  8
slabs_blocks
 10
55.7784
 20
30.373
 30
4.4196
 11
53.52
 21
30.373
 31
4.4196
  0
LINE
 62
0
  8
slabs_blocks
 10
47.52
 20
17.245
 30
4.7752
 11
47.52
 21
25.351
 31
4.7752
  0
LINE
 62
0
  8
slabs_blocks
 10
55.7784
 20
30.373
 30
4.4196
 11
55.7784
 21
33.183
 31
4.4196
  0
LINE
 62
0
  8
slabs_blocks
 10
55.7784
 20
33.183
 30
4.4196
 11
53.52
 21
33.183
 31
4.4196
  0
LINE
 62
0
  8
slabs_blocks
 10
53.52
 20
33.183
 30
4.4196
 11
53.52
 21
30.373
 31
4.4196
  0
3DFACE
 62
0
  8
slabs_blocks
 10
11.0
 20
33.857
 30
4.7752
 11
13.9208
 21
33.857
 31
4.7752
 12
13.9208
 22
41.963
 32
4.7752
 13
11.0
 23
41.963
 33
4.7752
  0
LINE
 62
0
  8
slabs_blocks
 10
55.7784
 20
33.657
 30
4.4196
 11
53.52
 21
33.657
 31
4.4196
  0
LINE
 62
0
  8
slabs_blocks
 10
53.52
 20
33.657
 30
4.4196
 11
53.52
 21
33.183
 31
4.4196
  0
LINE
 62
0
  8
slabs_blocks
 10
55.7784
 20
33.657
 30
4.4196
 11
55.7784
 21
33.757
 31
4.4196
  0
LINE
 62
0
  8
slabs_blocks
 10
55.7784
 20
33.757
 30
4.4196
 11
53.52
 21
33.757
 31
4.4196
  0
3DFACE
 62
0
  8
slabs_blocks
 10
32.4596
 20
17.245
 30
4.7752
 11
40.1336
 21
17.245
 31
4.7752
 12
40.1336
 22
25.351
 32
4.7752
 13
32.4596
 23
25.351
 33
4.7752
  0
LINE
 62
0
  8
slabs_blocks
 10
55.7784
 20
33.757
 30
4.4196
 11
55.7784
 21
33.857
 31
4.4196
  0
LINE
 62
0
  8
slabs_blocks
 10
55.7784
 20
33.857
 30
4.4196
 11
53.52
 21
33.857
 31
4.4196
  0
LINE
 62
0
  8
slabs_blocks
 10
53.52
 20
33.857
 30
4.4196
 11
53.52
 21
33.757
 31
4.4196
  0
LINE
 62
0
  8
slabs_blocks
 10
55.7784
 20
33.857
 30
4.4196
 11
55.7784
 21
41.963
 31
4.4196
  0
3DFACE
 62
0
  8
slabs_blocks
 10
48.868
 20
8.739
 30
4.7752
 11
53.52
 21
8.739
 31
4.7752
 12
53.52
 22
8.839
 32
4.7752
 13
48.868
 23
8.839
 33
4.7752
  0
LINE
 62
0
  8
slabs_blocks
 10
53.52
 20
41.963
 30
4.4196
 11
53.52
 21
33.857
 31
4.4196
  0
LINE
 62
0
  8
slabs_blocks
 10
55.7784
 20
41.963
 30
4.4196
 11
55.7784
 21
42.063
 31
4.4196
  0
LINE
 62
0
  8
slabs_blocks
 10
55.7784
 20
42.063
 30
4.4196
 11
53.52
 21
42.063
 31
4.4196
  0
LINE
 62
0
  8
slabs_blocks
 10
53.52
 20
42.063
 30
4.4196
 11
53.52
 21
41.963
 31
4.4196
  0
LINE
 62
0
  8
slabs_blocks
 10
55.7784
 20
42.063
 30
4.4196
 11
55.7784
 21
42.163
 31
4.4196
  0
LINE
 62
0
  8
slabs_blocks
 10
55.7784
 20
42.163
 30
4.4196
 11
53.52
 21
42.163
 31
4.4196
  0
LINE
 62
0
  8
slabs_blocks
 10
16.66
 20
41.963
 30
4.7752
 11
14.1208
 21
41.963
 31
4.7752
  0
LINE
 62
0
  8
slabs_blocks
 10
55.7784
 20
42.163
 30
4.4196
 11
55.7784
 21
44.77
 31
4.4196
  0
LINE
 62
0
  8
slabs_blocks
 10
55.7784
 20
44.77
 30
4.4196
 11
53.52
 21
44.77
 31
4.4196
  0
LINE
 62
0
  8
slabs_blocks
 10
53.52
 20
44.77
 30
4.4196
 11
53.52
 21
42.163
 31
4.4196
  0
LINE
 62
0
  8
slabs_blocks
 10
0.0
 20
44.77
 30
4.4196
 11
5.996
 21
44.77
 31
4.4196
  0
LINE
 62
0
  8
slabs_blocks
 10
5.996
 20
44.77
 30
4.4196
 11
5.996
 21
48.159
 31
4.4196
  0
LINE
 62
0
  8
slabs_blocks
 10
5.996
 20
48.159
 30
4.4196
 11
0.0
 21
48.159
 31
4.4196
  0
3DFACE
 62
0
  8
slabs_blocks
 10
7.828
 20
42.163
 30
4.7752
 11
9.596
 21
42.163
 31
4.7752
 12
9.596
 22
44.77
 32
4.7752
 13
7.828
 23
44.77
 33
4.7752
  0
LINE
 62
0
  8
slabs_blocks
 10
5.996
 20
44.77
 30
4.4196
 11
6.096
 21
44.77
 31
4.4196
  0
LINE
 62
0
  8
slabs_blocks
 10
6.096
 20
44.77
 30
4.4196
 11
6.096
 21
48.159
 31
4.4196
  0
LINE
 62
0
  8
slabs_blocks
 10
6.096
 20
48.159
 30
4.4196
 11
5.996
 21
48.159
 31
4.4196
  0
LINE
 62
0
  8
slabs_blocks
 10
6.096
 20
44.77
 30
4.4196
 11
6.196
 21
44.77
 31
4.4196
  0
LINE
 62
0
  8
slabs_blocks
 10
20.2708
 20
33.857
 30
4.7752
 11
20.2708
 21
41.963
 31
4.7752
  0
LINE
 62
0
  8
slabs_blocks
 10
6.196
 20
48.159
 30
4.4196
 11
6.096
 21
48.159
 31
4.4196
  0
LINE
 62
0
  8
slabs_blocks
 10
6.196
 20
44.77
 30
4.4196
 11
7.828
 21
44.77
 31
4.4196
  0
LINE
 62
0
  8
slabs_blocks
 10
7.828
 20
44.77
 30
4.4196
 11
7.828
 21
48.159
 31
4.4196
  0
LINE
 62
0
  8
slabs_blocks
 10
42.52
 20
33.757
 30
4.7752
 11
40.3336
 21
33.757
 31
4.7752
  0
3DFACE
 62
0
  8
slabs_blocks
 10
47.52
 20
8.939
 30
4.7752
 11
48.668
 21
8.939
 31
4.7752
 12
48.668
 22
10.839
 32
4.7752
 13
47.52
 23
10.839
 33
4.7752
  0
LINE
 62
0
  8
slabs_blocks
 10
9.596
 20
44.77
 30
4.4196
 11
9.596
 21
48.159
 31
4.4196
  0
3DFACE
 62
0
  8
slabs_blocks
 10
53.52
 20
8.739
 30
4.4196
 11
55.7784
 21
8.739
 31
4.4196
 12
55.7784
 22
8.839
 32
4.4196
 13
53.52
 23
8.839
 33
4.4196
  0
LINE
 62
0
  8
slabs_blocks
 10
9.596
 20
44.77
 30
4.4196
 11
10.2
 21
44.77
 31
4.4196
  0
LINE
 62
0
  8
slabs_blocks
 10
10.2
 20
44.77
 30
4.4196
 11
10.2
 21
48.159
 31
4.4196
  0
LINE
 62
0
  8
slabs_blocks
 10
10.2
 20
48.159
 30
4.4196
 11
9.596
 21
48.159
 31
4.4196
  0
LINE
 62
0
  8
slabs_blocks
 10
10.2
 20
44.77
 30
4.4196
 11
11.0
 21
44.77
 31
4.4196
  0
LINE
 62
0
  8
slabs_blocks
 10
20.4708
 20
0.0
 30
4.7752
 11
32.2596
 21
0.0
 31
4.7752
  0
3DFACE
 62
0
  8
slabs_blocks
 10
43.92
 20
10.839
 30
4.7752
 11
47.52
 21
10.839
 31
4.7752
 12
47.52
 22
10.975
 32
4.7752
 13
43.92
 23
10.975
 33
4.7752
  0
LINE
 62
0
  8
slabs_blocks
 10
11.0
 20
44.77
 30
4.4196
 11
13.9208
 21
44.77
 31
4.4196
  0
LINE
 62
0
  8
slabs_blocks
 10
53.52
 20
25.451
 30
4.7752
 11
48.868
 21
25.451
 31
4.7752
  0
LINE
 62
0
  8
slabs_blocks
 10
42.52
 20
17.145
 30
4.7752
 11
42.52
 21
17.245
 31
4.7752
  0
LINE
 62
0
  8
slabs_blocks
 10
13.9208
 20
44.77
 30
4.4196
 11
14.0208
 21
44.77
 31
4.4196
  0
LINE
 62
0
  8
slabs_blocks
 10
14.0208
 20
44.77
 30
4.4196
 11
14.0208
 21
48.159
 31
4.4196
  0
3DFACE
 62
0
  8
slabs_blocks
 10
6.096
 20
0.0
 30
4.7752
 11
6.196
 21
0.0
 31
4.7752
 12
6.196
 22
8.739
 32
4.7752
 13
6.096
 23
8.739
 33
4.7752
  0
LINE
 62
0
  8
slabs_blocks
 10
0.0
 20
0.0
 30
4.7752
 11
5.996
 21
0.0
 31
4.7752
  0
3DFACE
 62
0
  8
slabs_blocks
 10
43.32
 20
10.975
 30
4.7752
 11
43.92
 21
10.975
 31
4.7752
 12
43.92
 22
16.02
 32
4.7752
 13
43.32
 23
16.02
 33
4.7752
  0
LINE
 62
0
  8
slabs_blocks
 10
14.1208
 20
48.159
 30
4.4196
 11
14.0208
 21
48.159
 31
4.4196
  0
LINE
 62
0
  8
slabs_blocks
 10
14.1208
 20
44.77
 30
4.4196
 11
16.66
 21
44.77
 31
4.4196
  0
3DFACE
 62
0
  8
slabs_blocks
 10
16.66
 20
33.183
 30
4.7752
 11
20.2708
 21
33.183
 31
4.7752
 12
20.2708
 22
33.657
 32
4.7752
 13
16.66
 23
33.657
 33
4.7752
  0
LINE
 62
0
  8
slabs_blocks
 10
16.66
 20
48.159
 30
4.4196
 11
14.1208
 21
48.159
 31
4.4196
  0
LINE
 62
0
  8
slabs_blocks
 10
5.996
 20
0.0
 30
4.7752
 11
5.996
 21
8.739
 31
4.7752
  0
LINE
 62
0
  8
slabs_blocks
 10
20.2708
 20
44.77
 30
4.4196
 11
20.2708
 21
48.159
 31
4.4196
  0
LINE
 62
0
  8
slabs_blocks
 10
20.2708
 20
48.159
 30
4.4196
 11
16.66
 21
48.159
 31
4.4196
  0
3DFACE
 62
0
  8
slabs_blocks
 10
42.52
 20
16.02
 30
4.7752
 11
43.32
 21
16.02
 31
4.7752
 12
43.32
 22
17.045
 32
4.7752
 13
42.52
 23
17.045
 33
4.7752
  0
LINE
 62
0
  8
slabs_blocks
 10
20.4708
 20
8.739
 30
4.7752
 11
20.4708
 21
0.0
 31
4.7752
  0
LINE
 62
0
  8
slabs_blocks
 10
20.3708
 20
48.159
 30
4.4196
 11
20.2708
 21
48.159
 31
4.4196
  0
3DFACE
 62
0
  8
slabs_blocks
 10
14.1208
 20
33.657
 30
4.7752
 11
16.66
 21
33.657
 31
4.7752
 12
16.66
 22
33.757
 32
4.7752
 13
14.1208
 23
33.757
 33
4.7752
  0
LINE
 62
0
  8
slabs_blocks
 10
47.52
 20
8.939
 30
4.7752
 11
47.52
 21
10.839
 31
4.7752
  0
3DFACE
 62
0
  8
slabs_blocks
 10
20.4708
 20
29.257
 30
4.4196
 11
32.2596
 21
29.257
 31
4.4196
 12
32.2596
 22
30.373
 32
4.4196
 13
20.4708
 23
30.373
 33
4.4196
  0
LINE
 62
0
  8
slabs_blocks
 10
32.3596
 20
48.159
 30
4.4196
 11
32.3596
 21
44.77
 31
4.4196
  0
LINE
 62
0
  8
slabs_blocks
 10
32.4596
 20
44.77
 30
4.4196
 11
40.1336
 21
44.77
 31
4.4196
  0
3DFACE
 62
0
  8
slabs_blocks
 10
40.3336
 20
17.045
 30
4.7752
 11
42.52
 21
17.045
 31
4.7752
 12
42.52
 22
17.145
 32
4.7752
 13
40.3336
 23
17.145
 33
4.7752
  0
LINE
 62
0
  8
slabs_blocks
 10
40.1336
 20
48.159
 30
4.4196
 11
32.4596
 21
48.159
 31
4.4196
  0
LINE
 62
0
  8
slabs_blocks
 10
40.1336
 20
44.77
 30
4.4196
 11
40.2336
 21
44.77
 31
4.4196
  0
LINE
 62
0
  8
slabs_blocks
 10
47.52
 20
33.657
 30
4.7752
 11
47.52
 21
33.757
 31
4.7752
  0
LINE
 62
0
  8
slabs_blocks
 10
40.2336
 20
48.159
 30
4.4196
 11
40.1336
 21
48.159
 31
4.4196
  0
LINE
 62
0
  8
slabs_blocks
 10
40.2336
 20
44.77
 30
4.4196
 11
40.3336
 21
44.77
 31
4.4196
  0
LINE
 62
0
  8
slabs_blocks
 10
40.3336
 20
44.77
 30
4.4196
 11
40.3336
 21
48.159
 31
4.4196
  0
LINE
 62
0
  8
slabs_blocks
 10
5.996
 20
0.0
 30
4.7752
 11
6.096
 21
0.0
 31
4.7752
  0
LINE
 62
0
  8
slabs_blocks
 10
40.3336
 20
44.77
 30
4.4196
 11
42.52
 21
44.77
 31
4.4196
  0
LINE
 62
0
  8
slabs_blocks
 10
42.52
 20
44.77
 30
4.4196
 11
42.52
 21
48.159
 31
4.4196
  0
LINE
 62
0
  8
slabs_blocks
 10
42.52
 20
48.159
 30
4.4196
 11
40.3336
 21
48.159
 31
4.4196
  0
LINE
 62
0
  8
slabs_blocks
 10
42.52
 20
44.77
 30
4.4196
 11
43.32
 21
44.77
 31
4.4196
  0
LINE
 62
0
  8
slabs_blocks
 10
43.32
 20
44.77
 30
4.4196
 11
43.32
 21
48.159
 31
4.4196
  0
LINE
 62
0
  8
slabs_blocks
 10
43.32
 20
48.159
 30
4.4196
 11
42.52
 21
48.159
 31
4.4196
  0
LINE
 62
0
  8
slabs_blocks
 10
43.32
 20
44.77
 30
4.4196
 11
43.92
 21
44.77
 31
4.4196
  0
LINE
 62
0
  8
slabs_blocks
 10
43.92
 20
44.77
 30
4.4196
 11
43.92
 21
48.159
 31
4.4196
  0
LINE
 62
0
  8
slabs_blocks
 10
43.92
 20
48.159
 30
4.4196
 11
43.32
 21
48.159
 31
4.4196
  0
LINE
 62
0
  8
slabs_blocks
 10
43.92
 20
44.77
 30
4.4196
 11
47.52
 21
44.77
 31
4.4196
  0
LINE
 62
0
  8
slabs_blocks
 10
47.52
 20
44.77
 30
4.4196
 11
47.52
 21
48.159
 31
4.4196
  0
LINE
 62
0
  8
slabs_blocks
 10
6.096
 20
8.739
 30
4.7752
 11
5.996
 21
8.739
 31
4.7752
  0
LINE
 62
0
  8
slabs_blocks
 10
47.52
 20
44.77
 30
4.4196
 11
48.668
 21
44.77
 31
4.4196
  0
LINE
 62
0
  8
slabs_blocks
 10
48.668
 20
44.77
 30
4.4196
 11
48.668
 21
48.159
 31
4.4196
  0
LINE
 62
0
  8
slabs_blocks
 10
48.668
 20
48.159
 30
4.4196
 11
47.52
 21
48.159
 31
4.4196
  0
LINE
 62
0
  8
slabs_blocks
 10
48.668
 20
44.77
 30
4.4196
 11
48.768
 21
44.77
 31
4.4196
  0
3DFACE
 62
0
  8
slabs_blocks
 10
32.4596
 20
25.351
 30
4.7752
 11
40.1336
 21
25.351
 31
4.7752
 12
40.1336
 22
25.451
 32
4.7752
 13
32.4596
 23
25.451
 33
4.7752
  0
LINE
 62
0
  8
slabs_blocks
 10
6.096
 20
0.0
 30
4.7752
 11
6.196
 21
0.0
 31
4.7752
  0
LINE
 62
0
  8
slabs_blocks
 10
48.768
 20
44.77
 30
4.4196
 11
48.868
 21
44.77
 31
4.4196
  0
LINE
 62
0
  8
slabs_blocks
 10
32.4596
 20
48.159
 30
4.4196
 11
32.3596
 21
48.159
 31
4.4196
  0
LINE
 62
0
  8
slabs_blocks
 10
48.868
 20
48.159
 30
4.4196
 11
48.768
 21
48.159
 31
4.4196
  0
3DFACE
 62
0
  8
slabs_blocks
 10
48.868
 20
8.839
 30
4.7752
 11
53.52
 21
8.839
 31
4.7752
 12
53.52
 22
8.875
 32
4.7752
 13
48.868
 23
8.875
 33
4.7752
  0
LINE
 62
0
  8
slabs_blocks
 10
7.828
 20
44.77
 30
4.4196
 11
9.596
 21
44.77
 31
4.4196
  0
LINE
 62
0
  8
slabs_blocks
 10
53.52
 20
48.159
 30
4.4196
 11
48.868
 21
48.159
 31
4.4196
  0
LINE
 62
0
  8
slabs_blocks
 10
55.7784
 20
44.77
 30
4.4196
 11
55.7784
 21
48.159
 31
4.4196
  0
LINE
 62
0
  8
slabs_blocks
 10
55.7784
 20
48.159
 30
4.4196
 11
53.52
 21
48.159
 31
4.4196
  0
3DFACE
 62
0
  8
slabs_blocks
 10
9.596
 20
42.163
 30
4.7752
 11
10.2
 21
42.163
 31
4.7752
 12
10.2
 22
44.77
 32
4.7752
 13
9.596
 23
44.77
 33
4.7752
  0
LINE
 62
0
  8
slabs_blocks
 10
40.3336
 20
33.857
 30
4.7752
 11
40.3336
 21
33.757
 31
4.7752
  0
3DFACE
 62
0
  8
slabs_blocks
 10
10.2
 20
44.77
 30
4.4196
 11
11.0
 21
44.77
 31
4.4196
 12
11.0
 22
48.159
 32
4.4196
 13
10.2
 23
48.159
 33
4.4196
  0
LINE
 62
0
  8
slabs_blocks
 10
43.32
 20
33.857
 30
4.7752
 11
42.52
 21
33.857
 31
4.7752
  0
3DFACE
 62
0
  8
slabs_blocks
 10
47.52
 20
10.839
 30
4.7752
 11
48.668
 21
10.839
 31
4.7752
 12
48.668
 22
10.975
 32
4.7752
 13
47.52
 23
10.975
 33
4.7752
  0
3DFACE
 62
0
  8
slabs_blocks
 10
53.52
 20
8.839
 30
4.4196
 11
55.7784
 21
8.839
 31
4.4196
 12
55.7784
 22
8.875
 32
4.4196
 13
53.52
 23
8.875
 33
4.4196
  0
LINE
 62
0
  8
slabs_blocks
 10
48.668
 20
8.939
 30
4.7752
 11
48.668
 21
10.839
 31
4.7752
  0
LINE
 62
0
  8
slabs_blocks
 10
43.92
 20
33.757
 30
4.7752
 11
43.92
 21
33.857
 31
4.7752
  0
3DFACE
 62
0
  8
slabs_blocks
 10
6.196
 20
0.0
 30
4.7752
 11
7.828
 21
0.0
 31
4.7752
 12
7.828
 22
8.739
 32
4.7752
 13
6.196
 23
8.739
 33
4.7752
  0
3DFACE
 62
0
  8
slabs_blocks
 10
43.92
 20
10.975
 30
4.7752
 11
47.52
 21
10.975
 31
4.7752
 12
47.52
 22
16.02
 32
4.7752
 13
43.92
 23
16.02
 33
4.7752
  0
3DFACE
 62
0
  8
slabs_blocks
 10
43.32
 20
16.02
 30
4.7752
 11
43.92
 21
16.02
 31
4.7752
 12
43.92
 22
17.045
 32
4.7752
 13
43.32
 23
17.045
 33
4.7752
  0
LINE
 62
0
  8
slabs_blocks
 10
48.768
 20
48.159
 30
4.4196
 11
48.668
 21
48.159
 31
4.4196
  0
3DFACE
 62
0
  8
slabs_blocks
 10
16.66
 20
33.657
 30
4.7752
 11
20.2708
 21
33.657
 31
4.7752
 12
20.2708
 22
33.757
 32
4.7752
 13
16.66
 23
33.757
 33
4.7752
  0
3DFACE
 62
0
  8
slabs_blocks
 10
42.52
 20
17.045
 30
4.7752
 11
43.32
 21
17.045
 31
4.7752
 12
43.32
 22
17.145
 32
4.7752
 13
42.52
 23
17.145
 33
4.7752
  0
3DFACE
 62
0
  8
slabs_blocks
 10
14.1208
 20
33.757
 30
4.7752
 11
16.66
 21
33.757
 31
4.7752
 12
16.66
 22
33.857
 32
4.7752
 13
14.1208
 23
33.857
 33
4.7752
  0
3DFACE
 62
0
  8
slabs_blocks
 10
20.4708
 20
30.373
 30
4.4196
 11
32.2596
 21
30.373
 31
4.4196
 12
32.2596
 22
33.183
 32
4.4196
 13
20.4708
 23
33.183
 33
4.4196
  0
3DFACE
 62
0
  8
slabs_blocks
 10
40.3336
 20
17.145
 30
4.7752
 11
42.52
 21
17.145
 31
4.7752
 12
42.52
 22
17.245
 32
4.7752
 13
40.3336
 23
17.245
 33
4.7752
  0
LINE
 62
0
  8
slabs_blocks
 10
32.2596
 20
8.839
 30
4.4196
 11
32.2596
 21
8.875
 31
4.4196
  0
LINE
 62
0
  8
slabs_blocks
 10
32.3596
 20
44.77
 30
4.4196
 11
32.4596
 21
44.77
 31
4.4196
  0
LINE
 62
0
  8
slabs_blocks
 10
42.52
 20
41.963
 30
4.7752
 11
40.3336
 21
41.963
 31
4.7752
  0
LINE
 62
0
  8
slabs_blocks
 10
20.4708
 20
8.875
 30
4.4196
 11
20.4708
 21
8.839
 31
4.4196
  0
3DFACE
 62
0
  8
slabs_blocks
 10
32.4596
 20
25.451
 30
4.7752
 11
40.1336
 21
25.451
 31
4.7752
 12
40.1336
 22
25.551
 32
4.7752
 13
32.4596
 23
25.551
 33
4.7752
  0
LINE
 62
0
  8
slabs_blocks
 10
40.3336
 20
25.451
 30
4.7752
 11
40.3336
 21
25.351
 31
4.7752
  0
3DFACE
 62
0
  8
slabs_blocks
 10
10.2
 20
42.163
 30
4.7752
 11
11.0
 21
42.163
 31
4.7752
 12
11.0
 22
44.77
 32
4.7752
 13
10.2
 23
44.77
 33
4.7752
  0
3DFACE
 62
0
  8
slabs_blocks
 10
48.868
 20
8.875
 30
4.7752
 11
53.52
 21
8.875
 31
4.7752
 12
53.52
 22
8.939
 32
4.7752
 13
48.868
 23
8.939
 33
4.7752
  0
LINE
 62
0
  8
slabs_blocks
 10
43.32
 20
41.963
 30
4.7752
 11
42.52
 21
41.963
 31
4.7752
  0
LINE
 62
0
  8
slabs_blocks
 10
20.4708
 20
8.939
 30
4.4196
 11
20.4708
 21
8.875
 31
4.4196
  0
LINE
 62
0
  8
slabs_blocks
 10
7.828
 20
42.163
 30
4.7752
 11
7.828
 21
44.77
 31
4.7752
  0
LINE
 62
0
  8
slabs_blocks
 10
7.828
 20
10.839
 30
4.7752
 11
6.196
 21
10.839
 31
4.7752
  0
3DFACE
 62
0
  8
slabs_blocks
 10
47.52
 20
10.975
 30
4.7752
 11
48.668
 21
10.975
 31
4.7752
 12
48.668
 22
16.02
 32
4.7752
 13
47.52
 23
16.02
 33
4.7752
  0
LINE
 62
0
  8
slabs_blocks
 10
32.4596
 20
44.77
 30
4.4196
 11
32.4596
 21
48.159
 31
4.4196
  0
3DFACE
 62
0
  8
slabs_blocks
 10
53.52
 20
8.875
 30
4.4196
 11
55.7784
 21
8.875
 31
4.4196
 12
55.7784
 22
8.939
 32
4.4196
 13
53.52
 23
8.939
 33
4.4196
  0
LINE
 62
0
  8
slabs_blocks
 10
20.2708
 20
44.77
 30
4.7752
 11
16.66
 21
44.77
 31
4.7752
  0
3DFACE
 62
0
  8
slabs_blocks
 10
43.92
 20
16.02
 30
4.7752
 11
47.52
 21
16.02
 31
4.7752
 12
47.52
 22
17.045
 32
4.7752
 13
43.92
 23
17.045
 33
4.7752
  0
LINE
 62
0
  8
slabs_blocks
 10
48.668
 20
33.857
 30
4.7752
 11
48.668
 21
41.963
 31
4.7752
  0
3DFACE
 62
0
  8
slabs_blocks
 10
43.32
 20
17.045
 30
4.7752
 11
43.92
 21
17.045
 31
4.7752
 12
43.92
 22
17.145
 32
4.7752
 13
43.32
 23
17.145
 33
4.7752
  0
LINE
 62
0
  8
slabs_blocks
 10
32.2596
 20
10.975
 30
4.4196
 11
20.4708
 21
10.975
 31
4.4196
  0
3DFACE
 62
0
  8
slabs_blocks
 10
16.66
 20
33.757
 30
4.7752
 11
20.2708
 21
33.757
 31
4.7752
 12
20.2708
 22
33.857
 32
4.7752
 13
16.66
 23
33.857
 33
4.7752
  0
3DFACE
 62
0
  8
slabs_blocks
 10
42.52
 20
17.145
 30
4.7752
 11
43.32
 21
17.145
 31
4.7752
 12
43.32
 22
17.245
 32
4.7752
 13
42.52
 23
17.245
 33
4.7752
  0
LINE
 62
0
  8
slabs_blocks
 10
6.096
 20
10.975
 30
4.7752
 11
5.996
 21
10.975
 31
4.7752
  0
LINE
 62
0
  8
slabs_blocks
 10
43.92
 20
33.757
 30
4.7752
 11
43.32
 21
33.757
 31
4.7752
  0
3DFACE
 62
0
  8
slabs_blocks
 10
14.1208
 20
33.857
 30
4.7752
 11
16.66
 21
33.857
 31
4.7752
 12
16.66
 22
41.963
 32
4.7752
 13
14.1208
 23
41.963
 33
4.7752
  0
3DFACE
 62
0
  8
slabs_blocks
 10
20.4708
 20
33.183
 30
4.4196
 11
32.2596
 21
33.183
 31
4.4196
 12
32.2596
 22
33.657
 32
4.4196
 13
20.4708
 23
33.657
 33
4.4196
  0
3DFACE
 62
0
  8
slabs_blocks
 10
0.0
 20
8.939
 30
4.7752
 11
5.996
 21
8.939
 31
4.7752
 12
5.996
 22
10.839
 32
4.7752
 13
0.0
 23
10.839
 33
4.7752
  0
3DFACE
 62
0
  8
slabs_blocks
 10
40.3336
 20
17.245
 30
4.7752
 11
42.52
 21
17.245
 31
4.7752
 12
42.52
 22
25.351
 32
4.7752
 13
40.3336
 23
25.351
 33
4.7752
  0
LINE
 62
0
  8
slabs_blocks
 10
32.2596
 20
16.02
 30
4.4196
 11
20.4708
 21
16.02
 31
4.4196
  0
LINE
 62
0
  8
slabs_blocks
 10
32.4596
 20
42.163
 30
4.7752
 11
40.1336
 21
42.163
 31
4.7752
  0
LINE
 62
0
  8
slabs_blocks
 10
48.868
 20
8.739
 30
4.7752
 11
48.868
 21
0.0
 31
4.7752
  0
LINE
 62
0
  8
slabs_blocks
 10
7.828
 20
10.839
 30
4.7752
 11
7.828
 21
10.975
 31
4.7752
  0
LINE
 62
0
  8
slabs_blocks
 10
53.52
 20
8.739
 30
4.7752
 11
53.52
 21
8.839
 31
4.7752
  0
LINE
 62
0
  8
slabs_blocks
 10
32.2596
 20
16.02
 30
4.4196
 11
32.2596
 21
17.045
 31
4.4196
  0
3DFACE
 62
0
  8
slabs_blocks
 10
11.0
 20
42.163
 30
4.7752
 11
13.9208
 21
42.163
 31
4.7752
 12
13.9208
 22
44.77
 32
4.7752
 13
11.0
 23
44.77
 33
4.7752
  0
LINE
 62
0
  8
slabs_blocks
 10
5.996
 20
10.975
 30
4.7752
 11
5.996
 21
16.02
 31
4.7752
  0
3DFACE
 62
0
  8
slabs_blocks
 10
32.4596
 20
25.551
 30
4.7752
 11
40.1336
 21
25.551
 31
4.7752
 12
40.1336
 22
29.257
 32
4.7752
 13
32.4596
 23
29.257
 33
4.7752
  0
LINE
 62
0
  8
slabs_blocks
 10
48.868
 20
8.839
 30
4.7752
 11
48.868
 21
8.739
 31
4.7752
  0
LINE
 62
0
  8
slabs_blocks
 10
20.4708
 20
17.045
 30
4.4196
 11
20.4708
 21
16.02
 31
4.4196
  0
3DFACE
 62
0
  8
slabs_blocks
 10
48.868
 20
8.939
 30
4.7752
 11
53.52
 21
8.939
 31
4.7752
 12
53.52
 22
10.839
 32
4.7752
 13
48.868
 23
10.839
 33
4.7752
  0
LINE
 62
0
  8
slabs_blocks
 10
32.2596
 20
17.045
 30
4.4196
 11
32.2596
 21
17.145
 31
4.4196
  0
LINE
 62
0
  8
slabs_blocks
 10
40.2336
 20
44.77
 30
4.4196
 11
40.2336
 21
48.159
 31
4.4196
  0
LINE
 62
0
  8
slabs_blocks
 10
16.66
 20
44.77
 30
4.4196
 11
16.66
 21
48.159
 31
4.4196
  0
LINE
 62
0
  8
slabs_blocks
 10
32.2596
 20
17.145
 30
4.4196
 11
32.2596
 21
17.245
 31
4.4196
  0
3DFACE
 62
0
  8
slabs_blocks
 10
11.0
 20
44.77
 30
4.4196
 11
13.9208
 21
44.77
 31
4.4196
 12
13.9208
 22
48.159
 32
4.4196
 13
11.0
 23
48.159
 33
4.4196
  0
3DFACE
 62
0
  8
slabs_blocks
 10
53.52
 20
8.939
 30
4.4196
 11
55.7784
 21
8.939
 31
4.4196
 12
55.7784
 22
10.839
 32
4.4196
 13
53.52
 23
10.839
 33
4.4196
  0
3DFACE
 62
0
  8
slabs_blocks
 10
43.92
 20
17.045
 30
4.7752
 11
47.52
 21
17.045
 31
4.7752
 12
47.52
 22
17.145
 32
4.7752
 13
43.92
 23
17.145
 33
4.7752
  0
LINE
 62
0
  8
slabs_blocks
 10
14.0208
 20
44.77
 30
4.4196
 11
14.1208
 21
44.77
 31
4.4196
  0
LINE
 62
0
  8
slabs_blocks
 10
43.32
 20
10.975
 30
4.7752
 11
42.52
 21
10.975
 31
4.7752
  0
LINE
 62
0
  8
slabs_blocks
 10
53.52
 20
8.939
 30
4.7752
 11
53.52
 21
10.839
 31
4.7752
  0
3DFACE
 62
0
  8
slabs_blocks
 10
43.32
 20
17.145
 30
4.7752
 11
43.92
 21
17.145
 31
4.7752
 12
43.92
 22
17.245
 32
4.7752
 13
43.32
 23
17.245
 33
4.7752
  0
3DFACE
 62
0
  8
slabs_blocks
 10
16.66
 20
33.857
 30
4.7752
 11
20.2708
 21
33.857
 31
4.7752
 12
20.2708
 22
41.963
 32
4.7752
 13
16.66
 23
41.963
 33
4.7752
  0
LINE
 62
0
  8
slabs_blocks
 10
53.52
 20
10.839
 30
4.7752
 11
48.868
 21
10.839
 31
4.7752
  0
3DFACE
 62
0
  8
slabs_blocks
 10
5.996
 20
8.939
 30
4.7752
 11
6.096
 21
8.939
 31
4.7752
 12
6.096
 22
10.839
 32
4.7752
 13
5.996
 23
10.839
 33
4.7752
  0
3DFACE
 62
0
  8
slabs_blocks
 10
42.52
 20
17.245
 30
4.7752
 11
43.32
 21
17.245
 31
4.7752
 12
43.32
 22
25.351
 32
4.7752
 13
42.52
 23
25.351
 33
4.7752
  0
LINE
 62
0
  8
slabs_blocks
 10
32.2596
 20
42.063
 30
4.4196
 11
20.4708
 21
42.063
 31
4.4196
  0
3DFACE
 62
0
  8
slabs_blocks
 10
20.4708
 20
33.657
 30
4.4196
 11
32.2596
 21
33.657
 31
4.4196
 12
32.2596
 22
33.757
 32
4.4196
 13
20.4708
 23
33.757
 33
4.4196
  0
3DFACE
 62
0
  8
slabs_blocks
 10
0.0
 20
10.839
 30
4.7752
 11
5.996
 21
10.839
 31
4.7752
 12
5.996
 22
10.975
 32
4.7752
 13
0.0
 23
10.975
 33
4.7752
  0
3DFACE
 62
0
  8
slabs_blocks
 10
40.3336
 20
25.351
 30
4.7752
 11
42.52
 21
25.351
 31
4.7752
 12
42.52
 22
25.451
 32
4.7752
 13
40.3336
 23
25.451
 33
4.7752
  0
LINE
 62
0
  8
slabs_blocks
 10
47.52
 20
25.351
 30
4.7752
 11
47.52
 21
25.451
 31
4.7752
  0
LINE
 62
0
  8
slabs_blocks
 10
53.52
 20
17.245
 30
4.4196
 11
53.52
 21
17.145
 31
4.4196
  0
3DFACE
 62
0
  8
slabs_blocks
 10
13.9208
 20
42.163
 30
4.7752
 11
14.0208
 21
42.163
 31
4.7752
 12
14.0208
 22
44.77
 32
4.7752
 13
13.9208
 23
44.77
 33
4.7752
  0
LINE
 62
0
  8
slabs_blocks
 10
20.4708
 20
25.451
 30
4.4196
 11
20.4708
 21
25.351
 31
4.4196
  0
LINE
 62
0
  8
slabs_blocks
 10
53.52
 20
10.975
 30
4.7752
 11
53.52
 21
16.02
 31
4.7752
  0
LINE
 62
0
  8
slabs_blocks
 10
16.66
 20
42.163
 30
4.7752
 11
16.66
 21
44.77
 31
4.7752
  0
3DFACE
 62
0
  8
slabs_blocks
 10
32.4596
 20
29.257
 30
4.7752
 11
40.1336
 21
29.257
 31
4.7752
 12
40.1336
 22
30.373
 32
4.7752
 13
32.4596
 23
30.373
 33
4.7752
  0
3DFACE
 62
0
  8
slabs_blocks
 10
48.868
 20
10.839
 30
4.7752
 11
53.52
 21
10.839
 31
4.7752
 12
53.52
 22
10.975
 32
4.7752
 13
48.868
 23
10.975
 33
4.7752
  0
LINE
 62
0
  8
slabs_blocks
 10
53.52
 20
16.02
 30
4.7752
 11
53.52
 21
17.045
 31
4.7752
  0
LINE
 62
0
  8
slabs_blocks
 10
32.2596
 20
25.551
 30
4.4196
 11
32.2596
 21
29.257
 31
4.4196
  0
LINE
 62
0
  8
slabs_blocks
 10
47.52
 20
48.159
 30
4.4196
 11
43.92
 21
48.159
 31
4.4196
  0
3DFACE
 62
0
  8
slabs_blocks
 10
13.9208
 20
44.77
 30
4.4196
 11
14.0208
 21
44.77
 31
4.4196
 12
14.0208
 22
48.159
 32
4.4196
 13
13.9208
 23
48.159
 33
4.4196
  0
3DFACE
 62
0
  8
slabs_blocks
 10
47.52
 20
17.045
 30
4.7752
 11
48.668
 21
17.045
 31
4.7752
 12
48.668
 22
17.145
 32
4.7752
 13
47.52
 23
17.145
 33
4.7752
  0
3DFACE
 62
0
  8
slabs_blocks
 10
53.52
 20
10.839
 30
4.4196
 11
55.7784
 21
10.839
 31
4.4196
 12
55.7784
 22
10.975
 32
4.4196
 13
53.52
 23
10.975
 33
4.4196
  0
3DFACE
 62
0
  8
slabs_blocks
 10
43.92
 20
17.145
 30
4.7752
 11
47.52
 21
17.145
 31
4.7752
 12
47.52
 22
17.245
 32
4.7752
 13
43.92
 23
17.245
 33
4.7752
  0
LINE
 62
0
  8
slabs_blocks
 10
32.2596
 20
30.373
 30
4.4196
 11
20.4708
 21
30.373
 31
4.4196
  0
3DFACE
 62
0
  8
slabs_blocks
 10
6.096
 20
8.939
 30
4.7752
 11
6.196
 21
8.939
 31
4.7752
 12
6.196
 22
10.839
 32
4.7752
 13
6.096
 23
10.839
 33
4.7752
  0
LINE
 62
0
  8
slabs_blocks
 10
20.4708
 20
30.373
 30
4.4196
 11
20.4708
 21
29.257
 31
4.4196
  0
3DFACE
 62
0
  8
slabs_blocks
 10
43.32
 20
17.245
 30
4.7752
 11
43.92
 21
17.245
 31
4.7752
 12
43.92
 22
25.351
 32
4.7752
 13
43.32
 23
25.351
 33
4.7752
  0
LINE
 62
0
  8
slabs_blocks
 10
5.996
 20
17.245
 30
4.7752
 11
6.096
 21
17.245
 31
4.7752
  0
LINE
 62
0
  8
slabs_blocks
 10
40.3336
 20
48.159
 30
4.4196
 11
40.2336
 21
48.159
 31
4.4196
  0
3DFACE
 62
0
  8
slabs_blocks
 10
5.996
 20
10.839
 30
4.7752
 11
6.096
 21
10.839
 31
4.7752
 12
6.096
 22
10.975
 32
4.7752
 13
5.996
 23
10.975
 33
4.7752
  0
3DFACE
 62
0
  8
slabs_blocks
 10
42.52
 20
25.351
 30
4.7752
 11
43.32
 21
25.351
 31
4.7752
 12
43.32
 22
25.451
 32
4.7752
 13
42.52
 23
25.451
 33
4.7752
  0
3DFACE
 62
0
  8
slabs_blocks
 10
20.4708
 20
33.757
 30
4.4196
 11
32.2596
 21
33.757
 31
4.4196
 12
32.2596
 22
33.857
 32
4.4196
 13
20.4708
 23
33.857
 33
4.4196
  0
3DFACE
 62
0
  8
slabs_blocks
 10
0.0
 20
10.975
 30
4.7752
 11
5.996
 21
10.975
 31
4.7752
 12
5.996
 22
16.02
 32
4.7752
 13
0.0
 23
16.02
 33
4.7752
  0
LINE
 62
0
  8
slabs_blocks
 10
48.868
 20
17.245
 30
4.7752
 11
48.868
 21
17.145
 31
4.7752
  0
3DFACE
 62
0
  8
slabs_blocks
 10
40.3336
 20
25.451
 30
4.7752
 11
42.52
 21
25.451
 31
4.7752
 12
42.52
 22
25.551
 32
4.7752
 13
40.3336
 23
25.551
 33
4.7752
  0
3DFACE
 62
0
  8
slabs_blocks
 10
14.0208
 20
42.163
 30
4.7752
 11
14.1208
 21
42.163
 31
4.7752
 12
14.1208
 22
44.77
 32
4.7752
 13
14.0208
 23
44.77
 33
4.7752
  0
LINE
 62
0
  8
slabs_blocks
 10
53.52
 20
17.245
 30
4.7752
 11
53.52
 21
25.351
 31
4.7752
  0
LINE
 62
0
  8
slabs_blocks
 10
32.2596
 20
33.183
 30
4.4196
 11
32.2596
 21
33.657
 31
4.4196
  0
LINE
 62
0
  8
slabs_blocks
 10
6.196
 20
25.351
 30
4.7752
 11
6.096
 21
25.351
 31
4.7752
  0
LINE
 62
0
  8
slabs_blocks
 10
48.868
 20
25.351
 30
4.7752
 11
48.868
 21
17.245
 31
4.7752
  0
LINE
 62
0
  8
slabs_blocks
 10
13.9208
 20
48.159
 30
4.4196
 11
11.0
 21
48.159
 31
4.4196
  0
3DFACE
 62
0
  8
slabs_blocks
 10
32.4596
 20
30.373
 30
4.7752
 11
40.1336
 21
30.373
 31
4.7752
 12
40.1336
 22
33.183
 32
4.7752
 13
32.4596
 23
33.183
 33
4.7752
  0
LINE
 62
0
  8
slabs_blocks
 10
32.2596
 20
33.657
 30
4.4196
 11
32.2596
 21
33.757
 31
4.4196
  0
LINE
 62
0
  8
slabs_blocks
 10
7.828
 20
17.245
 30
4.7752
 11
7.828
 21
25.351
 31
4.7752
  0
3DFACE
 62
0
  8
slabs_blocks
 10
48.868
 20
10.975
 30
4.7752
 11
53.52
 21
10.975
 31
4.7752
 12
53.52
 22
16.02
 32
4.7752
 13
48.868
 23
16.02
 33
4.7752
  0
3DFACE
 62
0
  8
slabs_blocks
 10
14.0208
 20
44.77
 30
4.4196
 11
14.1208
 21
44.77
 31
4.4196
 12
14.1208
 22
48.159
 32
4.4196
 13
14.0208
 23
48.159
 33
4.4196
  0
3DFACE
 62
0
  8
slabs_blocks
 10
47.52
 20
17.145
 30
4.7752
 11
48.668
 21
17.145
 31
4.7752
 12
48.668
 22
17.245
 32
4.7752
 13
47.52
 23
17.245
 33
4.7752
  0
3DFACE
 62
0
  8
slabs_blocks
 10
53.52
 20
10.975
 30
4.4196
 11
55.7784
 21
10.975
 31
4.4196
 12
55.7784
 22
16.02
 32
4.4196
 13
53.52
 23
16.02
 33
4.4196
  0
3DFACE
 62
0
  8
slabs_blocks
 10
6.196
 20
8.939
 30
4.7752
 11
7.828
 21
8.939
 31
4.7752
 12
7.828
 22
10.839
 32
4.7752
 13
6.196
 23
10.839
 33
4.7752
  0
3DFACE
 62
0
  8
slabs_blocks
 10
43.92
 20
17.245
 30
4.7752
 11
47.52
 21
17.245
 31
4.7752
 12
47.52
 22
25.351
 32
4.7752
 13
43.92
 23
25.351
 33
4.7752
  0
3DFACE
 62
0
  8
slabs_blocks
 10
6.096
 20
10.839
 30
4.7752
 11
6.196
 21
10.839
 31
4.7752
 12
6.196
 22
10.975
 32
4.7752
 13
6.096
 23
10.975
 33
4.7752
  0
3DFACE
 62
0
  8
slabs_blocks
 10
43.32
 20
25.351
 30
4.7752
 11
43.92
 21
25.351
 31
4.7752
 12
43.92
 22
25.451
 32
4.7752
 13
43.32
 23
25.451
 33
4.7752
  0
LINE
 62
0
  8
slabs_blocks
 10
42.52
 20
25.551
 30
4.7752
 11
40.3336
 21
25.551
 31
4.7752
  0
LINE
 62
0
  8
slabs_blocks
 10
20.4708
 20
41.963
 30
4.4196
 11
20.4708
 21
33.857
 31
4.4196
  0
3DFACE
 62
0
  8
slabs_blocks
 10
5.996
 20
10.975
 30
4.7752
 11
6.096
 21
10.975
 31
4.7752
 12
6.096
 22
16.02
 32
4.7752
 13
5.996
 23
16.02
 33
4.7752
  0
3DFACE
 62
0
  8
slabs_blocks
 10
42.52
 20
25.451
 30
4.7752
 11
43.32
 21
25.451
 31
4.7752
 12
43.32
 22
25.551
 32
4.7752
 13
42.52
 23
25.551
 33
4.7752
  0
3DFACE
 62
0
  8
slabs_blocks
 10
14.1208
 20
42.163
 30
4.7752
 11
16.66
 21
42.163
 31
4.7752
 12
16.66
 22
44.77
 32
4.7752
 13
14.1208
 23
44.77
 33
4.7752
  0
3DFACE
 62
0
  8
slabs_blocks
 10
20.4708
 20
33.857
 30
4.4196
 11
32.2596
 21
33.857
 31
4.4196
 12
32.2596
 22
41.963
 32
4.4196
 13
20.4708
 23
41.963
 33
4.4196
  0
3DFACE
 62
0
  8
slabs_blocks
 10
0.0
 20
16.02
 30
4.7752
 11
5.996
 21
16.02
 31
4.7752
 12
5.996
 22
17.045
 32
4.7752
 13
0.0
 23
17.045
 33
4.7752
  0
3DFACE
 62
0
  8
slabs_blocks
 10
40.3336
 20
25.551
 30
4.7752
 11
42.52
 21
25.551
 31
4.7752
 12
42.52
 22
29.257
 32
4.7752
 13
40.3336
 23
29.257
 33
4.7752
  0
LINE
 62
0
  8
slabs_blocks
 10
20.4708
 20
42.063
 30
4.4196
 11
20.4708
 21
41.963
 31
4.4196
  0
LINE
 62
0
  8
slabs_blocks
 10
7.828
 20
8.739
 30
4.7752
 11
6.196
 21
8.739
 31
4.7752
  0
LINE
 62
0
  8
slabs_blocks
 10
32.2596
 20
8.939
 30
4.7752
 11
32.2596
 21
10.839
 31
4.7752
  0
LINE
 62
0
  8
slabs_blocks
 10
20.3708
 20
44.77
 30
4.4196
 11
20.3708
 21
48.159
 31
4.4196
  0
3DFACE
 62
0
  8
slabs_blocks
 10
32.4596
 20
33.183
 30
4.7752
 11
40.1336
 21
33.183
 31
4.7752
 12
40.1336
 22
33.657
 32
4.7752
 13
32.4596
 23
33.657
 33
4.7752
  0
3DFACE
 62
0
  8
slabs_blocks
 10
14.1208
 20
44.77
 30
4.4196
 11
16.66
 21
44.77
 31
4.4196
 12
16.66
 22
48.159
 32
4.4196
 13
14.1208
 23
48.159
 33
4.4196
  0
LINE
 62
0
  8
slabs_blocks
 10
0.0
 20
29.257
 30
4.7752
 11
0.0
 21
25.551
 31
4.7752
  0
LINE
 62
0
  8
slabs_blocks
 10
40.3336
 20
42.163
 30
4.7752
 11
42.52
 21
42.163
 31
4.7752
  0
3DFACE
 62
0
  8
slabs_blocks
 10
47.52
 20
17.245
 30
4.7752
 11
48.668
 21
17.245
 31
4.7752
 12
48.668
 22
25.351
 32
4.7752
 13
47.52
 23
25.351
 33
4.7752
  0
3DFACE
 62
0
  8
slabs_blocks
 10
53.52
 20
16.02
 30
4.4196
 11
55.7784
 21
16.02
 31
4.4196
 12
55.7784
 22
17.045
 32
4.4196
 13
53.52
 23
17.045
 33
4.4196
  0
LINE
 62
0
  8
slabs_blocks
 10
6.096
 20
25.551
 30
4.7752
 11
6.096
 21
29.257
 31
4.7752
  0
LINE
 62
0
  8
slabs_blocks
 10
55.7784
 20
41.963
 30
4.4196
 11
53.52
 21
41.963
 31
4.4196
  0
3DFACE
 62
0
  8
slabs_blocks
 10
6.196
 20
10.839
 30
4.7752
 11
7.828
 21
10.839
 31
4.7752
 12
7.828
 22
10.975
 32
4.7752
 13
6.196
 23
10.975
 33
4.7752
  0
LINE
 62
0
  8
slabs_blocks
 10
20.4708
 20
48.159
 30
4.4196
 11
20.4708
 21
44.77
 31
4.4196
  0
3DFACE
 62
0
  8
slabs_blocks
 10
43.92
 20
25.351
 30
4.7752
 11
47.52
 21
25.351
 31
4.7752
 12
47.52
 22
25.451
 32
4.7752
 13
43.92
 23
25.451
 33
4.7752
  0
3DFACE
 62
0
  8
slabs_blocks
 10
6.096
 20
10.975
 30
4.7752
 11
6.196
 21
10.975
 31
4.7752
 12
6.196
 22
16.02
 32
4.7752
 13
6.096
 23
16.02
 33
4.7752
  0
LINE
 62
0
  8
slabs_blocks
 10
6.096
 20
25.551
 30
4.7752
 11
6.196
 21
25.551
 31
4.7752
  0
3DFACE
 62
0
  8
slabs_blocks
 10
43.32
 20
25.451
 30
4.7752
 11
43.92
 21
25.451
 31
4.7752
 12
43.92
 22
25.551
 32
4.7752
 13
43.32
 23
25.551
 33
4.7752
  0
3DFACE
 62
0
  8
slabs_blocks
 10
16.66
 20
42.163
 30
4.7752
 11
20.2708
 21
42.163
 31
4.7752
 12
20.2708
 22
44.77
 32
4.7752
 13
16.66
 23
44.77
 33
4.7752
  0
LINE
 62
0
  8
slabs_blocks
 10
6.196
 20
25.551
 30
4.7752
 11
6.196
 21
29.257
 31
4.7752
  0
3DFACE
 62
0
  8
slabs_blocks
 10
5.996
 20
16.02
 30
4.7752
 11
6.096
 21
16.02
 31
4.7752
 12
6.096
 22
17.045
 32
4.7752
 13
5.996
 23
17.045
 33
4.7752
  0
LINE
 62
0
  8
slabs_blocks
 10
43.32
 20
25.551
 30
4.7752
 11
42.52
 21
25.551
 31
4.7752
  0
3DFACE
 62
0
  8
slabs_blocks
 10
42.52
 20
25.551
 30
4.7752
 11
43.32
 21
25.551
 31
4.7752
 12
43.32
 22
29.257
 32
4.7752
 13
42.52
 23
29.257
 33
4.7752
  0
3DFACE
 62
0
  8
slabs_blocks
 10
47.52
 20
16.02
 30
4.7752
 11
48.668
 21
16.02
 31
4.7752
 12
48.668
 22
17.045
 32
4.7752
 13
47.52
 23
17.045
 33
4.7752
  0
3DFACE
 62
0
  8
slabs_blocks
 10
20.4708
 20
41.963
 30
4.4196
 11
32.2596
 21
41.963
 31
4.4196
 12
32.2596
 22
42.063
 32
4.4196
 13
20.4708
 23
42.063
 33
4.4196
  0
3DFACE
 62
0
  8
slabs_blocks
 10
40.3336
 20
29.257
 30
4.7752
 11
42.52
 21
29.257
 31
4.7752
 12
42.52
 22
30.373
 32
4.7752
 13
40.3336
 23
30.373
 33
4.7752
  0
LINE
 62
0
  8
slabs_blocks
 10
53.52
 20
41.963
 30
4.7752
 11
48.868
 21
41.963
 31
4.7752
  0
LINE
 62
0
  8
slabs_blocks
 10
7.828
 20
25.551
 30
4.7752
 11
7.828
 21
29.257
 31
4.7752
  0
LINE
 62
0
  8
slabs_blocks
 10
53.52
 20
0.0
 30
4.4196
 11
55.7784
 21
0.0
 31
4.4196
  0
3DFACE
 62
0
  8
slabs_blocks
 10
16.66
 20
44.77
 30
4.4196
 11
20.2708
 21
44.77
 31
4.4196
 12
20.2708
 22
48.159
 32
4.4196
 13
16.66
 23
48.159
 33
4.4196
  0
3DFACE
 62
0
  8
slabs_blocks
 10
32.4596
 20
33.657
 30
4.7752
 11
40.1336
 21
33.657
 31
4.7752
 12
40.1336
 22
33.757
 32
4.7752
 13
32.4596
 23
33.757
 33
4.7752
  0
3DFACE
 62
0
  8
slabs_blocks
 10
48.868
 20
17.045
 30
4.7752
 11
53.52
 21
17.045
 31
4.7752
 12
53.52
 22
17.145
 32
4.7752
 13
48.868
 23
17.145
 33
4.7752
  0
LINE
 62
0
  8
slabs_blocks
 10
40.1336
 20
8.939
 30
4.7752
 11
32.4596
 21
8.939
 31
4.7752
  0
LINE
 62
0
  8
slabs_blocks
 10
43.92
 20
25.551
 30
4.7752
 11
43.32
 21
25.551
 31
4.7752
  0
3DFACE
 62
0
  8
slabs_blocks
 10
47.52
 20
25.351
 30
4.7752
 11
48.668
 21
25.351
 31
4.7752
 12
48.668
 22
25.451
 32
4.7752
 13
47.52
 23
25.451
 33
4.7752
  0
LINE
 62
0
  8
slabs_blocks
 10
40.1336
 20
29.257
 30
4.7752
 11
40.1336
 21
30.373
 31
4.7752
  0
3DFACE
 62
0
  8
slabs_blocks
 10
53.52
 20
17.045
 30
4.4196
 11
55.7784
 21
17.045
 31
4.4196
 12
55.7784
 22
17.145
 32
4.4196
 13
53.52
 23
17.145
 33
4.4196
  0
3DFACE
 62
0
  8
slabs_blocks
 10
6.196
 20
10.975
 30
4.7752
 11
7.828
 21
10.975
 31
4.7752
 12
7.828
 22
16.02
 32
4.7752
 13
6.196
 23
16.02
 33
4.7752
  0
3DFACE
 62
0
  8
slabs_blocks
 10
43.92
 20
25.451
 30
4.7752
 11
47.52
 21
25.451
 31
4.7752
 12
47.52
 22
25.551
 32
4.7752
 13
43.92
 23
25.551
 33
4.7752
  0
3DFACE
 62
0
  8
slabs_blocks
 10
6.096
 20
16.02
 30
4.7752
 11
6.196
 21
16.02
 31
4.7752
 12
6.196
 22
17.045
 32
4.7752
 13
6.096
 23
17.045
 33
4.7752
  0
LINE
 62
0
  8
slabs_blocks
 10
16.66
 20
42.163
 30
4.7752
 11
20.2708
 21
42.163
 31
4.7752
  0
3DFACE
 62
0
  8
slabs_blocks
 10
43.32
 20
25.551
 30
4.7752
 11
43.92
 21
25.551
 31
4.7752
 12
43.92
 22
29.257
 32
4.7752
 13
43.32
 23
29.257
 33
4.7752
  0
LINE
 62
0
  8
slabs_blocks
 10
55.7784
 20
8.875
 30
4.4196
 11
55.7784
 21
8.939
 31
4.4196
  0
3DFACE
 62
0
  8
slabs_blocks
 10
42.52
 20
29.257
 30
4.7752
 11
43.32
 21
29.257
 31
4.7752
 12
43.32
 22
30.373
 32
4.7752
 13
42.52
 23
30.373
 33
4.7752
  0
3DFACE
 62
0
  8
slabs_blocks
 10
20.4708
 20
42.063
 30
4.4196
 11
32.2596
 21
42.063
 31
4.4196
 12
32.2596
 22
42.163
 32
4.4196
 13
20.4708
 23
42.163
 33
4.4196
  0
3DFACE
 62
0
  8
slabs_blocks
 10
40.3336
 20
30.373
 30
4.7752
 11
42.52
 21
30.373
 31
4.7752
 12
42.52
 22
33.183
 32
4.7752
 13
40.3336
 23
33.183
 33
4.7752
  0
LINE
 62
0
  8
slabs_blocks
 10
43.92
 20
10.975
 30
4.7752
 11
43.92
 21
16.02
 31
4.7752
  0
3DFACE
 62
0
  8
slabs_blocks
 10
20.2708
 20
44.77
 30
4.4196
 11
20.3708
 21
44.77
 31
4.4196
 12
20.3708
 22
48.159
 32
4.4196
 13
20.2708
 23
48.159
 33
4.4196
  0
LINE
 62
0
  8
slabs_blocks
 10
55.7784
 20
10.839
 30
4.4196
 11
53.52
 21
10.839
 31
4.4196
  0
LINE
 62
0
  8
slabs_blocks
 10
32.4596
 20
16.02
 30
4.7752
 11
32.4596
 21
10.975
 31
4.7752
  0
3DFACE
 62
0
  8
slabs_blocks
 10
32.4596
 20
33.757
 30
4.7752
 11
40.1336
 21
33.757
 31
4.7752
 12
40.1336
 22
33.857
 32
4.7752
 13
32.4596
 23
33.857
 33
4.7752
  0
LINE
 62
0
  8
slabs_blocks
 10
55.7784
 20
10.839
 30
4.4196
 11
55.7784
 21
10.975
 31
4.4196
  0
3DFACE
 62
0
  8
slabs_blocks
 10
48.868
 20
17.145
 30
4.7752
 11
53.52
 21
17.145
 31
4.7752
 12
53.52
 22
17.245
 32
4.7752
 13
48.868
 23
17.245
 33
4.7752
  0
LINE
 62
0
  8
slabs_blocks
 10
6.096
 20
30.373
 30
4.7752
 11
5.996
 21
30.373
 31
4.7752
  0
LINE
 62
0
  8
slabs_blocks
 10
55.7784
 20
10.975
 30
4.4196
 11
53.52
 21
10.975
 31
4.4196
  0
LINE
 62
0
  8
slabs_blocks
 10
40.1336
 20
17.045
 30
4.7752
 11
32.4596
 21
17.045
 31
4.7752
  0
LINE
 62
0
  8
slabs_blocks
 10
53.52
 20
10.975
 30
4.4196
 11
53.52
 21
10.839
 31
4.4196
  0
LINE
 62
0
  8
slabs_blocks
 10
32.4596
 20
17.045
 30
4.7752
 11
32.4596
 21
16.02
 31
4.7752
  0
LINE
 62
0
  8
slabs_blocks
 10
48.868
 20
33.857
 30
4.7752
 11
48.868
 21
33.757
 31
4.7752
  0
LINE
 62
0
  8
slabs_blocks
 10
7.828
 20
29.257
 30
4.7752
 11
7.828
 21
30.373
 31
4.7752
  0
LINE
 62
0
  8
slabs_blocks
 10
55.7784
 20
16.02
 30
4.4196
 11
53.52
 21
16.02
 31
4.4196
  0
3DFACE
 62
0
  8
slabs_blocks
 10
47.52
 20
25.451
 30
4.7752
 11
48.668
 21
25.451
 31
4.7752
 12
48.668
 22
25.551
 32
4.7752
 13
47.52
 23
25.551
 33
4.7752
  0
3DFACE
 62
0
  8
slabs_blocks
 10
53.52
 20
17.145
 30
4.4196
 11
55.7784
 21
17.145
 31
4.4196
 12
55.7784
 22
17.245
 32
4.4196
 13
53.52
 23
17.245
 33
4.4196
  0
LINE
 62
0
  8
slabs_blocks
 10
48.668
 20
25.451
 30
4.7752
 11
48.668
 21
25.551
 31
4.7752
  0
3DFACE
 62
0
  8
slabs_blocks
 10
6.196
 20
16.02
 30
4.7752
 11
7.828
 21
16.02
 31
4.7752
 12
7.828
 22
17.045
 32
4.7752
 13
6.196
 23
17.045
 33
4.7752
  0
3DFACE
 62
0
  8
slabs_blocks
 10
43.92
 20
25.551
 30
4.7752
 11
47.52
 21
25.551
 31
4.7752
 12
47.52
 22
29.257
 32
4.7752
 13
43.92
 23
29.257
 33
4.7752
  0
LINE
 62
0
  8
slabs_blocks
 10
55.7784
 20
16.02
 30
4.4196
 11
55.7784
 21
17.045
 31
4.4196
  0
3DFACE
 62
0
  8
slabs_blocks
 10
43.32
 20
29.257
 30
4.7752
 11
43.92
 21
29.257
 31
4.7752
 12
43.92
 22
30.373
 32
4.7752
 13
43.32
 23
30.373
 33
4.7752
  0
LINE
 62
0
  8
slabs_blocks
 10
40.1336
 20
17.245
 30
4.7752
 11
32.4596
 21
17.245
 31
4.7752
  0
LINE
 62
0
  8
slabs_blocks
 10
53.52
 20
17.045
 30
4.4196
 11
53.52
 21
16.02
 31
4.4196
  0
3DFACE
 62
0
  8
slabs_blocks
 10
42.52
 20
30.373
 30
4.7752
 11
43.32
 21
30.373
 31
4.7752
 12
43.32
 22
33.183
 32
4.7752
 13
42.52
 23
33.183
 33
4.7752
  0
3DFACE
 62
0
  8
slabs_blocks
 10
16.66
 20
0.0
 30
4.7752
 11
20.2708
 21
0.0
 31
4.7752
 12
20.2708
 22
8.739
 32
4.7752
 13
16.66
 23
8.739
 33
4.7752
  0
3DFACE
 62
0
  8
slabs_blocks
 10
20.4708
 20
42.163
 30
4.4196
 11
32.2596
 21
42.163
 31
4.4196
 12
32.2596
 22
44.77
 32
4.4196
 13
20.4708
 23
44.77
 33
4.4196
  0
3DFACE
 62
0
  8
slabs_blocks
 10
0.0
 20
17.245
 30
4.7752
 11
5.996
 21
17.245
 31
4.7752
 12
5.996
 22
25.351
 32
4.7752
 13
0.0
 23
25.351
 33
4.7752
  0
3DFACE
 62
0
  8
slabs_blocks
 10
40.3336
 20
33.183
 30
4.7752
 11
42.52
 21
33.183
 31
4.7752
 12
42.52
 22
33.657
 32
4.7752
 13
40.3336
 23
33.657
 33
4.7752
  0
LINE
 62
0
  8
slabs_blocks
 10
40.1336
 20
25.351
 30
4.7752
 11
32.4596
 21
25.351
 31
4.7752
  0
LINE
 62
0
  8
slabs_blocks
 10
53.52
 20
17.145
 30
4.4196
 11
53.52
 21
17.045
 31
4.4196
  0
LINE
 62
0
  8
slabs_blocks
 10
13.9208
 20
29.257
 30
4.7752
 11
13.9208
 21
30.373
 31
4.7752
  0
LINE
 62
0
  8
slabs_blocks
 10
40.1336
 20
25.351
 30
4.7752
 11
40.1336
 21
25.451
 31
4.7752
  0
LINE
 62
0
  8
slabs_blocks
 10
6.196
 20
30.373
 30
4.7752
 11
6.196
 21
33.183
 31
4.7752
  0
3DFACE
 62
0
  8
slabs_blocks
 10
32.4596
 20
33.857
 30
4.7752
 11
40.1336
 21
33.857
 31
4.7752
 12
40.1336
 22
41.963
 32
4.7752
 13
32.4596
 23
41.963
 33
4.7752
  0
3DFACE
 62
0
  8
slabs_blocks
 10
6.196
 20
44.77
 30
4.4196
 11
7.828
 21
44.77
 31
4.4196
 12
7.828
 22
48.159
 32
4.4196
 13
6.196
 23
48.159
 33
4.4196
  0
3DFACE
 62
0
  8
slabs_blocks
 10
48.868
 20
17.245
 30
4.7752
 11
53.52
 21
17.245
 31
4.7752
 12
53.52
 22
25.351
 32
4.7752
 13
48.868
 23
25.351
 33
4.7752
  0
LINE
 62
0
  8
slabs_blocks
 10
40.1336
 20
25.451
 30
4.7752
 11
40.1336
 21
25.551
 31
4.7752
  0
LINE
 62
0
  8
slabs_blocks
 10
48.668
 20
10.975
 30
4.7752
 11
48.668
 21
16.02
 31
4.7752
  0
3DFACE
 62
0
  8
slabs_blocks
 10
47.52
 20
25.551
 30
4.7752
 11
48.668
 21
25.551
 31
4.7752
 12
48.668
 22
29.257
 32
4.7752
 13
47.52
 23
29.257
 33
4.7752
  0
3DFACE
 62
0
  8
slabs_blocks
 10
53.52
 20
17.245
 30
4.4196
 11
55.7784
 21
17.245
 31
4.4196
 12
55.7784
 22
25.351
 32
4.4196
 13
53.52
 23
25.351
 33
4.4196
  0
LINE
 62
0
  8
slabs_blocks
 10
40.1336
 20
44.77
 30
4.4196
 11
40.1336
 21
48.159
 31
4.4196
  0
3DFACE
 62
0
  8
slabs_blocks
 10
43.92
 20
29.257
 30
4.7752
 11
47.52
 21
29.257
 31
4.7752
 12
47.52
 22
30.373
 32
4.7752
 13
43.92
 23
30.373
 33
4.7752
  0
LINE
 62
0
  8
slabs_blocks
 10
10.2
 20
25.551
 30
4.7752
 11
11.0
 21
25.551
 31
4.7752
  0
3DFACE
 62
0
  8
slabs_blocks
 10
43.32
 20
30.373
 30
4.7752
 11
43.92
 21
30.373
 31
4.7752
 12
43.92
 22
33.183
 32
4.7752
 13
43.32
 23
33.183
 33
4.7752
  0
3DFACE
 62
0
  8
slabs_blocks
 10
5.996
 20
17.245
 30
4.7752
 11
6.096
 21
17.245
 31
4.7752
 12
6.096
 22
25.351
 32
4.7752
 13
5.996
 23
25.351
 33
4.7752
  0
3DFACE
 62
0
  8
slabs_blocks
 10
42.52
 20
33.183
 30
4.7752
 11
43.32
 21
33.183
 31
4.7752
 12
43.32
 22
33.657
 32
4.7752
 13
42.52
 23
33.657
 33
4.7752
  0
3DFACE
 62
0
  8
slabs_blocks
 10
16.66
 20
8.739
 30
4.7752
 11
20.2708
 21
8.739
 31
4.7752
 12
20.2708
 22
8.839
 32
4.7752
 13
16.66
 23
8.839
 33
4.7752
  0
3DFACE
 62
0
  8
slabs_blocks
 10
20.4708
 20
44.77
 30
4.4196
 11
32.2596
 21
44.77
 31
4.4196
 12
32.2596
 22
48.159
 32
4.4196
 13
20.4708
 23
48.159
 33
4.4196
  0
3DFACE
 62
0
  8
slabs_blocks
 10
40.3336
 20
33.657
 30
4.7752
 11
42.52
 21
33.657
 31
4.7752
 12
42.52
 22
33.757
 32
4.7752
 13
40.3336
 23
33.757
 33
4.7752
  0
3DFACE
 62
0
  8
slabs_blocks
 10
14.1208
 20
8.839
 30
4.7752
 11
16.66
 21
8.839
 31
4.7752
 12
16.66
 22
8.875
 32
4.7752
 13
14.1208
 23
8.875
 33
4.7752
  0
LINE
 62
0
  8
slabs_blocks
 10
42.52
 20
16.02
 30
4.7752
 11
42.52
 21
17.045
 31
4.7752
  0
3DFACE
 62
0
  8
slabs_blocks
 10
48.868
 20
25.351
 30
4.7752
 11
53.52
 21
25.351
 31
4.7752
 12
53.52
 22
25.451
 32
4.7752
 13
48.868
 23
25.451
 33
4.7752
  0
LINE
 62
0
  8
slabs_blocks
 10
53.52
 20
30.373
 30
4.4196
 11
53.52
 21
29.257
 31
4.4196
  0
LINE
 62
0
  8
slabs_blocks
 10
47.52
 20
44.77
 30
4.7752
 11
43.92
 21
44.77
 31
4.7752
  0
3DFACE
 62
0
  8
slabs_blocks
 10
47.52
 20
29.257
 30
4.7752
 11
48.668
 21
29.257
 31
4.7752
 12
48.668
 22
30.373
 32
4.7752
 13
47.52
 23
30.373
 33
4.7752
  0
LINE
 62
0
  8
slabs_blocks
 10
55.7784
 20
33.183
 30
4.4196
 11
55.7784
 21
33.657
 31
4.4196
  0
3DFACE
 62
0
  8
slabs_blocks
 10
53.52
 20
25.351
 30
4.4196
 11
55.7784
 21
25.351
 31
4.4196
 12
55.7784
 22
25.451
 32
4.4196
 13
53.52
 23
25.451
 33
4.4196
  0
LINE
 62
0
  8
slabs_blocks
 10
43.92
 20
41.963
 30
4.7752
 11
43.32
 21
41.963
 31
4.7752
  0
3DFACE
 62
0
  8
slabs_blocks
 10
43.92
 20
30.373
 30
4.7752
 11
47.52
 21
30.373
 31
4.7752
 12
47.52
 22
33.183
 32
4.7752
 13
43.92
 23
33.183
 33
4.7752
  0
LINE
 62
0
  8
slabs_blocks
 10
40.1336
 20
33.857
 30
4.7752
 11
32.4596
 21
33.857
 31
4.7752
  0
LINE
 62
0
  8
slabs_blocks
 10
10.2
 20
33.657
 30
4.7752
 11
9.596
 21
33.657
 31
4.7752
  0
3DFACE
 62
0
  8
slabs_blocks
 10
6.096
 20
17.245
 30
4.7752
 11
6.196
 21
17.245
 31
4.7752
 12
6.196
 22
25.351
 32
4.7752
 13
6.096
 23
25.351
 33
4.7752
  0
3DFACE
 62
0
  8
slabs_blocks
 10
43.32
 20
33.183
 30
4.7752
 11
43.92
 21
33.183
 31
4.7752
 12
43.92
 22
33.657
 32
4.7752
 13
43.32
 23
33.657
 33
4.7752
  0
LINE
 62
0
  8
slabs_blocks
 10
48.768
 20
44.77
 30
4.4196
 11
48.768
 21
48.159
 31
4.4196
  0
3DFACE
 62
0
  8
slabs_blocks
 10
42.52
 20
33.657
 30
4.7752
 11
43.32
 21
33.657
 31
4.7752
 12
43.32
 22
33.757
 32
4.7752
 13
42.52
 23
33.757
 33
4.7752
  0
3DFACE
 62
0
  8
slabs_blocks
 10
16.66
 20
8.839
 30
4.7752
 11
20.2708
 21
8.839
 31
4.7752
 12
20.2708
 22
8.875
 32
4.7752
 13
16.66
 23
8.875
 33
4.7752
  0
LINE
 62
0
  8
slabs_blocks
 10
13.9208
 20
33.183
 30
4.7752
 11
13.9208
 21
33.657
 31
4.7752
  0
LINE
 62
0
  8
slabs_blocks
 10
53.52
 20
33.757
 30
4.4196
 11
53.52
 21
33.657
 31
4.4196
  0
3DFACE
 62
0
  8
slabs_blocks
 10
40.3336
 20
33.757
 30
4.7752
 11
42.52
 21
33.757
 31
4.7752
 12
42.52
 22
33.857
 32
4.7752
 13
40.3336
 23
33.857
 33
4.7752
  0
LINE
 62
0
  8
slabs_blocks
 10
53.52
 20
16.02
 30
4.4196
 11
53.52
 21
10.975
 31
4.4196
  0
3DFACE
 62
0
  8
slabs_blocks
 10
14.1208
 20
8.875
 30
4.7752
 11
16.66
 21
8.875
 31
4.7752
 12
16.66
 22
8.939
 32
4.7752
 13
14.1208
 23
8.939
 33
4.7752
  0
LINE
 62
0
  8
slabs_blocks
 10
40.3336
 20
0.0
 30
4.7752
 11
42.52
 21
0.0
 31
4.7752
  0
LINE
 62
0
  8
slabs_blocks
 10
5.996
 20
33.857
 30
4.7752
 11
5.996
 21
41.963
 31
4.7752
  0
LINE
 62
0
  8
slabs_blocks
 10
43.32
 20
16.02
 30
4.7752
 11
43.32
 21
17.045
 31
4.7752
  0
LINE
 62
0
  8
slabs_blocks
 10
40.3336
 20
8.739
 30
4.7752
 11
40.3336
 21
0.0
 31
4.7752
  0
3DFACE
 62
0
  8
slabs_blocks
 10
48.868
 20
25.451
 30
4.7752
 11
53.52
 21
25.451
 31
4.7752
 12
53.52
 22
25.551
 32
4.7752
 13
48.868
 23
25.551
 33
4.7752
  0
LINE
 62
0
  8
slabs_blocks
 10
42.52
 20
10.975
 30
4.7752
 11
40.3336
 21
10.975
 31
4.7752
  0
LINE
 62
0
  8
slabs_blocks
 10
43.32
 20
0.0
 30
4.7752
 11
43.32
 21
8.739
 31
4.7752
  0
LINE
 62
0
  8
slabs_blocks
 10
48.668
 20
44.77
 30
4.7752
 11
47.52
 21
44.77
 31
4.7752
  0
3DFACE
 62
0
  8
slabs_blocks
 10
47.52
 20
30.373
 30
4.7752
 11
48.668
 21
30.373
 31
4.7752
 12
48.668
 22
33.183
 32
4.7752
 13
47.52
 23
33.183
 33
4.7752
  0
3DFACE
 62
0
  8
slabs_blocks
 10
53.52
 20
25.451
 30
4.4196
 11
55.7784
 21
25.451
 31
4.4196
 12
55.7784
 22
25.551
 32
4.4196
 13
53.52
 23
25.551
 33
4.4196
  0
3DFACE
 62
0
  8
slabs_blocks
 10
20.4708
 20
0.0
 30
4.7752
 11
32.2596
 21
0.0
 31
4.7752
 12
32.2596
 22
8.739
 32
4.7752
 13
20.4708
 23
8.739
 33
4.7752
  0
3DFACE
 62
0
  8
slabs_blocks
 10
6.196
 20
17.245
 30
4.7752
 11
7.828
 21
17.245
 31
4.7752
 12
7.828
 22
25.351
 32
4.7752
 13
6.196
 23
25.351
 33
4.7752
  0
3DFACE
 62
0
  8
slabs_blocks
 10
43.92
 20
33.183
 30
4.7752
 11
47.52
 21
33.183
 31
4.7752
 12
47.52
 22
33.657
 32
4.7752
 13
43.92
 23
33.657
 33
4.7752
  0
3DFACE
 62
0
  8
slabs_blocks
 10
32.3596
 20
44.77
 30
4.4196
 11
32.4596
 21
44.77
 31
4.4196
 12
32.4596
 22
48.159
 32
4.4196
 13
32.3596
 23
48.159
 33
4.4196
  0
3DFACE
 62
0
  8
slabs_blocks
 10
43.32
 20
33.657
 30
4.7752
 11
43.92
 21
33.657
 31
4.7752
 12
43.92
 22
33.757
 32
4.7752
 13
43.32
 23
33.757
 33
4.7752
  0
LINE
 62
0
  8
slabs_blocks
 10
53.52
 20
42.163
 30
4.4196
 11
53.52
 21
42.063
 31
4.4196
  0
3DFACE
 62
0
  8
slabs_blocks
 10
42.52
 20
33.757
 30
4.7752
 11
43.32
 21
33.757
 31
4.7752
 12
43.32
 22
33.857
 32
4.7752
 13
42.52
 23
33.857
 33
4.7752
  0
LINE
 62
0
  8
slabs_blocks
 10
48.868
 20
44.77
 30
4.4196
 11
48.868
 21
48.159
 31
4.4196
  0
3DFACE
 62
0
  8
slabs_blocks
 10
16.66
 20
8.875
 30
4.7752
 11
20.2708
 21
8.875
 31
4.7752
 12
20.2708
 22
8.939
 32
4.7752
 13
16.66
 23
8.939
 33
4.7752
  0
LINE
 62
0
  8
slabs_blocks
 10
7.828
 20
41.963
 30
4.7752
 11
6.196
 21
41.963
 31
4.7752
  0
3DFACE
 62
0
  8
slabs_blocks
 10
0.0
 20
25.551
 30
4.7752
 11
5.996
 21
25.551
 31
4.7752
 12
5.996
 22
29.257
 32
4.7752
 13
0.0
 23
29.257
 33
4.7752
  0
3DFACE
 62
0
  8
slabs_blocks
 10
40.3336
 20
33.857
 30
4.7752
 11
42.52
 21
33.857
 31
4.7752
 12
42.52
 22
41.963
 32
4.7752
 13
40.3336
 23
41.963
 33
4.7752
  0
3DFACE
 62
0
  8
slabs_blocks
 10
14.1208
 20
8.939
 30
4.7752
 11
16.66
 21
8.939
 31
4.7752
 12
16.66
 22
10.839
 32
4.7752
 13
14.1208
 23
10.839
 33
4.7752
  0
LINE
 62
0
  8
slabs_blocks
 10
53.52
 20
8.839
 30
4.4196
 11
53.52
 21
8.739
 31
4.4196
  0
LINE
 62
0
  8
slabs_blocks
 10
42.52
 20
8.739
 30
4.7752
 11
42.52
 21
8.839
 31
4.7752
  0
3DFACE
 62
0
  8
slabs_blocks
 10
32.4596
 20
42.163
 30
4.7752
 11
40.1336
 21
42.163
 31
4.7752
 12
40.1336
 22
44.77
 32
4.7752
 13
32.4596
 23
44.77
 33
4.7752
  0
LINE
 62
0
  8
slabs_blocks
 10
0.0
 20
48.159
 30
4.4196
 11
0.0
 21
44.77
 31
4.4196
  0
3DFACE
 62
0
  8
slabs_blocks
 10
48.868
 20
25.551
 30
4.7752
 11
53.52
 21
25.551
 31
4.7752
 12
53.52
 22
29.257
 32
4.7752
 13
48.868
 23
29.257
 33
4.7752
  0
LINE
 62
0
  8
slabs_blocks
 10
40.1336
 20
8.939
 30
4.7752
 11
40.1336
 21
10.839
 31
4.7752
  0
LINE
 62
0
  8
slabs_blocks
 10
11.0
 20
33.857
 30
4.7752
 11
11.0
 21
41.963
 31
4.7752
  0
LINE
 62
0
  8
slabs_blocks
 10
55.7784
 20
17.045
 30
4.4196
 11
55.7784
 21
17.145
 31
4.4196
  0
ENDSEC
  0
EOF
